<?xml version="1.0" standalone="no"?>
<!DOCTYPE svg PUBLIC "-//W3C//DTD SVG 1.1//EN" "http://www.w3.org/Graphics/SVG/1.1/DTD/svg11.dtd" >
<svg xmlns="http://www.w3.org/2000/svg">
<metadata></metadata>
<defs>
<font id="misobold" horiz-adv-x="851" >
<font-face units-per-em="2048" ascent="1638" descent="-410" />
<missing-glyph horiz-adv-x="393" />
<glyph horiz-adv-x="0" />
<glyph horiz-adv-x="682" />
<glyph unicode=" "  horiz-adv-x="393" />
<glyph unicode="&#x09;" horiz-adv-x="393" />
<glyph unicode="&#xa0;" horiz-adv-x="393" />
<glyph unicode="!" horiz-adv-x="409" d="M86 78q0 49 35 84t84 35t84 -35t35 -84t-35 -84t-84 -35t-84 35t-35 84zM106 385v819q0 41 29 70t70 29q40 0 69 -29t29 -70v-819q0 -41 -29 -70q-28 -28 -69 -28q-42 0 -70 28q-29 29 -29 70z" />
<glyph unicode="&#x22;" horiz-adv-x="720" d="M98 1040v205q0 41 29 70q28 28 70 28q41 0 69 -28q29 -29 29 -70v-205q0 -40 -29 -69t-69 -29q-41 0 -70 29t-29 69zM426 1040v205q0 41 29 70q28 28 69 28q42 0 70 -28q29 -29 29 -70v-205q0 -40 -29 -69t-70 -29q-40 0 -69 29t-29 69z" />
<glyph unicode="#" horiz-adv-x="937" d="M8 508q0 38 27 65t65 27h113v141h-113q-37 0 -65 28q-27 27 -27 67q0 38 27 65t65 27h113v317q0 39 27 66q26 26 65 26q41 0 67 -26q27 -27 27 -66v-317h142v317q0 40 26 66t66 26t66 -26q28 -28 28 -66v-317h111q39 0 66 -27q28 -28 28 -65q0 -39 -28 -67t-66 -28h-111 v-141h111q39 0 66 -27q28 -28 28 -65q0 -39 -28 -67q-27 -27 -66 -27h-111v-357q0 -38 -28 -66t-66 -28t-66 28q-26 26 -26 66v357h-142v-357q0 -39 -27 -66q-28 -28 -67 -28q-37 0 -65 28q-27 27 -27 66v357h-113q-38 0 -65 27t-27 67zM399 600h142v141h-142v-141z" />
<glyph unicode="$" d="M114 281q12 39 46 61q34 21 73 9t60 -46q32 -54 94 -65q64 -11 111 30q49 39 49 105q-1 25 -15 56q-13 29 -36 46l-256 211q-58 46 -88 110q-31 67 -31 136q-2 74 27 137q31 67 85 113q23 22 54 38q25 13 59 25v80q0 41 29 70q28 28 69 28q42 0 70 -28q29 -29 29 -70v-82 q58 -17 104 -54q47 -38 76 -91q23 -35 11 -74t-46 -61q-36 -22 -74 -10q-39 12 -61 46q-29 52 -88 62q-60 10 -105 -29q-47 -40 -43 -98q0 -57 45 -96l259 -211q57 -47 89 -113t33 -139q0 -77 -30 -143t-86 -113q-27 -23 -57 -39t-60 -27v-80q0 -40 -29 -69t-69 -29 q-41 0 -70 29t-29 69v80q-124 39 -190 152q-21 35 -9 74z" />
<glyph unicode="%" horiz-adv-x="1214" d="M49 1061q0 53 22 105q21 50 58 87q39 39 86 59q50 21 107 21q56 0 105 -21t87 -59q37 -37 58 -87q22 -52 22 -105q0 -55 -22 -107q-21 -49 -58 -86t-87 -58q-52 -22 -105 -22q-55 0 -107 22q-49 21 -86 58t-58 86q-22 52 -22 107zM225 1061q0 -41 28 -69q27 -27 69 -27 q41 0 68 27q28 28 28 69q0 40 -28 68t-68 28q-41 0 -69 -28t-28 -68zM228 25q-13 38 5 75l574 1188q16 37 55 50q38 13 76 -5q37 -16 50 -55q13 -38 -5 -76l-573 -1188q-16 -36 -56 -50q-38 -13 -75 5q-37 16 -51 56zM623 242q0 56 21 105q21 50 58 87q39 39 86 59 q50 21 107 21q55 0 105 -21q49 -21 87 -59t59 -87t21 -105q0 -58 -21 -107q-20 -47 -59 -86q-37 -37 -87 -58q-52 -22 -105 -22q-55 0 -107 22q-49 21 -86 58t-58 86t-21 107zM799 242q0 -42 27 -69q28 -28 69 -28t69 28q27 27 27 69q0 41 -27 68q-28 28 -69 28t-69 -28 q-27 -27 -27 -68z" />
<glyph unicode="&#x26;" horiz-adv-x="1009" d="M72 250q-12 71 5 138q19 72 60 126l150 193l-125 159l-6 8q-48 74 -49 156q-2 86 38 158q40 75 116 118q74 42 161 37q88 -5 157 -50q71 -47 105 -124q37 -76 29 -161q-7 -82 -62 -152l-116 -149l139 -183l24 -28l37 63q22 34 62 45q39 10 73 -12t45 -62q11 -39 -10 -73 l-78 -129l146 -191q24 -33 20 -72q-5 -41 -37 -65t-73 -19q-43 5 -66 37l-98 129l-14 -22q-33 -58 -94 -100q-60 -42 -128 -58q-69 -17 -138 -3q-68 13 -128 54q-59 40 -97 101q-38 60 -48 131zM264 281q10 -61 64 -101q51 -37 114 -20q62 12 95 67l53 86l-72 93l-106 139 l-119 -152q-39 -51 -29 -112zM303 1036q0 -30 16 -53l93 -117l84 109q39 51 12 110q-29 58 -94 62q-30 2 -55 -13t-42 -42q-14 -22 -14 -56z" />
<glyph unicode="'" horiz-adv-x="393" d="M98 1040v205q0 41 29 70q28 28 70 28q41 0 69 -28q29 -29 29 -70v-205q0 -40 -29 -69t-69 -29q-41 0 -70 29t-29 69z" />
<glyph unicode="(" horiz-adv-x="548" d="M82 651q0 218 70 428q73 211 213 391q25 32 64 36q41 5 73 -19q34 -28 38 -67q4 -40 -22 -72q-59 -75 -104 -158q-48 -87 -76 -174q-59 -180 -59 -365q0 -188 59 -364q28 -87 76 -174q45 -83 104 -158q27 -32 22 -73q-4 -38 -38 -66q-35 -25 -73 -21q-40 4 -64 37 q-140 180 -213 391q-70 210 -70 428z" />
<glyph unicode=")" horiz-adv-x="550" d="M9 -97q-4 39 20 72q119 150 182 332q59 176 59 365q0 184 -59 364q-63 182 -182 332q-24 34 -20 73q4 38 38 66q34 24 73 20t64 -36q143 -186 211 -391q72 -212 72 -428t-72 -428q-68 -205 -211 -391q-24 -33 -64 -37q-39 -4 -73 20q-34 28 -38 67z" />
<glyph unicode="*" d="M70 809q10 37 43 55l127 74l-127 74q-33 18 -43 55q-11 38 10 72q18 33 55 43t72 -11l127 -71v145q0 40 26 66t66 26q41 0 67 -26q27 -27 27 -66v-145l125 71q35 21 72 11t55 -43q21 -34 10 -72q-10 -37 -43 -55l-127 -74l127 -74q33 -18 43 -55q11 -38 -10 -72 q-18 -35 -55 -44t-72 12l-125 71v-145q0 -40 -27 -67t-67 -27q-39 0 -66 27q-26 26 -26 67v145l-127 -71q-35 -21 -72 -12t-55 44q-21 34 -10 72z" />
<glyph unicode="+" d="M82 590q0 40 29 69t69 29h148v148q0 41 28 69q29 29 70 29t70 -29q28 -28 28 -69v-148h148q40 0 69 -29t29 -69q0 -41 -29 -70q-28 -28 -69 -28h-148v-148q0 -42 -28 -70t-70 -28t-70 28t-28 70v148h-148q-41 0 -69 28q-29 29 -29 70z" />
<glyph unicode="," horiz-adv-x="393" d="M72 98q0 40 26 66t66 26h65q41 0 67 -26q28 -28 28 -66v-98q0 -63 -34 -112q-35 -50 -89 -72q-37 -16 -72 -1q-34 15 -51 50q-16 37 -1 72t52 51q8 5 8 12v8q-29 11 -47 35t-18 55z" />
<glyph unicode="-" d="M82 590q0 40 29 69t69 29h492q40 0 69 -29t29 -69q0 -41 -29 -70q-28 -28 -69 -28h-492q-41 0 -69 28q-29 29 -29 70z" />
<glyph unicode="." horiz-adv-x="393" d="M78 78q0 49 35 84t84 35t84 -35q34 -34 34 -84t-34 -84q-35 -35 -84 -35t-84 35t-35 84z" />
<glyph unicode="/" d="M88 8l492 1352q15 39 51 56q37 18 76 3t56 -51q18 -36 1 -74l-492 -1351q-15 -40 -50 -57q-36 -18 -75 -3q-38 15 -56 50q-18 36 -3 75z" />
<glyph unicode="0" d="M82 303v696q0 72 27 135t73 109q47 47 110 74q61 26 134 26q72 0 133 -26q63 -27 110 -74q46 -46 73 -109q28 -65 28 -135v-696q0 -69 -28 -134t-73 -110t-110 -73q-63 -27 -133 -27q-71 0 -134 27q-65 28 -110 73t-73 110q-27 63 -27 134zM279 303q0 -61 43 -104 t104 -43q60 0 103 43q44 44 44 104v696q0 61 -44 105q-43 43 -103 43q-61 0 -104 -43t-43 -105v-696z" />
<glyph unicode="1" d="M131 999q0 41 29 70l246 246q47 47 106 20q28 -11 45 -36q16 -25 16 -54v-1188q0 -41 -28 -69q-29 -29 -70 -29q-40 0 -69 29t-29 69v951q-13 -11 -28 -27q-18 -20 -23 -25q-10 -12 -27 -26q-29 -29 -70 -29q-40 0 -69 29t-29 69z" />
<glyph unicode="2" d="M93 1098q-12 39 9 73q68 120 207 160q65 18 132 10q65 -7 126 -41q124 -66 164 -202q18 -66 12 -132t-36 -126q-80 -152 -140 -265q-38 -74 -58 -112q-58 -110 -59 -112q-41 -75 -56 -102q-33 -62 -44 -85h297q41 0 70 -29q28 -28 28 -69q0 -42 -28 -70q-29 -29 -70 -29 h-459q-54 0 -84 47q-27 45 -4 97l432 819q27 56 11 112q-18 57 -70 86q-54 29 -113 13q-54 -16 -88 -68q-21 -34 -59 -46q-39 -12 -74 9q-34 22 -46 62z" />
<glyph unicode="3" d="M65 205q12 39 46 61q34 21 73 9q40 -12 62 -46q23 -42 70 -62q46 -19 96 -7q48 16 77 53q31 40 31 90v123q0 61 -43 104t-104 43q-41 0 -70 29t-29 70q0 40 29 69t70 29q61 0 104 43t43 104v82q0 48 -31 90q-29 40 -77 52q-49 15 -96 -5q-46 -19 -70 -63q-22 -34 -62 -46 q-39 -12 -73 9q-34 22 -46 62q-12 39 9 73q30 54 71 89q42 36 95 58q51 21 108 24q61 3 113 -11q59 -16 104 -46t81 -76q33 -42 52 -98q19 -57 19 -112v-82q0 -70 -28 -135q-27 -63 -77 -110q49 -46 77 -111t28 -135v-123q0 -58 -19 -113t-52 -97q-36 -46 -81 -76t-104 -46 q-56 -17 -113 -12q-55 4 -108 26t-95 58t-71 88q-21 35 -9 74z" />
<glyph unicode="4" d="M57 375l287 901q12 39 48 57t77 6q33 -11 49 -36q19 -29 19 -58q0 -8 -5 -31q-13 -42 -48 -150.5t-52 -164.5q-8 -24 -22.5 -71t-18.5 -59q-34 -108 -41 -127q-15 -42 -37 -113q-6 -20 -15 -50.5t-11 -36.5h176v189q0 40 29 69t69 29q41 0 70 -29q28 -28 28 -69v-189h66 q42 0 70 -28t28 -70t-28 -70t-70 -28h-66v-189q0 -41 -28 -69q-29 -29 -70 -29q-40 0 -69 29t-29 69v189h-311q-51 0 -80 41q-29 39 -15 88z" />
<glyph unicode="5" d="M113 651v586q0 42 28 70t70 28h426q42 0 70 -28t28 -70t-28 -70t-70 -28h-328v-287q101 35 205 8q57 -15 102 -46q45 -30 81 -76q35 -44 53 -98t18 -112v-225q0 -61 -18 -113q-18 -53 -53 -97q-36 -46 -81 -76q-45 -31 -102 -46q-114 -30 -221 14q-105 43 -166 146 q-23 35 -11 74t46 61q35 21 74 9t61 -46q23 -42 71 -62q45 -19 95 -7q50 16 78 53q30 39 30 90v225q0 48 -30 89t-78 53q-48 15 -95 -5t-71 -63q-16 -28 -47 -42q-30 -14 -64 -3q-31 7 -53 34q-20 24 -20 60z" />
<glyph unicode="6" d="M100 303v696q0 55 19 112q19 56 52 98q36 46 81 76t104 46q52 14 113 11q58 -3 109 -24t94 -58q41 -35 71 -89q22 -35 10 -73q-12 -40 -46 -62q-35 -21 -74 -9t-60 46q-28 44 -72 63q-47 20 -93 5q-51 -12 -80 -52q-31 -42 -31 -90v-180q72 33 147 33q72 0 135 -27 t109 -73q47 -47 74 -110q26 -61 26 -134v-205q0 -73 -26 -134q-27 -63 -74 -110q-46 -46 -109 -73t-135 -27q-71 0 -134 27q-61 26 -108 73t-74 110q-28 65 -28 134zM297 303q0 -61 43 -104t104 -43q62 0 105 43t43 104v205q0 61 -43 104t-105 43q-61 0 -104 -43t-43 -104 v-205z" />
<glyph unicode="7" d="M76 1073v164q0 42 28 70t70 28h492q47 0 77 -37q29 -39 19 -84l-287 -1179q-11 -43 -44 -63q-35 -21 -75 -11q-34 10 -55 36q-20 24 -20 60q0 9 1 12t3 11q12 49 110 455q33 140 43 182q17 68 42 173q32 135 35 146q12 54 26 103h-269v-66q0 -41 -28 -69q-29 -29 -70 -29 t-70 29q-28 28 -28 69z" />
<glyph unicode="8" d="M82 303v123q0 71 29 135q30 66 75 111q-46 46 -75 110t-29 136v81q0 70 28 135q27 63 73 109q48 48 109 74t134 26t134 -26q63 -27 110 -74q46 -46 73 -109t27 -135v-81q0 -71 -28 -136q-27 -63 -74 -110q46 -46 74 -111t28 -135v-123q0 -71 -27 -134q-28 -65 -73 -110 t-110 -73q-63 -27 -134 -27t-134 27t-109 73q-45 45 -73 110t-28 134zM279 303q0 -60 44 -104q43 -43 103 -43q61 0 104 43t43 104v123q0 61 -43 104t-104 43q-60 0 -103 -43q-44 -44 -44 -104v-123zM279 918q0 -61 44 -105q43 -43 103 -43q61 0 104 43t43 105v81 q0 62 -43 105t-104 43q-60 0 -103 -43q-44 -44 -44 -105v-81z" />
<glyph unicode="9" d="M64 795v204q0 72 27 135q26 61 74 109q49 48 108 74q61 26 135 26q73 0 134 -26t109 -74t74 -109q27 -63 27 -135v-696q0 -58 -19 -113t-52 -97q-36 -46 -81 -76q-45 -31 -102 -46q-56 -17 -113 -12q-57 4 -109 26q-51 21 -94 58q-42 36 -71 88q-21 35 -11 74 q10 38 45 61q35 21 75 9t61 -46q23 -42 71 -62q46 -19 94 -7q50 16 78 53q31 40 31 90v180q-67 -32 -147 -32q-74 0 -135 26q-59 25 -108 74q-48 48 -74 109q-27 63 -27 135zM260 795q0 -61 44 -105q43 -43 104 -43t104 43t43 105v204q0 62 -43 105t-104 43t-104 -43 q-44 -44 -44 -105v-204z" />
<glyph unicode=":" horiz-adv-x="393" d="M78 78q0 49 35 84t84 35t84 -35q34 -34 34 -84t-34 -84q-35 -35 -84 -35t-84 35t-35 84zM78 856q0 49 35 84t84 35t84 -35q34 -34 34 -84t-34 -84q-35 -35 -84 -35t-84 35t-35 84z" />
<glyph unicode=";" horiz-adv-x="393" d="M72 98q0 40 26 66t66 26h65q41 0 67 -26q28 -28 28 -66v-98q0 -63 -34 -112q-35 -50 -89 -72q-37 -16 -72 -1q-34 15 -51 50q-16 37 -1 72t52 51q8 5 8 12v8q-29 11 -47 35t-18 55zM78 856q0 49 35 84t84 35t84 -35q34 -34 34 -84t-34 -84q-35 -35 -84 -35t-84 35t-35 84 z" />
<glyph unicode="&#x3c;" d="M66 590q0 48 34 76l492 409q31 28 72 23q39 -4 67 -35q23 -29 23 -64q0 -45 -37 -75q-111 -92 -154 -129q-17 -14 -62 -52t-70 -59q-18 -15 -57.5 -47.5t-56.5 -46.5q20 -18 114 -95l132 -110q43 -37 154 -129q37 -30 37 -76q0 -34 -23 -63q-28 -31 -67 -35 q-42 -5 -72 22l-492 410q-34 28 -34 76z" />
<glyph unicode="=" d="M82 426q0 41 29 70q28 28 69 28h492q41 0 69 -28q29 -29 29 -70t-29 -70q-28 -28 -69 -28h-492q-41 0 -69 28q-29 29 -29 70zM82 754q0 40 29 69t69 29h492q40 0 69 -29t29 -69q0 -41 -29 -70t-69 -29h-492q-40 0 -69 29t-29 70z" />
<glyph unicode="&#x3e;" d="M98 180q0 46 35 76q79 66 156 129l246 205q-78 63 -114 94q-88 76 -132 111q-77 63 -156 129q-35 30 -35 75q0 35 23 64q28 31 66 35q40 4 73 -23l492 -409q34 -28 34 -76t-34 -76l-492 -410q-32 -27 -73 -22q-38 4 -66 35q-23 29 -23 63z" />
<glyph unicode="?" horiz-adv-x="731" d="M29 1098q-11 39 10 73q38 67 97 108t132 58q73 15 146 -2q72 -16 131 -61q57 -44 95 -112q35 -63 40 -138q4 -70 -21 -143q-25 -71 -77 -123l-105 -105q-43 -46 -43 -104v-164q0 -41 -29 -70q-28 -28 -69 -28q-42 0 -70 28t-28 70v164q0 69 26 130t74 112l104 104 q22 22 34 52q12 29 7 63q-4 65 -57 106t-119 29q-30 -7 -56 -26q-26 -18 -42 -46q-21 -34 -61 -46t-74 9q-34 22 -45 62zM217 78q0 49 35 84t84 35t84 -35t35 -84t-35 -84t-84 -35t-84 35t-35 84z" />
<glyph unicode="@" horiz-adv-x="1564" d="M96 283v368q0 137 51 261t150 223q97 97 223 150q123 52 262 52q141 0 264 -52q124 -53 222 -150q98 -98 149 -223q51 -124 51 -261v-381q0 -63 -23 -115q-25 -56 -64 -95q-38 -38 -94 -63q-54 -24 -116 -24h-409q-62 0 -116 24q-56 25 -94 63q-39 39 -64 95 q-23 52 -23 115q0 64 23 116q24 54 64 94t94 64q52 23 116 23h112v109q0 32 -18 59q-17 26 -51 41q-31 12 -65 5q-35 -8 -58 -29q-29 -29 -66 -28t-65 28q-27 28 -27 65q0 39 29 66q64 62 150 80t171 -17q42 -17 75 -43q37 -29 59 -63q27 -38 39 -79q12 -42 12 -85v-518h112 q48 0 80 32q33 33 33 80v381q0 102 -37 192q-38 93 -108 163q-71 72 -163 109q-93 38 -194 38q-98 0 -191 -38q-91 -37 -163 -109q-73 -73 -110 -163t-37 -192v-368q0 -104 37 -194t110 -163q70 -70 163 -108q90 -37 191 -37h226q37 0 65 -28q27 -27 27 -64q0 -39 -27 -66 q-26 -26 -65 -26h-226q-138 0 -262 51q-125 51 -223 149q-100 100 -150 222q-51 125 -51 264zM649 270q0 -47 33 -80q32 -32 80 -32h112v225h-112q-47 0 -80 -33t-33 -80z" />
<glyph unicode="A" horiz-adv-x="884" d="M20 84l328 1188q7 31 34 52q25 19 60 19q36 0 61 -19q27 -21 34 -52l327 -1188q4 -15 4 -28q0 -25 -13 -48q-20 -35 -58 -45q-15 -4 -28 -4q-25 0 -48 13q-34 19 -45 59q-14 44 -17 59q-11 44 -19 69q-12 41 -24 87h-348q-7 -23 -24 -87q-4 -15 -10.5 -38t-8.5 -31 q-6 -26 -16 -59q-11 -40 -45 -59q-23 -13 -48 -13q-14 0 -28 4q-38 10 -58 45q-13 24 -13 50q0 13 3 26zM324 442h237q-7 27 -27.5 102.5t-31.5 117.5q-2 7 -60 212q-41 -146 -59 -212q-11 -42 -31.5 -117.5t-27.5 -102.5z" />
<glyph unicode="B" horiz-adv-x="876" d="M106 66v1171q0 41 29 70q28 28 70 28h246q72 0 133 -26t109 -74q47 -47 74 -110q28 -65 28 -134v-73q0 -72 -29 -136q-28 -62 -76 -110q47 -47 76 -111t29 -135v-115q0 -69 -28 -134q-26 -61 -74 -109t-109 -74q-63 -27 -133 -27h-246q-41 0 -70 29t-29 70zM303 164h148 q61 0 104 43t43 104v115q0 61 -43 104t-104 43h-148v-409zM303 770h148q61 0 104 43t43 105v73q0 62 -43 105t-104 43h-148v-369z" />
<glyph unicode="C" horiz-adv-x="788" d="M82 303v696q0 58 18 112t53 98q37 47 80 76q45 30 103 46q47 12 93 12q66 0 128 -25q105 -43 166 -147q15 -23 15 -47q0 -13 -4 -26q-12 -40 -46 -62q-22 -13 -46 -13q-14 0 -28 4q-39 12 -61 46q-24 43 -71 63q-27 11 -54 11q-20 0 -41 -6q-49 -13 -78 -52 q-30 -41 -30 -90v-696q0 -51 30 -90q28 -37 78 -53q19 -5 38 -4q29 0 57 11q48 20 71 62q22 34 61 46q14 4 28 4q24 0 46 -13q34 -22 46 -61q4 -13 4 -26q0 -25 -15 -48q-61 -103 -166 -146q-64 -26 -130 -26q-45 0 -91 12q-58 16 -103 46q-43 29 -80 76q-35 44 -53 97 q-18 52 -18 113z" />
<glyph unicode="D" horiz-adv-x="876" d="M106 66v1171q0 41 29 70q28 28 70 28h246q73 0 134 -26t109 -74q47 -47 74 -110t27 -134v-680q0 -71 -27 -134q-26 -61 -74 -109t-109 -74q-63 -27 -134 -27h-246q-41 0 -70 29t-29 70zM303 164h148q61 0 104 43t43 104v680q0 62 -43 105t-104 43h-148v-975z" />
<glyph unicode="E" horiz-adv-x="753" d="M106 66v1171q0 41 29 70q28 28 70 28h409q42 0 70 -28q29 -29 29 -70t-29 -70q-28 -28 -70 -28h-311v-369h270q41 0 70 -29t29 -69q0 -41 -29 -70t-70 -29h-270v-409h311q41 0 70 -29t29 -69q0 -41 -29 -70t-70 -29h-409q-41 0 -70 29t-29 70z" />
<glyph unicode="F" horiz-adv-x="737" d="M106 66v1171q0 41 29 70q28 28 70 28h409q42 0 70 -28q29 -29 29 -70t-29 -70q-28 -28 -70 -28h-311v-369h270q41 0 70 -29t29 -69q0 -41 -29 -70t-70 -29h-270v-507q0 -41 -29 -70t-69 -29q-41 0 -70 29t-29 70z" />
<glyph unicode="G" horiz-adv-x="843" d="M82 303v696q0 58 18 112t53 98q37 47 80 76q44 30 105 46q43 12 92 12q10 0 21 -1q57 -3 108 -24t94 -58t72 -89q13 -22 13 -45q0 -14 -4 -28q-12 -40 -46 -62q-22 -13 -46 -13q-14 0 -28 4q-38 12 -59 46q-27 44 -73 63q-27 11 -53 11q-20 0 -40 -6q-51 -12 -80 -52 q-30 -41 -30 -90v-696q0 -60 44 -104q43 -43 103 -43q61 0 104 43t43 104v229h-106q-41 0 -70 29q-28 28 -28 70q0 41 28 69q29 29 70 29h205q40 0 69 -29t29 -69v-328q0 -71 -27 -134q-28 -65 -73 -110t-110 -73q-63 -27 -134 -27t-134 27t-109 73q-45 45 -73 110t-28 134z " />
<glyph unicode="H" horiz-adv-x="901" d="M106 57v1188q0 41 29 70q28 28 70 28q41 0 69 -28q29 -29 29 -70v-475h295v475q0 41 29 70q28 28 69 28q42 0 70 -28q29 -29 29 -70v-1188q0 -40 -29 -69t-70 -29q-40 0 -69 29t-29 69v516h-295v-516q0 -40 -29 -69t-69 -29q-41 0 -70 29t-29 69z" />
<glyph unicode="I" horiz-adv-x="409" d="M106 57v1188q0 41 29 70q28 28 70 28q41 0 69 -28q29 -29 29 -70v-1188q0 -40 -29 -69t-69 -29q-41 0 -70 29t-29 69z" />
<glyph unicode="J" horiz-adv-x="681" d="M22 66q-4 14 -4 28q0 23 13 45q21 34 60 46q15 4 29 4q24 0 46 -13q33 -20 74 -20q40 0 73 20q36 19 55 52q19 34 19 75v942q0 41 29 70q28 28 69 28q42 0 70 -28q29 -29 29 -70v-942q0 -92 -47 -172q-47 -81 -125 -127q-80 -45 -174 -45q-92 0 -170 45q-34 22 -46 62z " />
<glyph unicode="K" horiz-adv-x="862" d="M106 57v1188q0 41 29 70q28 28 70 28q41 0 69 -28q29 -29 29 -70v-440l354 498q23 32 65 38q9 1 17 1q31 0 56 -17q35 -23 41 -62q1 -8 1 -15q0 -31 -20 -60l-307 -432l317 -656q9 -20 9 -41q0 -17 -6 -34q-14 -40 -50 -56q-22 -10 -43 -10q-15 0 -31 5q-40 14 -57 50 l-268 559l-78 -106v-410q0 -40 -29 -69t-69 -29q-41 0 -70 29t-29 69z" />
<glyph unicode="L" horiz-adv-x="712" d="M106 66v1179q0 41 29 70q28 28 70 28q41 0 69 -28q29 -29 29 -70v-1081h311q41 0 70 -29t29 -69q0 -41 -29 -70t-70 -29h-409q-41 0 -70 29t-29 70z" />
<glyph unicode="M" horiz-adv-x="1064" d="M106 57v1188q0 35 21 62t55 34q13 3 24 3q22 0 42 -10q30 -15 45 -48q38 -84 84 -178q35 -78 78 -165q36 -71 77 -163q24 53 77 163q48 99 77 165q36 79 84 178q17 33 46 48q19 10 41 10q12 0 24 -3q36 -8 56 -34q21 -27 21 -62v-1188q0 -41 -28 -69q-29 -29 -70 -29 q-40 0 -69 29t-29 69v748q-19 -40 -51 -109q-28 -61 -45 -94q-20 -44 -45 -94q-12 -27 -36 -42t-53 -15q-63 0 -90 57q-25 50 -45 94q-17 33 -45 94q-34 75 -49 109v-748q0 -40 -29 -69t-69 -29q-41 0 -70 29t-29 69z" />
<glyph unicode="N" horiz-adv-x="983" d="M106 57v1188q0 35 21 62t55 34q13 3 24 3q22 0 41 -10q29 -14 46 -46q72 -152 129 -268q86 -176 125 -258q90 -189 133 -275v758q0 41 29 70q28 28 69 28q42 0 70 -28q29 -29 29 -70v-1188q0 -33 -22 -61q-21 -28 -54 -35q-13 -3 -24 -3q-22 0 -42 10q-29 15 -45 46 q-82 173 -129 269q-57 117 -126 258q-76 155 -132 274v-758q0 -40 -29 -69t-69 -29q-41 0 -70 29t-29 69z" />
<glyph unicode="O" d="M82 303v696q0 72 27 135t73 109q47 47 110 74q61 26 134 26t134 -26q63 -27 110 -74q46 -46 73 -109t27 -135v-696q0 -71 -27 -134q-28 -65 -73 -110t-110 -73q-63 -27 -134 -27t-134 27q-65 28 -110 73t-73 110q-27 63 -27 134zM279 303q0 -61 43 -104t104 -43t104 43 t43 104v696q0 62 -43 105t-104 43t-104 -43t-43 -105v-696z" />
<glyph unicode="P" horiz-adv-x="819" d="M106 57v1180q0 41 29 70q28 28 70 28h246q73 0 134 -26t109 -74q47 -47 74 -110t27 -134v-114q0 -72 -27 -135q-26 -61 -74 -109t-109 -74q-63 -27 -134 -27h-148v-475q0 -40 -29 -69t-69 -29q-41 0 -70 29t-29 69zM303 729h148q61 0 104 43t43 105v114q0 62 -43 105 t-104 43h-148v-410z" />
<glyph unicode="Q" d="M82 303v696q0 70 28 135q27 63 73 109q48 48 109 74t134 26t134 -26q63 -27 110 -74q46 -46 73 -109t27 -135v-696q0 -67 -25 -129q-24 -59 -69 -106l82 -142q13 -22 13 -45q0 -14 -4 -28q-12 -39 -46 -60q-23 -15 -48 -15q-13 0 -26 4q-38 12 -59 46l-82 141 q-39 -10 -80 -10q-71 0 -134 27t-109 73q-45 45 -73 110t-28 134zM279 303q0 -61 43 -104t104 -43t104 43t43 104v696q0 62 -43 105t-104 43t-104 -43t-43 -105v-696z" />
<glyph unicode="R" d="M107 57v1180q0 42 28 70t70 28h246q73 0 134 -26t109 -74q47 -47 74 -110t27 -134v-114q0 -99 -51 -182q-49 -80 -134 -124l178 -479q8 -19 8 -37q0 -20 -9 -39q-17 -36 -56 -51q-18 -7 -35 -7q-20 0 -40 9q-35 16 -52 56l-190 509h-111v-475q0 -40 -29 -69t-69 -29 q-41 0 -70 29q-28 28 -28 69zM303 729h148q61 0 104 43t43 105v114q0 62 -43 105t-104 43h-148v-410z" />
<glyph unicode="S" horiz-adv-x="782" d="M60 210q12 39 46 60q23 14 47 14q13 0 27 -4q39 -12 62 -47q33 -58 104 -75q16 -3 32 -3q53 0 95 33q27 20 43 50q14 27 19 63q1 8 1 15q0 61 -44 108l-328 336q-54 54 -78 123q-19 55 -19 114q0 15 1 29q6 72 41 138t94 110t132 61q39 9 77 9q34 0 67 -7q73 -17 132 -58 q61 -43 98 -108q13 -22 13 -45q0 -14 -4 -28q-12 -40 -46 -62q-22 -13 -46 -13q-14 0 -28 4q-38 12 -59 46q-34 55 -99 72q-15 3 -29 3q-48 0 -89 -32q-54 -40 -58 -106q-1 -7 0 -15q0 -57 41 -98l326 -336q54 -57 80 -127q21 -57 21 -118q0 -14 -1 -29q-6 -79 -43 -144 q-38 -67 -96 -112q-63 -48 -135 -64q-40 -9 -80 -9l-70 7q-73 16 -137 61q-60 43 -98 109q-16 24 -16 49q0 13 4 26z" />
<glyph unicode="T" horiz-adv-x="778" d="M25 1237q0 42 28 70t70 28h532q42 0 70 -28q29 -29 29 -70t-29 -70q-28 -28 -70 -28h-168v-1082q0 -41 -28 -69q-29 -29 -70 -29t-70 29q-28 28 -28 69v1082h-168q-42 0 -70 28t-28 70z" />
<glyph unicode="U" horiz-adv-x="868" d="M90 303v942q0 41 29 70q28 28 69 28q42 0 70 -28q29 -29 29 -70v-942q0 -61 43 -104t104 -43t104 43q44 44 44 104v942q0 42 28 70t70 28t70 -28t28 -70v-942q0 -71 -27 -134t-74 -110q-45 -45 -110 -73q-63 -27 -133 -27q-71 0 -134 27q-65 28 -110 73t-73 110 q-27 63 -27 134z" />
<glyph unicode="V" horiz-adv-x="917" d="M37 1219q-4 15 -4 28q0 25 13 47q20 34 60 45q14 4 27 4q24 0 48 -13q36 -19 46 -58q26 -97 80 -293q13 -48 39.5 -142.5t36.5 -131.5q51 -183 78 -279q21 78 76 279q48 174 75 274q32 119 80 293q10 39 46 58q23 13 48 13q13 0 27 -4q41 -11 60 -45q13 -24 13 -49 q0 -13 -3 -26l-328 -1188q-11 -34 -36 -53t-58 -19q-36 0 -61 19q-24 18 -35 53z" />
<glyph unicode="W" horiz-adv-x="1429" d="M45 1223q-3 12 -3 24q0 25 14 49q21 34 61 45q13 3 25 3q26 0 49 -14q34 -21 45 -62q30 -129 63 -264q6 -23 27.5 -112.5t34.5 -143.5q8 -32 21.5 -87.5t24.5 -100t21 -83.5q27 116 65 271q13 54 34.5 143.5t27.5 112.5q33 135 63 264q7 33 35 55q26 20 62 20t60 -20 q27 -22 34 -55q30 -129 63 -264q20 -84 63 -256q10 -39 32 -131t34 -140q27 116 65 271q13 54 34.5 143.5t27.5 112.5q54 219 64 264q11 42 44 62q24 14 50 14q12 0 25 -3q40 -10 61 -45q14 -22 14 -47q0 -13 -4 -26l-286 -1188q-7 -33 -34 -55q-26 -21 -61 -21 q-34 0 -61 21q-28 22 -35 55q-30 129 -63 264q-28 117 -63 255q-31 123 -64 271q-66 -267 -67 -271q-14 -55 -37 -151.5t-25 -103.5q-54 -219 -64 -264q-7 -33 -34 -55q-26 -21 -60 -21t-61 21q-28 22 -35 55z" />
<glyph unicode="X" horiz-adv-x="864" d="M32 27q-5 16 -5 31q0 21 10 42l285 572l-265 528q-10 22 -10 44q0 16 5 32q14 39 48 57q22 10 44 10l32 -5q40 -14 57 -50l199 -397l199 397q17 36 57 50q16 5 32 5q22 0 42 -10q36 -17 50 -57q5 -16 5 -32q0 -22 -10 -44l-264 -528l284 -572q11 -21 11 -43q0 -15 -5 -30 q-14 -40 -51 -58q-20 -10 -42 -10q-15 0 -31 5q-40 14 -58 48l-219 441l-219 -441q-18 -34 -57 -48q-16 -5 -32 -5l-44 10q-34 18 -48 58z" />
<glyph unicode="Y" horiz-adv-x="823" d="M32 1276q14 40 50 57q20 10 42 10q16 0 32 -5q40 -14 57 -50l68 -135q29 -60 63 -129q35 -70 68 -133q35 74 66 133q42 80 65 129l67 135q17 36 58 50q16 5 31 5q22 0 42 -10q37 -18 51 -57q5 -15 5 -30q0 -23 -11 -46l-276 -551v-592q0 -40 -29 -69t-69 -29 q-41 0 -70 29t-29 69v592l-276 551q-10 22 -10 44q0 16 5 32z" />
<glyph unicode="Z" horiz-adv-x="786" d="M49 66q0 20 8 38q52 126 183 437q15 34 41.5 99.5t31.5 76.5q67 160 71 170q13 29 33.5 77.5t28.5 67.5q43 99 46 107h-345q-41 0 -69 28q-29 29 -29 70t29 70q28 28 69 28h492q52 0 82 -43q16 -26 16 -55q0 -21 -8 -39q-83 -194 -184 -438q-15 -34 -43 -100.5t-31 -74.5 q-9 -22 -33.5 -80.5t-37.5 -88.5q-15 -35 -61 -147q-12 -30 -44 -105h344q41 0 70 -29q28 -28 28 -69q0 -42 -28 -70q-29 -29 -70 -29h-492q-51 0 -81 43q-17 28 -17 56z" />
<glyph unicode="[" horiz-adv-x="524" d="M106 -98v1499q0 40 29 69t70 29h205q40 0 69 -29t29 -69q0 -41 -29 -70q-28 -28 -69 -28h-107v-1303h107q40 0 69 -29t29 -69q0 -41 -29 -70t-69 -29h-205q-41 0 -70 29t-29 70z" />
<glyph unicode="\" d="M88 1294q-15 37 3 74q17 36 56 51t75 -3q35 -18 50 -56l492 -1352q17 -40 -1 -75t-56 -50q-39 -15 -76 3q-36 17 -51 57z" />
<glyph unicode="]" horiz-adv-x="524" d="M16 -98q0 40 29 69t70 29h106v1303h-106q-42 0 -70 28q-29 29 -29 70q0 40 29 69t70 29h204q41 0 70 -29t29 -69v-1499q0 -41 -29 -70t-70 -29h-204q-41 0 -70 29t-29 70z" />
<glyph unicode="^" horiz-adv-x="1024" d="M91 870q-3 42 24 72l323 369q28 32 74 32t74 -32l323 -369q27 -30 24 -72q-3 -39 -34 -67q-31 -29 -71 -26q-38 3 -68 34q-30 34 -90 104q-70 81 -82 94q-36 40 -76 87q-1 -1 -30.5 -34.5t-46.5 -52.5q-16 -18 -43.5 -50.5t-37.5 -43.5q-60 -70 -90 -104q-30 -31 -68 -34 q-40 -3 -71 26q-31 28 -34 67z" />
<glyph unicode="_" horiz-adv-x="1024" d="M-98 -229q0 41 28 69q29 29 70 29h1024q41 0 70 -29q28 -28 28 -69q0 -42 -28 -70q-29 -29 -70 -29h-1024q-41 0 -70 29q-28 28 -28 70z" />
<glyph unicode="`" horiz-adv-x="1024" d="M323 1281q-2 36 21 65q24 26 60 28q37 2 65 -22l205 -185q26 -24 28 -60q2 -37 -22 -65q-24 -26 -60 -28q-37 -2 -63 22l-205 185q-27 23 -29 60z" />
<glyph unicode="a" horiz-adv-x="720" d="M31 270q0 64 23 116q24 54 64 94t94 64q52 23 116 23h112v109q0 33 -18 60q-19 28 -49 40q-20 8 -42 8q-11 0 -22 -2q-32 -6 -55 -30q-27 -27 -66 -27q-36 0 -63 27q-29 29 -29 65q0 37 29 66q63 63 149 81q27 6 54 6q56 0 114 -24q83 -34 133 -107t50 -163v-610 q0 -39 -27 -66t-66 -27h-204q-62 0 -116 24q-56 25 -94 63q-39 39 -64 95q-23 52 -23 115zM215 270q0 -47 33 -80q32 -32 80 -32h112v225h-112q-47 0 -80 -33t-33 -80z" />
<glyph unicode="b" horiz-adv-x="794" d="M113 66v1220q0 40 26 66t66 26q39 0 65 -26q27 -27 27 -66v-325h113q61 0 115 -24q56 -25 95 -64q38 -38 63 -94q24 -54 24 -115v-394q0 -61 -24 -115q-26 -58 -63 -95t-95 -63q-54 -24 -115 -24h-205q-39 0 -66 27q-26 26 -26 66zM297 158h113q47 0 79 32q33 33 33 80 v394q0 46 -33 79t-79 33h-113v-618z" />
<glyph unicode="c" horiz-adv-x="671" d="M88 262v410q0 93 49 166q50 74 133 108q59 24 116 24q29 0 57 -6q89 -19 151 -83q29 -27 29 -66q0 -36 -29 -63q-27 -29 -66 -29q-36 0 -63 29q-24 24 -58 30q-12 2 -23 2q-22 0 -42 -8q-33 -15 -51 -42q-19 -28 -19 -62v-410q0 -34 19 -62q18 -27 51 -42q20 -8 42 -8 q11 0 23 2q34 6 58 30q27 29 63 29q39 0 66 -29q29 -29 29 -65q0 -37 -29 -66q-63 -63 -151 -81q-28 -6 -57 -6q-57 0 -116 24q-83 34 -133 108q-49 73 -49 166z" />
<glyph unicode="d" horiz-adv-x="794" d="M88 270v394q0 61 24 115q25 56 63 94q40 40 94 64t116 24h113v325q0 40 26 66t66 26q39 0 65 -26q27 -27 27 -66v-1220q0 -39 -27 -66t-65 -27h-205q-62 0 -116 24q-56 25 -94 63q-37 37 -63 95q-24 54 -24 115zM272 270q0 -47 33 -80q32 -32 80 -32h113v618h-113 q-47 0 -80 -33t-33 -79v-394z" />
<glyph unicode="e" horiz-adv-x="753" d="M88 262v410q0 61 24 115q26 58 63 95q38 38 94 63q54 24 116 24t116 -24q56 -25 94 -63q37 -37 63 -95q24 -54 24 -115v-205q0 -39 -27 -66q-26 -26 -65 -26h-318v-113q0 -34 19 -62q18 -27 51 -42q22 -8 44 -8l22 2q33 6 57 30q27 29 63 29q39 0 68 -29q27 -28 27 -65 t-27 -66q-66 -63 -153 -81q-28 -6 -56 -6q-57 0 -115 24q-86 34 -135 108q-49 73 -49 166zM272 559h226v113q0 47 -33 80q-32 32 -80 32t-80 -32q-33 -33 -33 -80v-113z" />
<glyph unicode="f" horiz-adv-x="606" d="M23 868q0 40 26 66q27 27 66 27h71v120q0 62 24 116q25 56 63 94q39 39 95 64q52 23 115 23q40 0 66 -26t26 -66q0 -39 -26 -65q-27 -27 -66 -27q-47 0 -80 -33q-32 -32 -32 -80v-120h112q39 0 66 -27q26 -26 26 -66q0 -39 -26 -65q-27 -27 -66 -27h-112v-719 q0 -38 -27 -65t-65 -27q-39 0 -66 27t-27 65v719h-71q-39 0 -66 27q-26 26 -26 65z" />
<glyph unicode="g" horiz-adv-x="786" d="M88 270v394q0 61 24 115q25 56 63 94q40 40 94 64t116 24h205q38 0 65 -27t27 -66v-1015q0 -93 -49 -166q-51 -75 -133 -109q-57 -23 -114 -23q-29 0 -59 6q-88 18 -151 81q-29 29 -29 65q0 37 29 66q27 28 64 28q38 0 65 -28q25 -25 59 -31q11 -2 22 -2q22 0 42 8 q33 15 51 42q19 28 19 63v120h-113q-62 0 -116 24q-56 25 -94 63q-37 37 -63 95q-24 54 -24 115zM272 270q0 -47 33 -80q32 -32 80 -32h113v618h-113q-47 0 -80 -33t-33 -79v-394z" />
<glyph unicode="h" horiz-adv-x="802" d="M113 57v1229q0 40 26 66t66 26q39 0 65 -26q27 -27 27 -66v-325h113q61 0 115 -24q56 -25 95 -64q38 -38 63 -94q24 -54 24 -115v-607q0 -38 -27 -65t-66 -27q-38 0 -65 27t-27 65v607q0 46 -33 79t-79 33h-113v-719q0 -38 -27 -65t-65 -27q-39 0 -66 27q-26 26 -26 65z " />
<glyph unicode="i" horiz-adv-x="409" d="M92 1184q0 47 33 80q32 32 80 32t80 -32t32 -80t-32 -80q-33 -33 -80 -33t-80 33t-33 80zM113 57v820q0 39 26 65q27 27 66 27q38 0 65 -27t27 -65v-820q0 -38 -27 -65t-65 -27q-39 0 -66 27q-26 26 -26 65z" />
<glyph unicode="j" horiz-adv-x="425" d="M-76 -352q0 38 27 65t65 27q47 0 80 33t33 80v1024q0 38 27 65t65 27q39 0 66 -27q26 -26 26 -65v-1024q0 -64 -23 -116q-24 -54 -64 -94t-94 -64q-52 -23 -116 -23q-39 0 -65 26q-27 27 -27 66zM109 1184q0 48 32 80t80 32t80 -32q33 -33 33 -80t-33 -80t-80 -33t-80 33 q-32 32 -32 80z" />
<glyph unicode="k" horiz-adv-x="778" d="M113 57v1229q0 40 26 66t66 26q39 0 65 -26q27 -27 27 -66v-672l289 324q28 30 64 31h5q36 0 62 -25q30 -25 31 -62v-5q0 -36 -25 -62l-236 -264l248 -449q12 -22 12 -45q0 -13 -4 -26q-11 -37 -45 -54q-22 -12 -45 -12q-12 0 -24 3q-38 9 -56 44l-215 394l-61 -68v-281 q0 -38 -27 -65t-65 -27q-39 0 -66 27q-26 26 -26 65z" />
<glyph unicode="l" horiz-adv-x="409" d="M106 199v1087q0 38 28 66q26 26 65 26t65 -26q27 -27 27 -66v-1087q0 -41 37 -62q33 -21 43 -56q3 -12 3 -23q0 -24 -14 -48q-18 -33 -55 -42q-12 -3 -24 -3q-23 0 -45 12q-60 35 -95 95q-35 61 -35 127z" />
<glyph unicode="m" horiz-adv-x="1212" d="M113 57v811q0 40 26 66q27 27 66 27h614q62 0 115 -24q55 -25 94 -64q42 -42 65 -94t23 -115v-607q0 -38 -27 -65t-65 -27q-39 0 -66 27q-26 26 -26 65v607q0 46 -33 79t-80 33h-112v-719q0 -37 -28 -65q-27 -27 -65 -27t-65 27t-27 65v719h-225v-719q0 -37 -28 -65 q-27 -27 -64 -27q-39 0 -66 27q-26 26 -26 65z" />
<glyph unicode="n" horiz-adv-x="802" d="M113 57v811q0 40 26 66q27 27 66 27h205q61 0 115 -24q56 -25 95 -64q38 -38 63 -94q24 -54 24 -115v-607q0 -37 -28 -65q-27 -27 -65 -27t-65 27t-27 65v607q0 46 -33 79t-79 33h-113v-719q0 -37 -28 -65q-27 -27 -64 -27q-39 0 -66 27q-26 26 -26 65z" />
<glyph unicode="o" horiz-adv-x="770" d="M88 262v410q0 61 24 115q26 58 63 95q38 38 94 63q54 24 116 24t116 -24q56 -25 94 -63q37 -37 63 -95q24 -54 24 -115v-410q0 -62 -24 -116q-25 -56 -63 -94t-94 -63q-54 -24 -116 -24t-116 24q-56 25 -94 63t-63 94q-24 54 -24 116zM272 262q0 -47 33 -80 q32 -32 80 -32t80 32q33 33 33 80v410q0 47 -33 80q-32 32 -80 32t-80 -32q-33 -33 -33 -80v-410z" />
<glyph unicode="p" horiz-adv-x="794" d="M113 -352v1220q0 40 26 66q27 27 66 27h205q61 0 115 -24q56 -25 95 -64q38 -38 63 -94q24 -54 24 -115v-394q0 -61 -24 -115q-26 -58 -63 -95t-95 -63q-54 -24 -115 -24h-113v-325q0 -39 -27 -66q-26 -26 -65 -26q-40 0 -66 26t-26 66zM297 158h113q47 0 79 32 q33 33 33 80v394q0 46 -33 79t-79 33h-113v-618z" />
<glyph unicode="q" horiz-adv-x="794" d="M88 270v394q0 61 24 115q25 56 63 94q40 40 94 64t116 24h205q38 0 65 -27t27 -66v-1220q0 -39 -27 -66q-26 -26 -65 -26q-40 0 -66 26t-26 66v325h-113q-62 0 -116 24q-56 25 -94 63q-37 37 -63 95q-24 54 -24 115zM272 270q0 -47 33 -80q32 -32 80 -32h113v618h-113 q-47 0 -80 -33t-33 -79v-394z" />
<glyph unicode="r" horiz-adv-x="612" d="M113 57v811q0 40 26 66q27 27 66 27h205q75 0 147 -39q35 -21 44 -57q3 -12 3 -24q0 -24 -12 -46q-21 -33 -56 -43q-13 -4 -25 -4q-24 0 -46 14q-27 14 -55 14h-113v-719q0 -38 -27 -65t-65 -27q-39 0 -66 27q-26 26 -26 65z" />
<glyph unicode="s" horiz-adv-x="673" d="M69 178q9 37 42 55q24 13 48 13q11 0 23 -3q38 -9 56 -42q22 -43 71 -49q9 -2 18 -2q35 0 64 26q34 27 34 69q0 6 -1 11q-5 53 -41 76l-193 133q-51 38 -81 91q-30 55 -35 118q-1 11 -1 22q0 52 20 100q23 56 71 101q48 41 106 59q41 12 81 13q21 0 42 -4q62 -11 113 -45 q50 -34 84 -91q12 -22 12 -45q0 -12 -3 -24q-9 -37 -44 -55q-23 -13 -47 -13q-11 0 -23 3q-37 9 -55 42q-23 39 -65 45q-9 2 -17 2q-32 0 -59 -24q-31 -26 -32 -65q0 -4 1 -9q4 -43 39 -70l190 -133q55 -41 85 -94q32 -56 36 -121q1 -11 1 -23q0 -54 -20 -102 q-24 -59 -73 -104q-47 -44 -108 -62q-40 -12 -81 -12q-23 0 -46 4q-66 11 -118 46q-51 35 -85 94q-12 22 -12 45q0 12 3 24z" />
<glyph unicode="t" horiz-adv-x="606" d="M23 868q0 40 26 66q27 27 66 27h71v325q0 39 27 66q26 26 66 26q39 0 65 -26q27 -27 27 -66v-325h112q39 0 66 -27q26 -26 26 -66q0 -39 -26 -65q-27 -27 -66 -27h-112v-514q0 -48 32 -80t80 -32q39 0 66 -27q26 -26 26 -66q0 -39 -26 -65q-27 -27 -66 -27q-61 0 -115 24 q-58 26 -95 63q-38 38 -63 94q-24 54 -24 116v514h-71q-39 0 -66 27q-26 26 -26 65z" />
<glyph unicode="u" horiz-adv-x="802" d="M96 270v607q0 38 27 65t65 27q39 0 66 -27t27 -65v-607q0 -48 32 -80t80 -32h113v719q0 39 26 65q27 27 66 27t66 -27q26 -26 26 -65v-811q0 -40 -26 -66q-27 -27 -66 -27h-205q-62 0 -116 24q-56 25 -94 63q-37 37 -63 95q-24 54 -24 115z" />
<glyph unicode="v" horiz-adv-x="757" d="M45 850q-4 14 -4 27q0 23 11 44q18 34 54 44q13 4 26 4q23 0 45 -12q34 -18 44 -54q22 -76 51 -172q7 -25 24.5 -81t26.5 -87q24 -80 56 -184q32 104 56 184q9 30 25.5 86t24.5 82q45 147 52 172q10 36 44 54q22 12 45 12q13 0 25 -4q38 -11 55 -44q11 -21 10 -44 q0 -13 -3 -27l-246 -819q-7 -28 -33 -47q-25 -19 -55 -19q-29 0 -54 19q-23 17 -34 47z" />
<glyph unicode="w" horiz-adv-x="1101" d="M51 854q-3 13 -3 25q0 23 12 45q19 32 57 43q12 3 23 3q24 0 46 -14q33 -21 43 -57q20 -82 37 -145q14 -57 36 -149t42 -169q7 25 14 53.5t15.5 63t13.5 52.5q8 32 21 84.5t16 64.5q17 63 37 145q7 29 33 50q25 20 55 20q32 0 57 -20q26 -21 33 -50q20 -82 37 -145 q14 -57 36 -149t42 -169q7 25 14 53.5t15.5 63t13.5 52.5q8 32 21 84.5t16 64.5q6 22 36 145q10 36 42 57q22 14 46 14q11 0 23 -3q36 -10 57 -43q14 -22 14 -47q0 -12 -3 -23l-205 -819q-7 -29 -33 -50q-25 -20 -57 -20q-31 0 -56 20q-24 20 -32 50q-20 82 -37 145l-37 148 q-36 141 -43 168q-23 -86 -42 -168q-17 -73 -36 -148q-17 -63 -37 -145q-7 -29 -33 -50q-25 -20 -57 -20q-30 0 -55 20q-26 21 -33 50z" />
<glyph unicode="x" horiz-adv-x="737" d="M51 31q-4 13 -4 26q0 23 12 45l205 373l-196 356q-12 24 -12 47q0 12 3 24q11 36 45 54q23 12 46 12l24 -3q37 -10 55 -43l140 -256l141 256q18 32 54 43q12 3 24 3q23 0 47 -12q35 -18 45 -54q4 -13 4 -26q0 -23 -12 -45l-197 -356l205 -373q12 -22 11 -45q0 -13 -3 -26 q-10 -37 -45 -54q-23 -12 -47 -12q-12 0 -24 3q-36 9 -54 44l-149 271l-148 -271q-18 -35 -55 -44q-12 -3 -24 -3q-24 0 -46 12q-34 17 -45 54z" />
<glyph unicode="y" horiz-adv-x="755" d="M10 -352q0 38 27 65t65 27q40 0 69 22t40 58l70 237l-238 793q-4 13 -4 26q0 22 12 45q17 33 55 44q12 4 24 4q22 0 45 -12q34 -18 46 -54l156 -524l158 524q10 36 45 54q22 12 45 12q12 0 24 -4q39 -11 56 -44q12 -23 12 -45q0 -13 -4 -26l-248 -819l-78 -264 q-29 -97 -106 -152q-81 -59 -179 -59q-39 0 -65 26q-27 27 -27 66z" />
<glyph unicode="z" horiz-adv-x="704" d="M55 66q0 22 8 40q49 97 136 265q6 12 25.5 50t30.5 60q12 23 33.5 65t23.5 46t22 43t30 58q30 60 42 83h-259q-38 0 -65 27t-27 65q0 39 27 66t65 27h410q50 0 78 -46q14 -22 14 -47q0 -20 -10 -43q-69 -137 -135 -264q-38 -70 -58 -110q-38 -76 -56 -111 q-9 -17 -26 -50.5t-25 -49.5q-7 -14 -21.5 -42t-20.5 -40h260q38 0 65 -27t27 -65q0 -39 -27 -66t-65 -27h-410q-52 0 -79 43q-13 26 -13 50z" />
<glyph unicode="{" horiz-adv-x="524" d="M0 672q0 40 29 69t69 29q29 0 47 18q19 19 19 48v409q0 59 20 103q21 47 57 83q34 34 83 56q44 20 102 20q42 0 70 -28t28 -70t-28 -70t-70 -28q-28 0 -47 -19t-19 -47v-409q0 -48 -15 -88q-16 -42 -42 -76q26 -34 42 -76q15 -40 15 -88v-451q0 -28 19 -47q18 -18 47 -18 q41 0 70 -29q28 -28 28 -70q0 -41 -28 -69q-29 -29 -70 -29q-56 0 -102 21q-49 22 -83 56q-36 36 -57 83q-20 44 -20 102v451q0 28 -19 47q-18 18 -47 18q-40 0 -69 29t-29 70z" />
<glyph unicode="|" horiz-adv-x="425" d="M125 -352v2048q0 40 29 69t69 29q41 0 70 -29t29 -69v-2048q0 -41 -29 -70t-70 -29q-40 0 -69 29t-29 70z" />
<glyph unicode="}" horiz-adv-x="524" d="M0 -106q0 40 29 69t69 29q26 0 46 18t20 47v451q0 95 57 164q-57 69 -57 164v409q0 29 -20 47q-21 19 -46 19q-41 0 -69 28q-29 29 -29 70t29 70q28 28 69 28q56 0 102 -20q50 -22 84 -56t56 -83q20 -44 20 -103v-409q0 -29 19 -48q18 -18 47 -18q41 0 70 -29 q28 -28 28 -69q0 -42 -28 -70q-29 -29 -70 -29q-29 0 -47 -18q-19 -19 -19 -47v-451q0 -58 -20 -102q-22 -49 -56 -83t-84 -56q-48 -21 -102 -21q-40 0 -69 29t-29 70z" />
<glyph unicode="~" d="M58 477q-7 37 14 70q34 48 81 79q48 32 103 42q118 18 215 -52l25 -18q32 -26 69 -16q42 6 60 39q23 34 60 41q38 8 71 -15q32 -24 39 -60q8 -39 -15 -69q-30 -47 -79 -79q-48 -31 -105 -42q-56 -11 -111 3q-53 13 -102 49l-25 18q-32 22 -69 16q-40 -6 -62 -39 q-23 -34 -59 -41q-37 -7 -70 15t-40 59z" />
<glyph unicode="&#xa1;" horiz-adv-x="409" d="M86 856q0 49 35 84t84 35t84 -35t35 -84t-35 -84t-84 -35t-84 35t-35 84zM106 -270v819q0 40 29 69t70 29q40 0 69 -29t29 -69v-819q0 -41 -29 -70t-69 -29q-41 0 -70 29t-29 70z" />
<glyph unicode="&#xa2;" d="M152 262v410q0 92 50 169q49 76 136 111l18 6v82q0 41 29 70t70 29q40 0 69 -29t29 -70v-82q67 -23 115 -71q28 -28 28 -70q0 -41 -28 -69q-29 -29 -70 -29t-70 29q-29 30 -73 30h-2q-21 0 -39 -8q-30 -12 -48 -39t-18 -59v-410q0 -32 18 -59t48 -39q18 -8 39 -8h2 q45 0 73 30q29 29 70 29t70 -29q28 -28 28 -69q0 -42 -28 -70q-50 -50 -115 -72v-81q0 -41 -29 -70t-69 -29q-41 0 -70 29t-29 70v81l-18 7q-87 35 -136 111q-50 77 -50 169z" />
<glyph unicode="&#xa3;" d="M41 672q0 40 29 69t69 29h66v270q0 106 62 186t163 107q100 27 195 -12q94 -39 145 -129q23 -35 11 -74t-46 -61q-34 -21 -73 -9q-40 12 -62 46q-17 31 -50 45q-34 15 -69 4t-57 -39q-23 -29 -23 -64v-270h148q40 0 69 -29t29 -69q0 -41 -29 -70t-69 -29h-148v-276 q0 -75 -26 -133h338q40 0 69 -29t29 -69q0 -41 -29 -70t-69 -29h-574q-35 0 -62 24q-28 25 -34 58q-6 37 11 66q19 31 52 43q45 16 72 54t27 85v276h-66q-40 0 -69 29t-29 70z" />
<glyph unicode="&#xa4;" d="M39 381q0 41 29 70l55 57q-41 77 -41 164t41 164l-55 55q-29 29 -29 70q0 40 29 69t69 29q41 0 70 -29l55 -55q77 41 164 41t164 -41l55 55q29 29 70 29q40 0 69 -29t29 -69q0 -41 -29 -70l-55 -55q41 -77 41 -164t-41 -164l55 -57q29 -29 29 -70q0 -39 -29 -68 q-28 -28 -69 -28q-42 0 -70 28l-55 56q-77 -41 -164 -41t-164 41l-55 -56q-28 -28 -70 -28q-41 0 -69 28q-29 29 -29 68zM279 672q0 -62 43 -105t104 -43t104 43t43 105q0 61 -43 104t-104 43t-104 -43t-43 -104z" />
<glyph unicode="&#xa5;" d="M46 1276q14 39 48 57q38 18 76 5q40 -14 57 -50l68 -135q29 -60 63 -129q35 -70 68 -133q25 52 67 133q30 58 64 129l68 135q17 36 57 50q39 13 74 -5q36 -17 50 -57q13 -38 -5 -76l-215 -430h94q41 0 70 -29q28 -28 28 -69q0 -42 -28 -70q-29 -29 -70 -29h-156v-131h156 q42 0 70 -28t28 -70t-28 -70t-70 -28h-156v-189q0 -41 -28 -69q-29 -29 -70 -29t-70 29q-28 28 -28 69v189h-140q-41 0 -69 28q-29 29 -29 70t29 70q28 28 69 28h140v131h-140q-40 0 -69 29t-29 70q0 40 29 69t69 29h78l-215 430q-18 38 -5 76z" />
<glyph unicode="&#xa6;" horiz-adv-x="425" d="M115 -352v819q0 42 28 70t70 28t70 -28t28 -70v-819q0 -42 -28 -70q-29 -29 -70 -29t-70 29q-28 28 -28 70zM115 877v819q0 41 28 69q29 29 70 29t70 -29q28 -28 28 -69v-819q0 -42 -28 -70q-29 -29 -70 -29t-70 29q-28 28 -28 70z" />
<glyph unicode="&#xa7;" d="M137 764q16 81 68 139q-44 62 -49 152q0 65 25 121t73 98q48 39 110 58q59 18 123 7q63 -11 113 -46q52 -36 84 -91q21 -35 9 -74t-46 -61q-35 -21 -74 -9q-38 12 -59 46q-16 24 -32 31q-22 9 -29 10q-10 4 -30 1q-18 -3 -40 -20t-26 -35q-5 -22 -5 -32q0 -3 1 -7.5 t3 -11t3 -11.5q4 -19 26 -36l229 -182q63 -50 91 -122q29 -72 12 -150q-16 -82 -68 -140q47 -70 47 -151q2 -68 -23 -123q-25 -56 -73 -98q-103 -86 -233 -64q-63 11 -113 46q-52 36 -84 91q-21 35 -9 74q12 40 46 62q35 21 74 9q38 -12 59 -46q16 -24 32 -31q22 -9 27 -10 q11 -4 32 -1q20 3 40 19q22 17 26 36q5 20 3 32q0 7 -5 29q-4 19 -26 36l-229 183q-66 52 -92 121q-27 73 -11 151zM330 729q-10 -51 30 -84l144 -113q13 15 20 41q10 51 -30 84l-144 113q-13 -15 -20 -41z" />
<glyph unicode="&#xa8;" horiz-adv-x="1024" d="M236 1184q0 48 32 80t80 32t80 -32q33 -33 33 -80t-33 -80t-80 -33t-80 33q-32 32 -32 80zM563 1184q0 47 33 80q32 32 80 32t80 -32t32 -80t-32 -80q-33 -33 -80 -33t-80 33t-33 80z" />
<glyph unicode="&#xa9;" horiz-adv-x="1470" d="M49 651q0 139 51 263t150 223q98 98 223 149q124 51 262 51q139 0 264 -51q127 -52 224 -149q98 -98 149 -223t51 -263q0 -139 -51 -263t-149 -222t-224 -151q-123 -52 -264 -52q-139 0 -262 52q-125 52 -223 151q-100 100 -150 222q-51 124 -51 263zM236 651 q0 -101 37 -191t110 -163t162 -110t190 -37q104 0 193 37t162 110q72 71 109 163q38 93 38 191q0 99 -38 192q-37 91 -109 163q-69 69 -162 108q-89 37 -193 37q-101 0 -190 -37q-93 -39 -162 -108q-73 -73 -110 -163t-37 -192zM479 508v287q0 88 52 156t139 91t166 -10 t122 -108q21 -35 11 -72t-45 -55q-33 -21 -70 -12q-35 8 -57 44q-11 24 -33 31q-23 8 -45 2q-53 -15 -53 -67v-287q0 -26 14 -43q16 -19 39 -25q22 -6 45 2q22 7 33 31q21 33 57 43q38 11 70 -10q35 -18 45 -55t-11 -72q-43 -76 -122 -109t-166 -10t-139 91t-52 157z" />
<glyph unicode="&#xaa;" horiz-adv-x="624" d="M82 815q0 47 18 89q17 40 51 74q33 33 73 50q44 19 89 19h56v55q0 19 -12 34t-29 19q-41 11 -62 -27q-18 -30 -54 -39q-37 -9 -67 7q-33 18 -42 54q-9 35 10 69q39 68 111 98q73 30 149 8q80 -21 125 -83q47 -64 47 -140v-430q0 -37 -26 -63q-25 -25 -62 -25h-144 q-47 0 -89 18q-40 17 -73 50q-34 34 -51 74q-18 42 -18 89zM258 815q0 -23 16 -39t39 -16h56v110h-56q-23 0 -39 -16t-16 -39z" />
<glyph unicode="&#xab;" horiz-adv-x="858" d="M78 549q-27 47 0 96l131 238q22 35 59 47q40 12 76 -8q49 -28 49 -86q0 -27 -12 -48l-41 -73q-4 -7 -15.5 -29t-18.5 -34q-18 -32 -30 -54q10 -21 32 -59q26 -46 38 -68q22 -37 43 -80q12 -23 12 -47q0 -58 -49 -86q-36 -20 -76 -8q-37 12 -59 47zM446 549q-27 47 0 96 l132 238q22 35 59 47q40 12 76 -8q49 -28 49 -86q0 -27 -12 -48l-41 -73q-4 -7 -15.5 -29t-18.5 -34q-18 -32 -30 -54q10 -21 32 -59q26 -46 38 -68q22 -37 43 -80q12 -23 12 -47q0 -58 -49 -86q-36 -20 -76 -8q-37 12 -59 47z" />
<glyph unicode="&#xac;" d="M82 590q0 40 29 69t69 29h492q40 0 69 -29t29 -69v-246q0 -41 -29 -70q-28 -28 -69 -28q-42 0 -70 28q-29 29 -29 70v148h-393q-41 0 -69 28q-29 29 -29 70z" />
<glyph unicode="&#xad;" d="M82 590q0 40 29 69t69 29h492q40 0 69 -29t29 -69q0 -41 -29 -70q-28 -28 -69 -28h-492q-41 0 -69 28q-29 29 -29 70z" />
<glyph unicode="&#xae;" horiz-adv-x="1470" d="M49 651q0 139 51 263t150 223q98 98 223 149q124 51 262 51q139 0 264 -51q127 -52 224 -149q98 -98 149 -223t51 -263q0 -139 -51 -263t-149 -222t-224 -151q-123 -52 -264 -52q-139 0 -262 52q-125 52 -223 151q-100 100 -150 222q-51 124 -51 263zM236 651 q0 -101 37 -191t110 -163t162 -110t190 -37q104 0 193 37t162 110q72 71 109 163q38 93 38 191q0 99 -38 192q-37 91 -109 163q-69 69 -162 108q-89 37 -193 37q-101 0 -190 -37q-93 -39 -162 -108q-73 -73 -110 -163t-37 -192zM500 344v606q0 40 26 66t66 26h164 q56 0 100 -20q49 -22 82 -55q34 -34 55 -81t21 -100q0 -65 -32 -123q-31 -57 -85 -92l104 -180q19 -36 10 -72q-8 -35 -44 -57q-35 -18 -72 -8t-55 43l-133 231h-21v-184q0 -39 -27 -66q-28 -28 -67 -28q-38 0 -66 28q-26 26 -26 66zM686 715h70q29 0 50 21t21 50t-21 50 q-20 20 -50 20h-70v-141z" />
<glyph unicode="&#xaf;" horiz-adv-x="1024" d="M-98 1532q0 42 28 70t70 28h1024q42 0 70 -28t28 -70t-28 -70t-70 -28h-1024q-42 0 -70 28t-28 70z" />
<glyph unicode="&#xb0;" horiz-adv-x="641" d="M49 1061q0 53 22 105q21 50 58 87q39 39 86 59q50 21 107 21q56 0 105 -21t87 -59q37 -37 58 -87q22 -52 22 -105q0 -55 -22 -107q-21 -49 -58 -86t-87 -58q-52 -22 -105 -22q-55 0 -107 22q-49 21 -86 58t-58 86q-22 52 -22 107zM225 1061q0 -41 28 -69q27 -27 69 -27 q41 0 68 27q28 28 28 69q0 40 -28 68t-68 28q-41 0 -69 -28t-28 -68z" />
<glyph unicode="&#xb1;" d="M82 66q0 40 29 69t69 29h492q40 0 69 -29t29 -69q0 -41 -29 -70t-69 -29h-492q-40 0 -69 29t-29 70zM82 590q0 40 29 69t69 29h148v148q0 41 28 69q29 29 70 29t70 -29q28 -28 28 -69v-148h148q40 0 69 -29t29 -69q0 -41 -29 -70q-28 -28 -69 -28h-148v-148 q0 -42 -28 -70t-70 -28t-70 28t-28 70v148h-148q-41 0 -69 28q-29 29 -29 70z" />
<glyph unicode="&#xb2;" horiz-adv-x="608" d="M82 641q0 25 14 45l246 387q12 23 6 41q-6 23 -24 35t-43 6q-26 -6 -33 -27q-18 -30 -54 -39q-37 -9 -67 7q-33 18 -42 54t9 69q46 84 144 108q96 22 178 -27q81 -50 104 -145q23 -96 -28 -178l-16 -23q-31 -47 -39 -59q-24 -37 -51 -81l-54 -87h106q37 0 63 -26 q25 -25 25 -62t-25 -62q-26 -26 -63 -26h-268q-51 0 -78 45q-10 21 -10 45z" />
<glyph unicode="&#xb3;" horiz-adv-x="606" d="M83 725q9 35 42 53q30 18 66 9q37 -9 55 -39q21 -37 61 -27q19 5 30 19t11 34v41q0 23 -16 39t-39 16q-37 0 -63 26q-25 25 -25 62q0 38 25 63q26 26 63 26q31 0 47 28q16 27 0 53q-17 29 -47 29t-47 -29q-18 -30 -55 -39t-66 7q-33 18 -42 54t9 69q31 54 85 84t116 30 t116 -30t85 -84q30 -53 30 -117t-30 -117q0 -1 -4 -5.5t-6 -7.5q-6 -10 -9 -14q49 -61 49 -143v-41q0 -76 -47 -140q-45 -62 -125 -83q-76 -22 -148 8q-73 30 -112 98q-18 33 -9 68z" />
<glyph unicode="&#xb4;" horiz-adv-x="1024" d="M323 1107q2 37 29 60l205 185q26 24 63 22q36 -2 60 -28q24 -29 23 -65q-2 -37 -29 -60l-205 -185q-26 -23 -63 -22q-38 2 -60 28q-24 29 -23 65z" />
<glyph unicode="&#xb5;" horiz-adv-x="819" d="M113 -352v1229q0 39 26 65q27 27 66 27q38 0 65 -27t27 -65v-615q0 -47 33 -80q32 -32 80 -32q47 0 79 32q33 33 33 80v615q0 38 27 65t65 27q39 0 66 -27t27 -65v-820q0 -38 -27 -65t-66 -27q-42 0 -69 33q-66 -33 -135 -33q-56 0 -113 23v-340q0 -39 -27 -66 q-26 -26 -65 -26q-40 0 -66 26t-26 66z" />
<glyph unicode="&#xb6;" horiz-adv-x="983" d="M39 991q0 69 27 131q28 64 72 108q46 46 108 73q59 26 131 26h512q40 0 66 -26q28 -28 28 -66q0 -39 -28 -67q-27 -27 -66 -27h-49v-1249q0 -39 -28 -67t-67 -28q-37 0 -65 28q-27 27 -27 67v1249h-100v-1249q0 -39 -28 -67t-66 -28t-66 28q-26 26 -26 67v759 q-67 1 -128 29q-63 29 -105 73q-44 47 -69 107q-26 63 -26 129zM225 991q0 -59 41 -103q40 -43 101 -48v303q-61 -5 -101 -48q-41 -44 -41 -104z" />
<glyph unicode="&#xb7;" horiz-adv-x="393" d="M78 795q0 49 35 84q34 34 84 34t84 -34t34 -84t-34 -84q-35 -35 -84 -35t-84 35t-35 84z" />
<glyph unicode="&#xb8;" horiz-adv-x="1024" d="M339 -185q12 39 46 60q33 21 33 57v125q0 42 28 70q29 29 70 29t70 -29q28 -28 28 -70v-125q0 -73 -34 -132q-34 -60 -97 -95q-34 -21 -73 -10t-60 45q-23 35 -11 75z" />
<glyph unicode="&#xb9;" horiz-adv-x="479" d="M25 1063q0 37 26 63l180 183q22 19 47 23q27 5 52 -5q24 -11 39 -33q14 -21 14 -49v-614q0 -37 -26 -63q-25 -25 -62 -25q-38 0 -63 25t-25 63v401l-9 -9l-10 -9l-12 -13q-26 -26 -63 -26q-39 0 -62 26q-26 23 -26 62z" />
<glyph unicode="&#xba;" horiz-adv-x="624" d="M82 815v287q0 47 18 89q17 40 51 74q33 33 73 50q42 18 89 18t89 -18t74 -50t50 -74q19 -44 19 -89v-287q0 -45 -19 -89q-18 -42 -50 -74t-74 -50t-89 -18t-89 18q-40 17 -73 50q-34 34 -51 74q-18 42 -18 89zM258 815q0 -23 16 -39t39 -16t39 16q17 17 17 39v287 q0 22 -17 39q-16 16 -39 16t-39 -16t-16 -39v-287z" />
<glyph unicode="&#xbb;" horiz-adv-x="858" d="M88 344q0 24 12 47q19 36 45 80q35 64 37 68q20 38 33 59q-8 12 -32 54q-7 11 -17.5 32.5t-15.5 30.5l-41 73q-13 23 -13 48q0 58 51 86q33 20 75 8q41 -12 59 -47l131 -238q27 -49 0 -96l-140 -252q-18 -35 -58 -47q-42 -12 -75 8q-51 28 -51 86zM457 344q0 24 12 47 q19 36 45 80q35 64 37 68q20 38 33 59q-8 12 -32 54q-7 12 -18.5 34t-15.5 29l-41 73q-12 21 -12 48q0 58 51 86q33 20 75 8q40 -12 58 -47l131 -238q27 -49 0 -96l-139 -252q-18 -35 -58 -47q-42 -12 -75 8q-51 28 -51 86z" />
<glyph unicode="&#xbc;" horiz-adv-x="1224" d="M25 1063q0 37 26 63l180 183q22 19 47 23q27 5 52 -5q24 -11 39 -33q14 -21 14 -49v-614q0 -37 -26 -63q-25 -25 -62 -25q-38 0 -63 25t-25 63v401l-9 -9l-10 -9l-12 -13q-26 -26 -63 -26q-39 0 -62 26q-26 23 -26 62zM202 25q-13 38 5 75l573 1188q16 36 56 50 q38 13 75 -5q38 -17 51 -55q13 -37 -6 -76l-573 -1188q-16 -37 -55 -50q-38 -13 -76 5q-36 16 -50 56zM645 254l182 451q15 34 47 49q33 15 68 0q26 -10 41 -33q14 -21 14 -49q0 -18 -6 -33q-5 -14 -21.5 -54.5t-25.5 -62.5q-17 -39 -43 -106q-32 -81 -43 -107h45v35 q0 37 26 63q25 25 62 25q38 0 63 -25t25 -63v-35h19q37 0 62 -25q26 -26 26 -63q0 -36 -26 -62t-62 -26h-19v-76q0 -37 -25 -62q-26 -26 -63 -26q-36 0 -62 26t-26 62v76h-176q-47 0 -74 39q-27 40 -8 82z" />
<glyph unicode="&#xbd;" horiz-adv-x="1220" d="M25 1063q0 37 26 63l180 183q22 19 47 23q27 5 52 -5q24 -11 39 -33q14 -21 14 -49v-614q0 -37 -26 -63q-25 -25 -62 -25q-38 0 -63 25t-25 63v401l-9 -9l-10 -9l-12 -13q-26 -26 -63 -26q-39 0 -62 26q-26 23 -26 62zM202 25q-13 38 5 75l573 1188q16 36 56 50 q38 13 75 -5q38 -17 51 -55q13 -37 -6 -76l-573 -1188q-16 -37 -55 -50q-38 -13 -76 5q-36 16 -50 56zM737 68q0 24 15 45l245 387q13 24 7 41q-6 21 -25 34t-43 7q-26 -6 -33 -27q-19 -31 -54 -40q-37 -9 -67 7q-33 18 -42 55q-9 34 10 68q47 85 143 109q96 22 178 -27 q83 -51 105 -145q22 -96 -29 -179l-15 -22q-31 -46 -39 -59q-2 -3 -21.5 -33.5t-30.5 -47.5l-54 -87h107q36 0 62 -26t26 -62q0 -37 -26 -63t-62 -26h-269q-49 0 -77 46q-11 24 -11 45z" />
<glyph unicode="&#xbe;" horiz-adv-x="1286" d="M44 725q9 35 42 53q30 18 67 9q36 -9 54 -39q21 -37 61 -27q18 5 30 19q11 14 11 34v41q0 23 -16 39t-39 16q-37 0 -63 26q-25 25 -25 62q0 38 25 63q26 26 63 26q31 0 47 28q16 27 0 53q-17 29 -47 29t-47 -29q-18 -30 -54 -39q-37 -9 -67 7q-33 18 -42 54t9 69 q31 54 85 84t116 30t116 -30t85 -84q30 -53 30 -117t-30 -117q0 -1 -4 -5.5t-6 -7.5q-6 -10 -9 -14q49 -61 49 -143v-41q0 -76 -47 -140q-45 -62 -125 -83q-76 -22 -148 8q-73 30 -112 98q-18 33 -9 68zM263 25q-13 38 5 75l574 1188q16 37 55 50q38 13 76 -5q37 -16 50 -55 q13 -38 -5 -76l-574 -1188q-16 -37 -55 -50q-38 -13 -76 5q-36 16 -50 56zM707 254l182 451q15 34 47 49q33 15 68 0q24 -9 40 -33q15 -23 15 -49q0 -18 -6 -33q-5 -14 -21.5 -54.5t-25.5 -62.5q-17 -39 -43 -106q-32 -81 -43 -107h45v35q0 38 25 63t63 25q37 0 62 -25 q26 -26 26 -63v-35h18q38 0 63 -25t25 -63q0 -37 -25 -62q-26 -26 -63 -26h-18v-76q0 -36 -26 -62t-62 -26q-37 0 -63 26q-25 25 -25 62v76h-177q-46 0 -73 39q-27 40 -8 82z" />
<glyph unicode="&#xbf;" horiz-adv-x="731" d="M51 -90q-6 73 20 143t79 123l104 105q41 46 41 104v164q0 40 29 69t69 29q41 0 70 -29t29 -69v-164q0 -140 -99 -242l-104 -104q-47 -47 -43 -115q6 -68 59 -106q52 -41 117 -29q62 12 100 72q21 34 60 46t73 -9q34 -22 46 -62q12 -39 -9 -74q-37 -65 -97 -107 q-59 -41 -134 -58q-71 -15 -145 2q-73 17 -132 61q-58 45 -94 112q-34 64 -39 138zM274 856q0 49 35 84t84 35t84 -35t35 -84t-35 -84t-84 -35t-84 35t-35 84z" />
<glyph unicode="&#xc0;" horiz-adv-x="884" d="M20 84l328 1188q7 31 34 52q25 19 60 19q36 0 61 -19q27 -21 34 -52l327 -1188q11 -41 -9 -76t-58 -45q-41 -11 -76 9q-34 19 -45 59q-14 44 -17 59q-11 44 -19 69q-12 41 -24 87h-348q-7 -23 -24 -87q-4 -15 -10.5 -38t-8.5 -31q-6 -26 -16 -59q-11 -40 -45 -59 q-35 -20 -76 -9q-38 10 -58 45q-20 36 -10 76zM246 1691q-2 39 24 66q27 29 65 32q37 3 66 -24l205 -184q29 -28 32 -64q3 -38 -24 -67q-28 -29 -65 -32q-39 -3 -68 24l-205 184q-28 27 -30 65zM324 442h237q-7 27 -27.5 102.5t-31.5 117.5q-2 7 -60 212q-41 -146 -59 -212 q-11 -42 -31.5 -117.5t-27.5 -102.5z" />
<glyph unicode="&#xc1;" horiz-adv-x="884" d="M20 84l328 1188q7 31 34 52q25 19 60 19q36 0 61 -19q27 -21 34 -52l327 -1188q11 -41 -9 -76t-58 -45q-41 -11 -76 9q-34 19 -45 59q-14 44 -17 59q-11 44 -19 69q-12 41 -24 87h-348q-7 -23 -24 -87q-4 -15 -10.5 -38t-8.5 -31q-6 -26 -16 -59q-11 -40 -45 -59 q-35 -20 -76 -9q-38 10 -58 45q-20 36 -10 76zM247 1517q3 36 32 64l204 184q29 27 67 24q36 -3 64 -32q27 -29 24 -66q-3 -38 -32 -65l-205 -184q-29 -27 -66 -24q-38 3 -65 32q-26 28 -23 67zM324 442h237q-7 27 -27.5 102.5t-31.5 117.5q-2 7 -60 212q-41 -146 -59 -212 q-11 -42 -31.5 -117.5t-27.5 -102.5z" />
<glyph unicode="&#xc2;" horiz-adv-x="884" d="M20 84l328 1188q7 31 34 52q25 19 60 19q36 0 61 -19q27 -21 34 -52l327 -1188q11 -41 -9 -76t-58 -45q-41 -11 -76 9q-34 19 -45 59q-14 44 -17 59q-11 44 -19 69q-12 41 -24 87h-348q-7 -23 -24 -87q-4 -15 -10.5 -38t-8.5 -31q-6 -26 -16 -59q-11 -40 -45 -59 q-35 -20 -76 -9q-38 10 -58 45q-20 36 -10 76zM171 1522q4 36 34 59l184 143q24 19 53 19q31 0 56 -19l184 -143q29 -23 33 -59t-19 -66q-23 -29 -58 -33t-65 19q-15 11 -45 35q-9 7 -43 32q-15 11 -43 33q-28 -22 -43 -33q-30 -22 -41 -32q-30 -24 -45 -35q-29 -23 -65 -19 q-38 5 -60 33q-22 27 -17 66zM324 442h237q-7 27 -27.5 102.5t-31.5 117.5q-2 7 -60 212q-41 -146 -59 -212q-11 -42 -31.5 -117.5t-27.5 -102.5z" />
<glyph unicode="&#xc3;" horiz-adv-x="884" d="M20 84l328 1188q7 31 34 52q25 19 60 19q36 0 61 -19q27 -21 34 -52l327 -1188q11 -41 -9 -76t-58 -45q-41 -11 -76 9q-34 19 -45 59q-14 44 -17 59q-11 44 -19 69q-12 41 -24 87h-348q-7 -23 -24 -87q-4 -15 -10.5 -38t-8.5 -31q-6 -26 -16 -59q-11 -40 -45 -59 q-35 -20 -76 -9q-38 10 -58 45q-20 36 -10 76zM172 1551q-8 38 12 67q50 75 142 92q89 16 161 -39l17 -12q7 -5 15 -7q5 -1 11 -1q1 0 3 1t4.5 2t4.5 1q6 1 11 12q22 31 56 38q37 8 67 -13q32 -22 39 -57q7 -36 -15 -66q-23 -38 -59 -61q-37 -24 -80 -31q-90 -17 -164 39 l-16 12q-12 10 -27 6q-11 0 -22 -14q-21 -31 -57 -38q-37 -8 -66 13q-30 22 -37 56zM324 442h237q-7 27 -27.5 102.5t-31.5 117.5q-2 7 -60 212q-41 -146 -59 -212q-11 -42 -31.5 -117.5t-27.5 -102.5z" />
<glyph unicode="&#xc4;" horiz-adv-x="884" d="M20 84l328 1188q7 31 34 52q25 19 60 19q36 0 61 -19q27 -21 34 -52l327 -1188q11 -41 -9 -76t-58 -45q-41 -11 -76 9q-34 19 -45 59q-14 44 -17 59q-11 44 -19 69q-12 41 -24 87h-348q-7 -23 -24 -87q-4 -15 -10.5 -38t-8.5 -31q-6 -26 -16 -59q-11 -40 -45 -59 q-35 -20 -76 -9q-38 10 -58 45q-20 36 -10 76zM160 1593q0 49 35 84t84 35q48 0 83 -35t35 -84t-35 -84q-34 -34 -83 -34q-50 0 -84 34q-35 35 -35 84zM324 442h237q-7 27 -27.5 102.5t-31.5 117.5q-2 7 -60 212q-41 -146 -59 -212q-11 -42 -31.5 -117.5t-27.5 -102.5z M487 1593q0 49 35 84t84 35t84 -35t35 -84t-35 -84q-34 -34 -84 -34t-84 34q-35 35 -35 84z" />
<glyph unicode="&#xc5;" horiz-adv-x="884" d="M20 84l328 1188q7 31 34 52q25 19 60 19q36 0 61 -19q27 -21 34 -52l327 -1188q11 -41 -9 -76t-58 -45q-41 -11 -76 9q-34 19 -45 59q-14 44 -17 59q-11 44 -19 69q-12 41 -24 87h-348q-7 -23 -24 -87q-4 -15 -10.5 -38t-8.5 -31q-6 -26 -16 -59q-11 -40 -45 -59 q-35 -20 -76 -9q-38 10 -58 45q-20 36 -10 76zM242 1614q0 84 58 142q59 59 142 59q86 0 145 -59q58 -58 58 -142q0 -40 -15 -78q-15 -37 -43 -65q-28 -27 -65 -44q-36 -16 -80 -16q-41 0 -77 16q-37 17 -65 44q-28 28 -43 65q-15 38 -15 78zM324 442h237q-7 27 -27.5 102.5 t-31.5 117.5q-2 7 -60 212q-41 -146 -59 -212q-11 -42 -31.5 -117.5t-27.5 -102.5zM399 1614q0 -18 14 -32q13 -13 29 -13q19 0 32 13t13 32t-13 31t-32 12q-16 0 -29 -12q-14 -12 -14 -31z" />
<glyph unicode="&#xc6;" horiz-adv-x="1263" d="M8 22q-15 37 2 76l529 1180q11 28 35 42q26 15 55 15h493q42 0 70 -28q29 -29 29 -70t-29 -70q-28 -28 -70 -28h-311v-369h270q41 0 70 -29t29 -69q0 -41 -29 -70t-70 -29h-270v-409h311q41 0 70 -29t29 -69q0 -41 -29 -70t-70 -29h-409q-41 0 -70 29t-29 70v180h-323 q-40 -91 -41 -93q-21 -49 -33 -73q-6 -14 -16 -35.5t-13 -28.5q-16 -36 -54 -51q-37 -15 -75 2q-35 15 -51 55zM379 442h235v527q-35 -79 -110 -248q-84 -188 -125 -279z" />
<glyph unicode="&#xc7;" horiz-adv-x="806" d="M82 303v696q0 58 18 112t53 98q37 47 80 76q45 30 103 46q52 14 113 11q57 -3 108 -24t94 -58t72 -89l20 -34q22 -36 10 -75q-12 -40 -46 -61q-35 -21 -74 -9t-60 46l-20 35q-24 43 -72 63t-94 5q-49 -12 -79 -52q-29 -39 -29 -90v-696q0 -52 29 -90t79 -53q48 -12 94 7 q49 21 72 62l20 35q21 34 60 46t74 -9q34 -21 46 -60t-10 -75l-20 -35q-32 -57 -86 -99q-52 -41 -113 -59v-45q0 -72 -36 -132q-37 -61 -97 -95q-34 -21 -74 -10q-38 10 -59 45q-21 34 -9 75q12 39 46 60q14 10 23 25q10 17 10 32v45q-111 33 -178 124q-68 92 -68 206z" />
<glyph unicode="&#xc8;" horiz-adv-x="753" d="M106 66v1171q0 41 29 70q28 28 70 28h409q42 0 70 -28q29 -29 29 -70t-29 -70q-28 -28 -70 -28h-311v-369h270q41 0 70 -29t29 -69q0 -41 -29 -70t-70 -29h-270v-409h311q41 0 70 -29t29 -69q0 -41 -29 -70t-70 -29h-409q-41 0 -70 29t-29 70zM213 1691q-2 38 25 66 q28 29 64 32q38 3 67 -24l204 -184q30 -28 31 -64q2 -40 -24 -67q-24 -29 -64 -32q-39 -3 -67 24l-205 184q-30 28 -31 65z" />
<glyph unicode="&#xc9;" horiz-adv-x="753" d="M106 66v1171q0 41 29 70q28 28 70 28h409q42 0 70 -28q29 -29 29 -70t-29 -70q-28 -28 -70 -28h-311v-369h270q41 0 70 -29t29 -69q0 -41 -29 -70t-70 -29h-270v-409h311q41 0 70 -29t29 -69q0 -41 -29 -70t-70 -29h-409q-41 0 -70 29t-29 70zM213 1517q1 36 31 64 l205 184q28 27 67 24q40 -3 64 -32q26 -27 24 -66q-1 -37 -31 -65l-204 -184q-29 -27 -67 -24q-36 3 -64 32q-27 28 -25 67z" />
<glyph unicode="&#xca;" horiz-adv-x="753" d="M106 66v1171q0 41 29 70q28 28 70 28h409q42 0 70 -28q29 -29 29 -70t-29 -70q-28 -28 -70 -28h-311v-369h270q41 0 70 -29t29 -69q0 -41 -29 -70t-70 -29h-270v-409h311q41 0 70 -29t29 -69q0 -41 -29 -70t-70 -29h-409q-41 0 -70 29t-29 70zM137 1522q4 36 33 59 l184 143q25 19 56 19q29 0 53 -19l184 -143q30 -23 34 -59q5 -39 -17 -66q-22 -28 -60 -33q-36 -4 -65 19q-15 11 -45 35q-7 5 -21 15.5t-21 16.5l-42 33q-30 -22 -44 -33q-7 -6 -21 -16.5t-21 -15.5q-30 -24 -45 -35q-30 -23 -65 -19t-58 33q-23 30 -19 66z" />
<glyph unicode="&#xcb;" horiz-adv-x="753" d="M106 66v1171q0 41 29 70q28 28 70 28h409q42 0 70 -28q29 -29 29 -70t-29 -70q-28 -28 -70 -28h-311v-369h270q41 0 70 -29t29 -69q0 -41 -29 -70t-70 -29h-270v-409h311q41 0 70 -29t29 -69q0 -41 -29 -70t-70 -29h-409q-41 0 -70 29t-29 70zM127 1593q0 49 35 84t84 35 t84 -35t35 -84t-35 -84q-34 -34 -84 -34t-84 34q-35 35 -35 84zM455 1593q0 50 34 84q35 35 84 35t84 -35t35 -84t-35 -84q-34 -34 -84 -34t-84 34t-34 84z" />
<glyph unicode="&#xcc;" horiz-adv-x="409" d="M9 1691q-3 37 24 66q28 29 64 32q38 3 67 -24l205 -184q28 -27 31 -64q3 -39 -23 -67q-27 -29 -65 -32t-66 24l-205 184q-29 27 -32 65zM106 57v1188q0 41 29 70q28 28 70 28q41 0 69 -28q29 -29 29 -70v-1188q0 -40 -29 -69t-69 -29q-41 0 -70 29t-29 69z" />
<glyph unicode="&#xcd;" horiz-adv-x="409" d="M9 1517q3 36 32 64l205 184q28 27 66 24t65 -32q26 -28 23 -66q-3 -39 -31 -65l-205 -184q-29 -27 -67 -24q-36 3 -64 32q-27 29 -24 67zM106 57v1188q0 41 29 70q28 28 70 28q41 0 69 -28q29 -29 29 -70v-1188q0 -40 -29 -69t-69 -29q-41 0 -70 29t-29 69z" />
<glyph unicode="&#xce;" horiz-adv-x="409" d="M-68 1522q4 36 33 59l185 143q25 19 55 19t55 -19l184 -143q29 -23 33 -59q5 -38 -18 -66t-60 -33q-36 -4 -65 19q-15 11 -45 35q-7 5 -21 15.5t-21 16.5l-42 33q-28 -22 -43 -33q-30 -22 -41 -32q-30 -24 -45 -35q-30 -23 -66 -19t-59 33q-23 30 -19 66zM106 57v1188 q0 41 29 70q28 28 70 28q41 0 69 -28q29 -29 29 -70v-1188q0 -40 -29 -69t-69 -29q-41 0 -70 29t-29 69z" />
<glyph unicode="&#xcf;" horiz-adv-x="409" d="M-78 1593q0 49 35 84t84 35t84 -35t35 -84t-35 -84q-34 -34 -84 -34t-84 34q-35 35 -35 84zM106 57v1188q0 41 29 70q28 28 70 28q41 0 69 -28q29 -29 29 -70v-1188q0 -40 -29 -69t-69 -29q-41 0 -70 29t-29 69zM250 1593q0 49 35 84t84 35t84 -35q34 -34 34 -84t-34 -84 t-84 -34t-84 34q-35 35 -35 84z" />
<glyph unicode="&#xd0;" horiz-adv-x="903" d="M-25 672q0 38 27 65t66 27h65v473q0 41 29 70q28 28 69 28h246q73 0 134 -26q63 -27 110 -74t74 -110q26 -61 26 -134v-680q0 -73 -26 -134t-74 -109q-47 -47 -110 -74t-134 -27h-246q-40 0 -69 29t-29 70v512h-65q-39 0 -66 27t-27 67zM330 164h147q62 0 105 43t43 104 v680q0 62 -43 105t-105 43h-147v-375h106q41 0 68 -27q26 -26 26 -65q0 -41 -26 -67q-27 -27 -68 -27h-106v-414z" />
<glyph unicode="&#xd1;" horiz-adv-x="983" d="M106 57v1188q0 34 22 62q21 26 54 34q36 8 66 -7q29 -15 45 -46q72 -152 129 -268q86 -176 125 -258q90 -189 133 -275v758q0 41 29 70q28 28 69 28q42 0 70 -28q29 -29 29 -70v-1188q0 -34 -21 -61q-22 -28 -55 -35q-36 -8 -65 7q-29 14 -46 46q-82 173 -129 269 q-57 117 -126 258q-76 155 -132 274v-758q0 -40 -29 -69t-69 -29q-41 0 -70 29t-29 69zM220 1551q-8 37 13 67q50 75 142 92q89 16 162 -39l16 -12q7 -5 15 -7q5 -1 12 -1l4 1q4 2 7 3q6 1 11 12q22 31 56 38q37 8 67 -13q31 -21 38 -57q8 -37 -13 -66q-22 -37 -60 -61 q-37 -24 -80 -31q-90 -17 -164 39l-16 12q-12 10 -27 6q-11 0 -22 -14q-22 -31 -56 -38q-37 -8 -67 13q-31 22 -38 56z" />
<glyph unicode="&#xd2;" d="M82 303v696q0 70 28 135q27 63 73 109q48 48 109 74t134 26t134 -26q63 -27 110 -74q46 -46 73 -109t27 -135v-696q0 -71 -27 -134q-28 -65 -73 -110t-110 -73q-63 -27 -134 -27t-134 27t-109 73q-45 45 -73 110t-28 134zM231 1691q-1 37 23 66q28 29 65 32q39 3 68 -24 l205 -184q30 -28 31 -64q2 -39 -25 -67q-28 -29 -64 -32q-38 -3 -67 24l-205 184q-30 28 -31 65zM279 303q0 -60 44 -104q43 -43 103 -43q61 0 104 43t43 104v696q0 62 -43 105t-104 43q-60 0 -103 -43q-44 -44 -44 -105v-696z" />
<glyph unicode="&#xd3;" d="M82 303v696q0 70 28 135q27 63 73 109q48 48 109 74t134 26t134 -26q63 -27 110 -74q46 -46 73 -109t27 -135v-696q0 -71 -27 -134q-28 -65 -73 -110t-110 -73q-63 -27 -134 -27t-134 27t-109 73q-45 45 -73 110t-28 134zM231 1517q1 36 31 64l205 184q29 27 67 24 q36 -3 64 -32q27 -28 25 -66q-1 -37 -31 -65l-205 -184q-29 -27 -68 -24t-63 32q-27 28 -25 67zM279 303q0 -60 44 -104q43 -43 103 -43q61 0 104 43t43 104v696q0 62 -43 105t-104 43q-60 0 -103 -43q-44 -44 -44 -105v-696z" />
<glyph unicode="&#xd4;" d="M82 303v696q0 70 28 135q27 63 73 109q48 48 109 74t134 26t134 -26q63 -27 110 -74q46 -46 73 -109t27 -135v-696q0 -71 -27 -134q-28 -65 -73 -110t-110 -73q-63 -27 -134 -27t-134 27t-109 73q-45 45 -73 110t-28 134zM155 1522q4 36 33 59l185 143q25 19 53 19 q30 0 55 -19l185 -143q29 -23 33 -59q5 -39 -17 -66q-23 -29 -59 -33t-66 19q-15 11 -45 35q-9 7 -43 32q-15 11 -43 33q-28 -22 -43 -33q-30 -22 -41 -32q-30 -24 -45 -35q-30 -23 -66 -19t-59 33q-22 27 -17 66zM279 303q0 -60 44 -104q43 -43 103 -43q61 0 104 43t43 104 v696q0 62 -43 105t-104 43q-60 0 -103 -43q-44 -44 -44 -105v-696z" />
<glyph unicode="&#xd5;" d="M82 303v696q0 72 27 135t73 109q47 47 110 74q61 26 134 26q72 0 133 -26q63 -27 110 -74q46 -46 73 -109q28 -65 28 -135v-696q0 -69 -28 -134t-73 -110t-110 -73q-63 -27 -133 -27q-71 0 -134 27q-65 28 -110 73t-73 110q-27 63 -27 134zM154 1551q-8 38 14 67 q22 36 59 60q39 25 80 32q90 17 164 -39l16 -12q6 -5 15 -7q4 -1 10 -1l4 1q4 2 7 3q8 2 14 12q22 31 56 38q37 8 66 -13q30 -22 37 -57q8 -38 -12 -66q-50 -75 -141 -92q-90 -17 -162 39l-16 12q-6 5 -16 7q-5 1 -11 -1q-16 0 -23 -14q-23 -31 -57 -38q-35 -8 -65 13 q-32 22 -39 56zM279 303q0 -61 43 -104t104 -43q60 0 103 43q44 44 44 104v696q0 61 -44 105q-43 43 -103 43q-61 0 -104 -43t-43 -105v-696z" />
<glyph unicode="&#xd6;" d="M82 303v696q0 72 27 135t73 109q47 47 110 74q61 26 134 26q72 0 133 -26q63 -27 110 -74q46 -46 73 -109q28 -65 28 -135v-696q0 -69 -28 -134t-73 -110t-110 -73q-63 -27 -133 -27q-71 0 -134 27q-65 28 -110 73t-73 110q-27 63 -27 134zM143 1593q0 49 35 84t84 35 t84 -35t35 -84t-35 -84q-34 -34 -84 -34t-84 34q-35 35 -35 84zM279 303q0 -61 43 -104t104 -43q60 0 103 43q44 44 44 104v696q0 61 -44 105q-43 43 -103 43q-61 0 -104 -43t-43 -105v-696zM471 1593q0 49 35 84t84 35t84 -35t35 -84t-35 -84q-34 -34 -84 -34t-84 34 q-35 35 -35 84z" />
<glyph unicode="&#xd7;" d="M123 385q0 41 29 70l135 135l-135 135q-29 29 -29 70q0 40 29 69t69 29q41 0 70 -29l135 -135l135 135q29 29 70 29q40 0 69 -29t29 -69q0 -41 -29 -70l-135 -135l135 -135q29 -29 29 -70t-29 -70q-28 -28 -69 -28q-42 0 -70 28l-135 136l-135 -136q-28 -28 -70 -28 q-41 0 -69 28q-29 29 -29 70z" />
<glyph unicode="&#xd8;" horiz-adv-x="872" d="M-23 -51q-10 35 9 71l114 209q-8 35 -8 74v696q0 72 27 135q26 61 74 109t109 74t134 26q66 0 122 -22q59 -23 104 -61l61 112q18 35 55 45t72 -8t45 -55t-8 -72l-115 -209q4 -17 6 -37q2 -24 2 -37v-696q0 -71 -27 -134t-74 -110q-45 -45 -110 -73q-63 -27 -133 -27 q-63 0 -123 22q-56 21 -102 62l-61 -113q-18 -34 -56 -45q-35 -10 -71 9t-46 55zM289 575l272 502q-22 31 -52 50q-32 20 -73 20q-61 0 -104 -43t-43 -105v-424zM309 225q22 -31 54 -50t73 -19q61 0 104 43q44 44 44 104v424z" />
<glyph unicode="&#xd9;" horiz-adv-x="868" d="M90 303v942q0 41 29 70q28 28 69 28q42 0 70 -28q29 -29 29 -70v-942q0 -61 43 -104t104 -43q62 0 105 43t43 104v942q0 42 28 70t70 28t70 -28t28 -70v-942q0 -73 -26 -134q-27 -63 -74 -110q-45 -45 -110 -73q-63 -27 -134 -27t-134 27q-65 28 -110 73t-73 110 q-27 63 -27 134zM238 1691q-2 39 24 66q27 29 65 32q37 3 66 -24l205 -184q29 -28 32 -64q3 -38 -24 -67q-28 -29 -65 -32q-39 -3 -68 24l-205 184q-28 27 -30 65z" />
<glyph unicode="&#xda;" horiz-adv-x="868" d="M90 303v942q0 41 29 70q28 28 69 28q42 0 70 -28q29 -29 29 -70v-942q0 -61 43 -104t104 -43q62 0 105 43t43 104v942q0 42 28 70t70 28t70 -28t28 -70v-942q0 -73 -26 -134q-27 -63 -74 -110q-45 -45 -110 -73q-63 -27 -134 -27t-134 27q-65 28 -110 73t-73 110 q-27 63 -27 134zM239 1517q3 37 31 64l205 184q29 27 67 24q36 -3 64 -32q27 -29 24 -66q-3 -38 -32 -65l-205 -184q-29 -27 -66 -24q-38 3 -65 32q-26 28 -23 67z" />
<glyph unicode="&#xdb;" horiz-adv-x="868" d="M90 303v942q0 41 29 70q28 28 69 28q42 0 70 -28q29 -29 29 -70v-942q0 -60 44 -104q43 -43 103 -43q62 0 105 43t43 104v942q0 42 28 70t70 28t70 -28t28 -70v-942q0 -73 -26 -134q-27 -63 -74 -110q-45 -45 -110 -73q-63 -27 -134 -27t-134 27t-109 73q-45 45 -73 110 t-28 134zM163 1522q4 36 34 59l184 143q24 19 53 19q30 0 55 -19l185 -143q29 -23 33 -59t-19 -66q-23 -29 -58 -33t-65 19q-15 11 -45 35q-9 7 -43 32q-15 11 -43 33q-28 -22 -43 -33q-30 -22 -41 -32q-30 -24 -45 -35q-29 -23 -65 -19q-38 5 -60 33q-22 27 -17 66z" />
<glyph unicode="&#xdc;" horiz-adv-x="868" d="M90 303v942q0 41 29 70q28 28 69 28q42 0 70 -28q29 -29 29 -70v-942q0 -60 44 -104q43 -43 103 -43q62 0 105 43t43 104v942q0 42 28 70t70 28t70 -28t28 -70v-942q0 -73 -26 -134q-27 -63 -74 -110q-45 -45 -110 -73q-63 -27 -134 -27t-134 27t-109 73q-45 45 -73 110 t-28 134zM152 1593q0 50 34 84q35 35 84 35t84 -35t35 -84t-35 -84q-34 -34 -84 -34t-84 34t-34 84zM479 1593q0 49 35 84t84 35t84 -35t35 -84t-35 -84q-34 -34 -84 -34t-84 34q-35 35 -35 84z" />
<glyph unicode="&#xdd;" horiz-adv-x="823" d="M32 1276q14 40 50 57q35 18 74 5q40 -14 57 -50l68 -135q29 -60 63 -129q35 -70 68 -133q11 21 67 133q55 109 64 129l67 135q17 36 58 50q38 13 75 -5q36 -19 49 -57q13 -37 -6 -76l-276 -551v-592q0 -40 -29 -69t-69 -29q-41 0 -70 29t-29 69v592l-276 551 q-18 38 -5 76zM217 1517q1 36 31 64l205 184q29 27 66 24q38 -3 65 -32q26 -27 24 -66q-2 -38 -30 -65l-205 -184q-29 -27 -68 -24q-37 3 -65 32q-25 29 -23 67z" />
<glyph unicode="&#xde;" horiz-adv-x="819" d="M106 57v1180q0 41 29 70q28 28 70 28q41 0 69 -28q29 -29 29 -70v-160h148q72 0 133 -26t109 -74q47 -47 74 -110q28 -65 28 -134v-123q0 -69 -28 -134q-26 -61 -74 -109t-109 -74q-63 -27 -133 -27h-148v-209q0 -40 -29 -69t-69 -29q-41 0 -70 29t-29 69zM303 463h148 q60 0 103 43q44 44 44 104v123q0 61 -44 105q-43 43 -103 43h-148v-418z" />
<glyph unicode="&#xdf;" horiz-adv-x="876" d="M113 57v1024q0 85 42 154q42 70 113 108q74 39 156 35t149 -49q65 -42 99 -107q35 -67 35 -141q0 -14 -2 -28q-6 -84 -58 -148q66 -46 104 -118q37 -70 37 -156v-328q0 -72 -26 -131q-27 -62 -73 -108q-45 -45 -107 -72t-131 -27q-39 0 -66 27t-27 65q0 39 27 66 q26 26 66 26q62 0 108 46q45 45 45 108v328q0 63 -45 108t-108 45q-36 0 -60 21q-25 22 -31 53q-6 32 10 62q15 29 46 41l37 16q63 27 69 94q5 31 -10 58q-17 31 -41 47t-55 18q-33 2 -60 -14q-30 -16 -44 -41q-15 -27 -15 -58v-1024q0 -38 -27 -65t-65 -27q-39 0 -66 27 q-26 26 -26 65z" />
<glyph unicode="&#xe0;" horiz-adv-x="720" d="M31 270q0 64 23 116q24 54 64 94t94 64q52 23 116 23h112v109q0 33 -18 60q-19 28 -49 40t-64 6q-32 -6 -55 -30q-27 -27 -66 -27q-36 0 -63 27q-29 29 -29 65q0 37 29 66q63 63 149 81q83 17 168 -18q83 -34 133 -107t50 -163v-610q0 -39 -27 -66t-66 -27h-204 q-62 0 -116 24q-56 25 -94 63q-39 39 -64 95q-23 52 -23 115zM178 1281q-1 36 23 65q24 26 60 28q37 2 63 -22l204 -185q28 -24 30 -60q1 -36 -23 -65q-22 -26 -59 -28q-36 -2 -64 22l-205 185q-28 24 -29 60zM215 270q0 -47 33 -80q32 -32 80 -32h112v225h-112 q-47 0 -80 -33t-33 -80z" />
<glyph unicode="&#xe1;" horiz-adv-x="720" d="M31 270q0 64 23 116q24 54 64 94t94 64q52 23 116 23h112v109q0 33 -18 60q-19 28 -49 40t-64 6q-32 -6 -55 -30q-27 -27 -66 -27q-36 0 -63 27q-29 29 -29 65q0 37 29 66q63 63 149 81q83 17 168 -18q83 -34 133 -107t50 -163v-610q0 -39 -27 -66t-66 -27h-204 q-62 0 -116 24q-56 25 -94 63q-39 39 -64 95q-23 52 -23 115zM178 1107q1 36 29 60l205 185q28 24 64 22q38 -2 61 -28q23 -29 21 -65t-30 -60l-204 -185q-26 -24 -63 -22q-36 2 -60 28q-24 29 -23 65zM215 270q0 -47 33 -80q32 -32 80 -32h112v225h-112q-47 0 -80 -33 t-33 -80z" />
<glyph unicode="&#xe2;" horiz-adv-x="720" d="M31 270q0 64 23 116q24 54 64 94t94 64q52 23 116 23h112v109q0 33 -18 60q-19 28 -49 40t-63 6q-32 -6 -56 -30q-27 -27 -66 -27q-36 0 -63 27q-29 29 -29 65q0 37 29 66q63 63 149 81q83 18 170 -18q81 -34 131 -107t50 -163v-610q0 -39 -27 -66t-66 -27h-204 q-62 0 -116 24q-56 25 -94 63q-39 39 -64 95q-23 52 -23 115zM100 1112q4 32 33 55l184 144q22 16 52 16q29 0 51 -16l184 -144q28 -23 32 -55q5 -34 -17 -61q-22 -28 -56 -33q-33 -4 -61 18q-12 9 -47 37q-28 22 -43 34t-43 34q-28 -22 -43 -34t-43 -34q-35 -28 -47 -37 q-29 -23 -62 -18q-32 4 -55 33q-23 30 -19 61zM215 270q0 -47 33 -80q32 -32 80 -32h112v225h-112q-47 0 -80 -33t-33 -80z" />
<glyph unicode="&#xe3;" horiz-adv-x="720" d="M31 270q0 64 23 116q24 54 64 94t94 64q52 23 116 23h112v109q0 33 -18 60q-19 28 -49 40t-63 6q-32 -6 -56 -30q-27 -27 -66 -27q-36 0 -63 27q-29 29 -29 65q0 37 29 66q63 63 149 81q83 18 170 -18q81 -34 131 -107t50 -163v-610q0 -39 -27 -66t-66 -27h-204 q-62 0 -116 24q-56 25 -94 63q-39 39 -64 95q-23 52 -23 115zM103 1144q-7 32 12 62q49 72 137 88q86 17 158 -39l16 -12q16 -10 31 -6q5 0 12 3q9 3 14 13q21 29 54 36q32 7 61 -11q29 -21 36 -54q7 -34 -11 -63q-49 -71 -138 -88q-85 -16 -157 39l-17 12q-16 10 -30 6 q-5 0 -13 -3q-9 -3 -14 -13q-21 -29 -53 -36t-62 12q-29 21 -36 54zM215 270q0 -47 33 -80q32 -32 80 -32h112v225h-112q-47 0 -80 -33t-33 -80z" />
<glyph unicode="&#xe4;" horiz-adv-x="720" d="M31 270q0 64 23 116q24 54 64 94t94 64q52 23 116 23h112v109q0 33 -18 60q-19 28 -49 40t-63 6q-32 -6 -56 -30q-27 -27 -66 -27q-36 0 -63 27q-29 29 -29 65q0 37 29 66q63 63 149 81q83 18 170 -18q81 -34 131 -107t50 -163v-610q0 -39 -27 -66t-66 -27h-204 q-62 0 -116 24q-56 25 -94 63q-39 39 -64 95q-23 52 -23 115zM92 1184q0 47 33 80q32 32 80 32t80 -32t32 -80t-32 -80q-33 -33 -80 -33t-80 33t-33 80zM215 270q0 -47 33 -80q32 -32 80 -32h112v225h-112q-47 0 -80 -33t-33 -80zM420 1184q0 47 33 80q32 32 79 32 q48 0 80 -32q33 -33 33 -80t-33 -80t-80 -33q-46 0 -79 33t-33 80z" />
<glyph unicode="&#xe5;" horiz-adv-x="720" d="M31 270q0 64 23 116q24 54 64 94t94 64q52 23 116 23h112v109q0 33 -18 60q-19 28 -49 40t-63 6q-32 -6 -54 -30q-29 -27 -68 -27q-36 0 -63 27q-29 29 -29 65q0 37 29 66q63 63 149 81q83 18 170 -18q81 -34 131 -107t50 -163v-610q0 -39 -27 -66t-66 -27h-204 q-62 0 -116 24q-56 25 -94 63q-39 39 -64 95q-23 52 -23 115zM172 1204q0 82 57 139q58 58 140 58q81 0 139 -58q57 -57 57 -139t-57 -139t-139 -57q-83 0 -140 57t-57 139zM215 270q0 -47 33 -80q32 -32 80 -32h112v225h-112q-47 0 -80 -33t-33 -80zM319 1204q0 -20 15 -35 q14 -14 35 -14q20 0 34 14q15 15 15 35t-15 35q-14 14 -34 14q-21 0 -35 -14q-15 -15 -15 -35z" />
<glyph unicode="&#xe6;" horiz-adv-x="1107" d="M38 204q-18 86 17 171q34 85 109 135q73 49 166 49h112v113q0 36 -19 62q-19 27 -50 42q-33 12 -66 6t-57 -30q-29 -29 -66 -29q-36 0 -65 29q-27 27 -27 63q0 39 27 66q65 65 152 83q85 17 171 -18q55 -23 93 -59q41 39 93 60q55 22 111 22q62 0 116 -24q56 -25 94 -63 q39 -39 64 -95q23 -52 23 -115v-205q0 -40 -26 -66t-66 -26h-317v-113q0 -35 18 -62t51 -42q30 -12 65 -6q34 6 58 30q27 29 64 29q38 0 65 -29q29 -29 29 -65q0 -37 -29 -66q-63 -63 -150 -81q-85 -18 -173 18q-54 22 -90 59q-38 -36 -93 -59q-86 -35 -171 -18 q-86 18 -152 81q-63 66 -81 153zM218 240q8 -34 32 -58t57 -30t66 6q31 15 50 42q19 26 19 62v113h-112q-34 0 -64 -19q-29 -18 -41 -51q-15 -32 -7 -65zM627 559h225v113q0 47 -33 80q-32 32 -80 32t-80 -32t-32 -80v-113z" />
<glyph unicode="&#xe7;" horiz-adv-x="677" d="M88 262v410q0 93 49 166q49 74 135 108q86 35 171 18q88 -18 153 -83q27 -27 27 -66q0 -36 -27 -63q-29 -29 -66 -29q-36 0 -65 29q-24 24 -57 30t-66 -6q-33 -15 -51 -42q-19 -28 -19 -62v-410q0 -34 19 -62q18 -27 51 -42q22 -9 41 -9h2h2q45 0 78 33q29 29 65 29 q37 0 66 -29q27 -28 27 -65t-27 -66q-51 -48 -119 -71v-48q0 -70 -34 -129q-35 -61 -93 -94q-34 -18 -70 -9t-57 44q-18 33 -9 70t44 55q35 24 35 63v48q-1 0 -4.5 1.5t-5.5 2.5t-6 2.5t-5 1.5q-86 34 -135 108q-49 73 -49 166z" />
<glyph unicode="&#xe8;" horiz-adv-x="753" d="M88 262v410q0 61 24 115q26 58 63 95q38 38 94 63q54 24 116 24t116 -24q56 -25 94 -63q37 -37 63 -95q24 -54 24 -115v-205q0 -39 -27 -66q-26 -26 -65 -26h-318v-113q0 -34 20 -62q19 -27 50 -42q33 -12 66 -6t57 30q29 29 65 29q37 0 66 -29q27 -28 27 -65t-27 -66 q-66 -63 -153 -81q-85 -17 -171 18q-86 34 -135 108q-49 73 -49 166zM196 1281q-2 36 21 65q24 26 61 28q36 2 64 -22l205 -185q26 -24 28 -60q2 -37 -22 -65q-24 -26 -60 -28q-37 -2 -63 22l-205 185q-27 23 -29 60zM272 559h226v113q0 47 -33 80q-32 32 -80 32t-80 -32 q-33 -33 -33 -80v-113z" />
<glyph unicode="&#xe9;" horiz-adv-x="753" d="M88 262v410q0 61 24 115q26 58 63 95q38 38 94 63q54 24 116 24t116 -24q56 -25 94 -63q37 -37 63 -95q24 -54 24 -115v-205q0 -39 -27 -66q-26 -26 -65 -26h-318v-113q0 -34 20 -62q19 -27 50 -42q33 -12 66 -6t57 30q29 29 65 29q37 0 66 -29q27 -28 27 -65t-27 -66 q-66 -63 -153 -81q-85 -17 -171 18q-86 34 -135 108q-49 73 -49 166zM196 1107q2 37 29 60l205 185q26 24 63 22q36 -2 60 -28q24 -28 22 -65q-2 -36 -28 -60l-205 -185q-28 -24 -64 -22q-37 2 -61 28q-23 29 -21 65zM272 559h226v113q0 47 -33 80q-32 32 -80 32t-80 -32 q-33 -33 -33 -80v-113z" />
<glyph unicode="&#xea;" horiz-adv-x="753" d="M88 262v410q0 61 24 115q26 58 63 95q38 38 94 63q54 24 116 24t116 -24q56 -25 94 -63q37 -37 63 -95q24 -54 24 -115v-205q0 -39 -27 -66q-26 -26 -65 -26h-318v-113q0 -34 20 -62q19 -27 50 -42q33 -12 66 -6t57 30q29 29 65 29q37 0 66 -29q27 -28 27 -65t-27 -66 q-66 -63 -153 -81q-85 -17 -171 18q-86 34 -135 108q-49 73 -49 166zM119 1112q4 33 31 55l184 144q22 16 51 16t51 -16l185 -144q27 -22 32 -55q4 -33 -18 -61q-21 -29 -54 -33q-35 -4 -63 18q-12 9 -47 37q-28 22 -43 34t-43 34q-28 -22 -43 -34t-43 -34q-35 -28 -47 -37 q-27 -22 -61 -18q-33 4 -56 33q-21 28 -16 61zM272 559h226v113q0 47 -33 80q-32 32 -80 32t-80 -32q-33 -33 -33 -80v-113z" />
<glyph unicode="&#xeb;" horiz-adv-x="753" d="M88 262v410q0 61 24 115q26 58 63 95q38 38 94 63q54 24 116 24t116 -24q56 -25 94 -63q37 -37 63 -95q24 -54 24 -115v-205q0 -39 -27 -66q-26 -26 -65 -26h-318v-113q0 -34 20 -62q19 -27 50 -42q33 -12 66 -6t57 30q29 29 65 29q37 0 66 -29q27 -28 27 -65t-27 -66 q-66 -63 -153 -81q-85 -17 -171 18q-85 35 -134 108q-50 74 -50 166zM109 1184q0 48 32 80t80 32t80 -32q33 -33 33 -80t-33 -80t-80 -33t-80 33q-32 32 -32 80zM272 559h226v113q0 47 -33 80q-32 32 -80 32t-80 -32q-33 -33 -33 -80v-113zM436 1184q0 47 33 80q32 32 80 32 t80 -32t32 -80t-32 -80q-33 -33 -80 -33t-80 33t-33 80z" />
<glyph unicode="&#xec;" horiz-adv-x="409" d="M-26 1281q-1 35 24 65q22 27 59 28q38 2 64 -22l205 -185q27 -23 29 -60q1 -36 -23 -65q-24 -26 -61 -28q-36 -1 -62 22l-205 185q-28 24 -30 60zM113 57v820q0 38 27 65t65 27t65 -27t27 -65v-820q0 -38 -27 -65t-65 -27t-65 27t-27 65z" />
<glyph unicode="&#xed;" horiz-adv-x="409" d="M54 1107q2 36 30 60l205 185q28 24 64 22q37 -2 59 -28q24 -29 23 -65q-2 -37 -29 -60l-205 -185q-26 -24 -63 -22q-36 2 -60 28q-25 30 -24 65zM113 57v820q0 39 26 65q27 27 66 27q37 0 64 -27q28 -28 28 -65v-820q0 -37 -28 -65q-27 -27 -64 -27q-39 0 -66 27 q-26 26 -26 65z" />
<glyph unicode="&#xee;" horiz-adv-x="409" d="M-61 1112q5 33 32 55l185 144q22 16 49 16q29 0 51 -16l184 -144q29 -23 33 -55q5 -33 -16 -61q-23 -29 -57 -33q-33 -4 -60 18q-12 9 -47 37q-28 22 -43 34t-43 34q-28 -22 -44 -34t-44 -34q-35 -28 -47 -37q-27 -22 -61 -18q-33 4 -54 33q-22 28 -18 61zM115 57v820 q0 39 26 65q27 27 66 27q37 0 64 -27q28 -28 28 -65v-820q0 -37 -28 -65q-27 -27 -64 -27q-39 0 -66 27q-26 26 -26 65z" />
<glyph unicode="&#xef;" horiz-adv-x="409" d="M-72 1184q0 47 33 80q32 32 80 32t80 -32q33 -33 33 -80t-33 -80t-80 -33t-80 33t-33 80zM113 57v820q0 39 26 65q27 27 66 27q38 0 65 -27t27 -65v-820q0 -38 -27 -65t-65 -27q-39 0 -66 27q-26 26 -26 65zM256 1184q0 47 33 80q32 32 80 32t80 -32t32 -80t-32 -80 q-33 -33 -80 -33t-80 33t-33 80z" />
<glyph unicode="&#xf0;" horiz-adv-x="770" d="M88 262v410q0 61 24 115q26 58 63 95q38 38 94 63q54 24 116 24q14 0 22 -1q4 0 7.5 -0.5t7.5 -1.5t6 -1q-2 4 -25 44q-13 23 -28 42l-64 -43q-30 -21 -65 -13t-58 37q-20 29 -12 66q7 34 37 57l39 25q-14 10 -22 15q-19 12 -21 13q-32 22 -40 60q-7 36 15 69 q21 33 58 40q36 7 69 -15q27 -16 51 -36q40 -32 48 -40l49 33q28 20 66 12q35 -7 57 -37q20 -28 12 -66q-7 -35 -37 -57l-29 -18q14 -19 30 -44q14 -21 26 -46q46 -90 72 -189q26 -101 26 -202v-410q0 -62 -24 -116q-25 -56 -63 -94t-94 -63q-54 -24 -116 -24t-116 24 q-56 25 -94 63t-63 94q-24 54 -24 116zM272 262q0 -47 33 -80q32 -32 80 -32t80 32q33 33 33 80v410q0 47 -33 80q-32 32 -80 32t-80 -32q-33 -33 -33 -80v-410z" />
<glyph unicode="&#xf1;" horiz-adv-x="802" d="M113 57v811q0 40 26 66q27 27 66 27h205q61 0 115 -24q56 -25 95 -64q38 -38 63 -94q24 -54 24 -115v-607q0 -38 -27 -65t-66 -27q-38 0 -65 27t-27 65v607q0 46 -33 79t-79 33h-113v-719q0 -38 -27 -65t-65 -27q-39 0 -66 27q-26 26 -26 65zM143 1144q-6 32 13 62 q49 72 137 88q86 17 158 -39l16 -12q16 -10 31 -6q4 0 12 3q9 3 14 13q18 28 53 36q33 7 62 -11q29 -21 36 -54q7 -34 -11 -63q-49 -71 -138 -88q-86 -17 -159 39l-17 12q-8 6 -16 8q-4 1 -15 -2q-14 0 -24 -16q-21 -29 -54 -36t-63 12q-29 22 -35 54z" />
<glyph unicode="&#xf2;" horiz-adv-x="770" d="M88 262v410q0 61 24 115q26 58 63 95q38 38 94 63q54 24 116 24t116 -24q56 -25 94 -63q37 -37 63 -95q24 -54 24 -115v-410q0 -62 -24 -116q-25 -56 -63 -94t-94 -63q-54 -24 -116 -24t-116 24q-56 25 -94 63t-63 94q-24 54 -24 116zM195 1281q-2 37 22 65q24 26 61 28 q36 1 62 -22l205 -185q27 -23 29 -60q2 -36 -21 -65q-24 -26 -60 -28q-37 -2 -65 22l-205 185q-26 24 -28 60zM272 262q0 -47 33 -80q32 -32 80 -32t80 32q33 33 33 80v410q0 47 -33 80q-32 32 -80 32t-80 -32q-33 -33 -33 -80v-410z" />
<glyph unicode="&#xf3;" horiz-adv-x="770" d="M88 262v410q0 61 24 115q26 58 63 95q38 38 94 63q54 24 116 24t116 -24q56 -25 94 -63q37 -37 63 -95q24 -54 24 -115v-410q0 -62 -24 -116q-25 -56 -63 -94t-94 -63q-54 -24 -116 -24t-116 24q-56 25 -94 63t-63 94q-24 54 -24 116zM195 1107q2 36 28 60l205 185 q28 24 65 22q36 -2 60 -28q24 -28 22 -65q-2 -36 -28 -60l-205 -185q-28 -24 -64 -22q-37 2 -61 28q-24 28 -22 65zM272 262q0 -47 33 -80q32 -32 80 -32t80 32q33 33 33 80v410q0 47 -33 80q-32 32 -80 32t-80 -32q-33 -33 -33 -80v-410z" />
<glyph unicode="&#xf4;" horiz-adv-x="770" d="M88 262v410q0 61 24 115q26 58 63 95q38 38 94 63q54 24 116 24t116 -24q56 -25 94 -63q37 -37 63 -95q24 -54 24 -115v-410q0 -62 -24 -116q-25 -56 -63 -94t-94 -63q-54 -24 -116 -24t-116 24q-56 25 -94 63t-63 94q-24 54 -24 116zM117 1112q4 32 33 55l184 144 q22 16 51 16t51 -16l185 -144q27 -22 31 -55q5 -34 -17 -61q-23 -29 -55 -33q-33 -5 -62 18q-12 9 -47 37q-28 22 -43 34t-43 34q-28 -22 -43 -34t-43 -34q-35 -28 -47 -37q-29 -23 -62 -18q-32 4 -55 33q-22 28 -18 61zM272 262q0 -47 33 -80q32 -32 80 -32t80 32 q33 33 33 80v410q0 47 -33 80q-32 32 -80 32t-80 -32q-33 -33 -33 -80v-410z" />
<glyph unicode="&#xf5;" horiz-adv-x="770" d="M88 262v410q0 61 24 115q26 58 63 95q38 38 94 63q54 24 116 24t116 -24q56 -25 94 -63q37 -37 63 -95q24 -54 24 -115v-410q0 -62 -24 -116q-25 -56 -63 -94t-94 -63q-54 -24 -116 -24t-116 24q-56 25 -94 63t-63 94q-24 54 -24 116zM120 1144q-7 33 11 62q52 71 137 88 q86 17 158 -39l16 -12q16 -10 31 -6q17 0 27 16q21 29 54 36t62 -11q29 -22 35 -54q6 -34 -12 -63q-23 -35 -59 -57q-40 -24 -78 -31q-86 -17 -158 39l-16 12q-16 10 -31 6q-5 0 -12 -3q-10 -4 -15 -13q-18 -29 -52 -36q-32 -7 -62 12q-29 21 -36 54zM272 262q0 -47 33 -80 q32 -32 80 -32t80 32q33 33 33 80v410q0 47 -33 80q-32 32 -80 32t-80 -32q-33 -33 -33 -80v-410z" />
<glyph unicode="&#xf6;" horiz-adv-x="770" d="M88 262v410q0 61 24 115q26 58 63 95q38 38 94 63q54 24 116 24t116 -24q56 -25 94 -63q37 -37 63 -95q24 -54 24 -115v-410q0 -62 -24 -116q-25 -56 -63 -94t-94 -63q-54 -24 -116 -24t-116 24q-56 25 -94 63t-63 94q-24 54 -24 116zM109 1184q0 48 32 80t80 32t80 -32 q33 -33 33 -80t-33 -80t-80 -33t-80 33q-32 32 -32 80zM272 262q0 -47 33 -80q32 -32 80 -32t80 32q33 33 33 80v410q0 47 -33 80q-32 32 -80 32t-80 -32q-33 -33 -33 -80v-410zM436 1184q0 47 33 80q32 32 80 32t80 -32q33 -33 33 -80t-33 -80t-80 -33t-80 33t-33 80z" />
<glyph unicode="&#xf7;" d="M82 590q0 40 29 69t69 29h492q40 0 69 -29t29 -69q0 -41 -29 -70q-28 -28 -69 -28h-492q-41 0 -69 28q-29 29 -29 70zM307 324q0 49 35 84q34 34 84 34t84 -34q35 -35 35 -84t-35 -84t-84 -35t-84 35t-35 84zM307 856q0 49 35 84t84 35t84 -35t35 -84t-35 -84t-84 -35 t-84 35t-35 84z" />
<glyph unicode="&#xf8;" horiz-adv-x="790" d="M24 -47q-9 35 9 65l84 144q-19 48 -19 100v410q0 61 24 115q26 58 63 95t95 63q54 24 115 24q91 0 162 -49l49 81q18 33 53 42q36 9 66 -9q33 -18 42 -53t-9 -68l-84 -141q18 -47 18 -100v-410q0 -64 -23 -116q-24 -54 -64 -94q-38 -38 -94 -63q-54 -24 -116 -24 q-47 0 -87 13q-43 14 -77 36l-47 -84q-19 -31 -53 -40t-68 10q-30 18 -39 53zM283 449l182 311q-29 24 -70 24q-48 0 -80 -32t-32 -80v-223zM326 174q27 -24 69 -24q48 0 80 32q33 33 33 80v223z" />
<glyph unicode="&#xf9;" horiz-adv-x="802" d="M96 270v607q0 38 27 65t65 27q39 0 66 -27t27 -65v-607q0 -48 32 -80t80 -32h113v719q0 39 26 65q27 27 66 27t66 -27q26 -26 26 -65v-811q0 -40 -26 -66q-27 -27 -66 -27h-205q-62 0 -116 24q-56 25 -94 63q-37 37 -63 95q-24 54 -24 115zM204 1281q-1 36 23 65 q22 26 59 28q36 2 64 -22l205 -185q28 -24 29 -60t-23 -65q-24 -26 -60 -28q-37 -2 -63 22l-205 185q-27 23 -29 60z" />
<glyph unicode="&#xfa;" horiz-adv-x="802" d="M96 270v607q0 37 28 65q27 27 64 27q39 0 66 -27t27 -65v-607q0 -48 32 -80t80 -32h113v719q0 37 28 65q27 27 64 27q39 0 66 -27q26 -26 26 -65v-811q0 -40 -26 -66q-27 -27 -66 -27h-205q-61 0 -115 24q-58 26 -95 63t-63 95q-24 54 -24 115zM204 1107q2 37 29 60 l205 185q26 24 63 22q36 -2 60 -28q25 -30 24 -65q-1 -36 -30 -60l-205 -185q-28 -24 -64 -22q-37 2 -59 28q-24 29 -23 65z" />
<glyph unicode="&#xfb;" horiz-adv-x="802" d="M96 270v607q0 37 28 65q27 27 64 27q39 0 66 -27t27 -65v-607q0 -48 32 -80t80 -32h113v719q0 37 28 65q27 27 64 27q39 0 66 -27q26 -26 26 -65v-811q0 -40 -26 -66q-27 -27 -66 -27h-205q-61 0 -115 24q-58 26 -95 63t-63 95q-24 54 -24 115zM127 1112q4 32 33 55 l184 144q22 16 49 16q29 0 51 -16l185 -144q29 -23 33 -55q4 -31 -19 -61q-21 -29 -54 -33q-34 -4 -61 18q-12 9 -47 37q-28 22 -44 34t-44 34q-28 -22 -43 -34t-43 -34q-35 -28 -47 -37q-27 -22 -60 -18q-34 4 -57 33q-21 28 -16 61z" />
<glyph unicode="&#xfc;" horiz-adv-x="802" d="M96 270v607q0 37 28 65q27 27 64 27q39 0 66 -27t27 -65v-607q0 -48 32 -80t80 -32h113v719q0 37 28 65q27 27 64 27q39 0 66 -27q26 -26 26 -65v-811q0 -40 -26 -66q-27 -27 -66 -27h-205q-61 0 -114 24q-59 27 -95 63q-39 39 -64 95q-24 54 -24 115zM117 1184 q0 47 33 80q32 32 79 32q48 0 80 -32q33 -33 33 -80t-33 -80t-80 -33q-46 0 -79 33t-33 80zM444 1184q0 47 33 80q32 32 80 32t80 -32q33 -33 33 -80t-33 -80t-80 -33t-80 33t-33 80z" />
<glyph unicode="&#xfd;" horiz-adv-x="755" d="M10 -352q0 38 27 65t65 27q40 0 69 22t40 58l72 237l-240 793q-10 36 8 71q17 33 55 44q35 11 70 -8q35 -18 45 -54l158 -524l156 524q12 36 46 54q35 18 68 8q39 -11 56 -44q18 -35 8 -71l-246 -819l-80 -264q-29 -97 -106 -152q-77 -59 -179 -59q-39 0 -65 26 q-27 27 -27 66zM187 1107q1 36 30 60l205 185q28 24 64 22q37 -2 59 -28q24 -29 23 -65q-2 -37 -29 -60l-205 -185q-26 -24 -63 -22q-36 2 -60 28q-25 30 -24 65z" />
<glyph unicode="&#xfe;" horiz-adv-x="794" d="M113 -352v1638q0 40 26 66t66 26q39 0 65 -26q27 -27 27 -66v-317h113q61 0 115 -24q58 -26 95 -63t63 -95q24 -54 24 -115v-410q0 -62 -24 -116q-25 -56 -63 -94q-37 -37 -95 -63q-54 -24 -115 -24h-113v-317q0 -39 -27 -66q-26 -26 -65 -26q-40 0 -66 26t-26 66z M297 150h113q47 0 79 32q33 33 33 80v410q0 47 -33 80q-32 32 -79 32h-113v-634z" />
<glyph unicode="&#xff;" horiz-adv-x="755" d="M10 -352q0 38 27 65t65 27q40 0 69 22t40 58l72 237l-238 793q-12 37 6 71q17 33 55 44q36 10 71 -8q34 -18 44 -54l158 -524l158 524q10 36 44 54t70 8q37 -11 54 -44q18 -35 8 -71l-246 -819l-80 -264q-29 -97 -106 -152q-77 -59 -179 -59q-39 0 -65 26q-27 27 -27 66z M102 1184q0 47 33 80q32 32 80 32t80 -32q33 -33 33 -80t-33 -80t-80 -33t-80 33t-33 80zM430 1184q0 47 33 80q32 32 80 32t80 -32t32 -80t-32 -80q-33 -33 -80 -33t-80 33t-33 80z" />
<glyph unicode="&#x152;" horiz-adv-x="1220" d="M82 303v696q0 72 27 135t73 109q47 47 110 74q61 26 134 26q90 0 170 -45q27 37 76 37h409q42 0 70 -28q29 -29 29 -70t-29 -70q-28 -28 -70 -28h-311v-181v-188h270q41 0 70 -29t29 -69q0 -41 -29 -70t-70 -29h-270v-229v-180h311q41 0 70 -29t29 -69q0 -41 -29 -70 t-70 -29h-409q-49 0 -76 37q-80 -45 -170 -45q-71 0 -134 27q-65 28 -110 73t-73 110q-27 63 -27 134zM279 303q0 -61 43 -104t104 -43t104 43t43 104v41v614v41q0 62 -43 105t-104 43t-104 -43t-43 -105v-696z" />
<glyph unicode="&#x153;" horiz-adv-x="1163" d="M88 262v410q0 61 24 115q26 58 63 95q38 38 94 63q54 24 116 24q57 0 112 -22q53 -21 93 -60q40 39 93 60q55 22 112 22q61 0 115 -24q58 -26 95 -63t63 -95q24 -54 24 -115v-205q0 -39 -27 -66q-26 -26 -66 -26h-317v-113q0 -35 18 -62q18 -26 52 -42q30 -12 64 -6 t58 30q27 29 64 29q39 0 66 -29q28 -28 28 -65q0 -38 -28 -66q-63 -63 -151 -81q-85 -18 -173 18q-54 22 -90 59q-40 -39 -93 -60q-55 -22 -112 -22q-62 0 -116 24q-56 25 -94 63t-63 94q-24 54 -24 116zM272 262q0 -47 33 -80q32 -32 80 -32t80 32q33 33 33 80v410 q0 47 -33 80q-32 32 -80 32t-80 -32q-33 -33 -33 -80v-410zM682 559h225v113q0 47 -33 80q-32 32 -79 32q-48 0 -80 -32q-33 -33 -33 -80v-113z" />
<glyph unicode="&#x178;" horiz-adv-x="823" d="M31 1276q12 39 49 57q38 18 75 5q39 -14 56 -50l68 -135q29 -60 63 -129q35 -70 68 -133q11 21 67 133q54 109 64 129l67 135q17 36 58 50q38 13 75 -5q38 -18 50 -57q12 -37 -7 -76l-276 -551v-592q0 -40 -29 -69t-69 -29q-41 0 -70 29t-29 69v592l-276 551 q-16 37 -4 76zM127 1593q0 49 35 84t84 35t84 -35t35 -84t-35 -84q-34 -34 -84 -34t-84 34q-35 35 -35 84zM455 1593q0 50 34 84q35 35 84 35t84 -35t35 -84t-35 -84q-34 -34 -84 -34t-84 34t-34 84z" />
<glyph unicode="&#x2c6;" horiz-adv-x="1024" d="M246 1112q5 34 30 55l185 144q22 16 51 16t51 -16l185 -144q27 -22 32 -55q4 -33 -18 -61q-21 -29 -54 -33q-34 -4 -63 18q-12 9 -47 37q-28 22 -43 34t-43 34q-28 -22 -43 -34t-43 -34q-35 -28 -47 -37q-29 -23 -62 -18q-32 4 -55 33q-21 28 -16 61z" />
<glyph unicode="&#x2dc;" horiz-adv-x="1024" d="M247 1144q-7 33 11 62q52 71 137 88q86 17 158 -39l16 -12q16 -10 31 -6q17 0 27 16q21 29 54 36t62 -11q29 -22 35 -54q6 -34 -12 -63q-23 -35 -59 -57q-40 -24 -78 -31q-86 -17 -158 39l-16 12q-16 10 -31 6q-4 0 -12 -3q-10 -4 -15 -13q-18 -29 -52 -36q-32 -7 -62 12 q-29 21 -36 54z" />
<glyph unicode="&#x2000;" horiz-adv-x="907" />
<glyph unicode="&#x2001;" horiz-adv-x="1815" />
<glyph unicode="&#x2002;" horiz-adv-x="907" />
<glyph unicode="&#x2003;" horiz-adv-x="1815" />
<glyph unicode="&#x2004;" horiz-adv-x="605" />
<glyph unicode="&#x2005;" horiz-adv-x="453" />
<glyph unicode="&#x2006;" horiz-adv-x="302" />
<glyph unicode="&#x2007;" horiz-adv-x="302" />
<glyph unicode="&#x2008;" horiz-adv-x="226" />
<glyph unicode="&#x2009;" horiz-adv-x="363" />
<glyph unicode="&#x200a;" horiz-adv-x="100" />
<glyph unicode="&#x2010;" d="M82 590q0 40 29 69t69 29h492q40 0 69 -29t29 -69q0 -41 -29 -70q-28 -28 -69 -28h-492q-41 0 -69 28q-29 29 -29 70z" />
<glyph unicode="&#x2011;" d="M82 590q0 40 29 69t69 29h492q40 0 69 -29t29 -69q0 -41 -29 -70q-28 -28 -69 -28h-492q-41 0 -69 28q-29 29 -29 70z" />
<glyph unicode="&#x2012;" d="M82 590q0 40 29 69t69 29h492q40 0 69 -29t29 -69q0 -41 -29 -70q-28 -28 -69 -28h-492q-41 0 -69 28q-29 29 -29 70z" />
<glyph unicode="&#x2013;" horiz-adv-x="1024" d="M-98 590q0 41 28 69q29 29 70 29h1024q41 0 70 -29q28 -28 28 -69q0 -42 -28 -70t-70 -28h-1024q-42 0 -70 28t-28 70z" />
<glyph unicode="&#x2014;" horiz-adv-x="2048" d="M-98 590q0 41 28 69q29 29 70 29h2048q41 0 70 -29q28 -28 28 -69q0 -42 -28 -70t-70 -28h-2048q-42 0 -70 28t-28 70z" />
<glyph unicode="&#x2018;" horiz-adv-x="393" d="M70 1049v98q0 61 33 110q35 52 90 74q34 16 70 1t52 -52q15 -34 -1 -70q-15 -34 -50 -51q-8 -5 -8 -12v-10q28 -7 47 -33q19 -25 19 -55q0 -40 -27 -67q-28 -28 -66 -28h-65q-40 0 -68 28q-26 26 -26 67z" />
<glyph unicode="&#x2019;" horiz-adv-x="393" d="M70 1237q0 40 26 66t68 26h65q40 0 66 -26q27 -27 27 -66v-98q0 -63 -34 -112q-36 -51 -89 -73q-34 -16 -71 -1q-34 14 -50 51q-16 36 -1 71q15 34 50 51q8 5 8 13v8q-29 11 -47 35t-18 55z" />
<glyph unicode="&#x201a;" horiz-adv-x="391" d="M70 98q0 40 26 66t68 26h65q40 0 66 -26q27 -27 27 -66v-98q0 -63 -34 -112q-35 -50 -89 -72q-34 -16 -71 -1q-35 14 -50 50q-16 37 -1 72q15 34 50 51q8 5 8 12v8q-29 11 -47 35t-18 55z" />
<glyph unicode="&#x201c;" horiz-adv-x="759" d="M70 1049v98q0 61 32 110q33 51 91 74q34 16 69 1t51 -52q16 -34 1 -70q-15 -34 -50 -51q-8 -2 -8 -12v-10q28 -7 47 -33q19 -25 19 -55q0 -39 -28 -67t-67 -28h-65q-38 0 -66 28q-26 26 -26 67zM438 1049v98q0 59 33 110q33 52 90 74q34 16 70 1q35 -15 51 -52 q16 -34 1 -70q-15 -34 -50 -51q-8 -2 -8 -12v-10q28 -7 47 -33q18 -24 18 -55q0 -40 -27 -67q-28 -28 -67 -28h-66q-37 0 -65 28q-27 27 -27 67z" />
<glyph unicode="&#x201d;" horiz-adv-x="761" d="M72 1237q0 40 26 66t66 26h65q41 0 67 -26q28 -28 28 -66v-98q0 -63 -34 -112q-36 -51 -89 -73q-37 -16 -72 -1q-34 15 -51 51q-16 36 -1 71t52 51q8 5 8 13v8q-29 11 -47 35t-18 55zM440 1237q0 39 27 66q26 26 65 26h66q41 0 67 -26q27 -27 27 -66v-98q0 -63 -34 -112 q-36 -51 -89 -73q-36 -16 -71 -1t-52 51q-16 36 -1 71q15 34 53 51q8 5 8 13v8q-29 11 -47 35q-19 25 -19 55z" />
<glyph unicode="&#x201e;" horiz-adv-x="761" d="M70 98q0 39 27 66q26 26 67 26h65q40 0 66 -26q27 -27 27 -66v-98q0 -62 -33 -112t-90 -72q-34 -16 -70 -1q-34 15 -51 50q-16 37 -1 72q15 34 50 51q8 2 8 12v8q-29 11 -47 35t-18 55zM438 98q0 38 28 66q26 26 66 26h66q40 0 66 -26t26 -66v-98q0 -62 -33 -112t-90 -72 q-34 -16 -69 -1t-52 50q-16 37 -1 72q15 34 51 51q8 2 8 12v8q-29 11 -47 35q-19 25 -19 55z" />
<glyph unicode="&#x2022;" horiz-adv-x="524" d="M31 578q0 47 18 89q17 40 50 73q34 34 74 51q42 18 89 18q49 0 91 -18q41 -18 73 -51q32 -34 49 -73q19 -44 19 -89q0 -46 -19 -90q-17 -39 -49 -73q-30 -32 -73 -50q-44 -19 -91 -19q-45 0 -89 19q-42 18 -74 50q-33 33 -50 73q-18 42 -18 90zM207 578q0 -23 16 -39 q17 -17 39 -17t39 17q16 16 16 39q0 22 -16 38q-17 17 -39 17t-39 -17q-16 -16 -16 -38z" />
<glyph unicode="&#x2026;" horiz-adv-x="1179" d="M61 78q0 49 35 84t84 35t84 -35t35 -84t-35 -84t-84 -35t-84 35t-35 84zM471 78q0 49 35 84t84 35t84 -35t35 -84t-35 -84t-84 -35t-84 35t-35 84zM881 78q0 50 34 84q35 35 84 35t84 -35t35 -84t-35 -84t-84 -35t-84 35q-34 34 -34 84z" />
<glyph unicode="&#x202f;" horiz-adv-x="363" />
<glyph unicode="&#x2039;" horiz-adv-x="489" d="M78 549q-27 47 0 96l131 238q22 35 59 47q40 12 76 -8q49 -28 49 -86q0 -27 -12 -48l-41 -73q-4 -7 -15.5 -29t-18.5 -34q-18 -32 -30 -54q10 -21 32 -59q26 -46 38 -68q22 -37 43 -80q12 -23 12 -47q0 -58 -49 -86q-36 -20 -76 -8q-37 12 -59 47z" />
<glyph unicode="&#x203a;" horiz-adv-x="489" d="M88 344q0 24 12 47q19 36 45 80q35 64 37 68q20 38 33 59q-8 12 -32 54q-7 11 -17.5 32.5t-15.5 30.5l-41 73q-13 23 -13 48q0 58 51 86q33 20 75 8q41 -12 59 -47l131 -238q27 -49 0 -96l-140 -252q-18 -35 -58 -47q-42 -12 -75 8q-51 28 -51 86z" />
<glyph unicode="&#x205f;" horiz-adv-x="453" />
<glyph unicode="&#x20ac;" d="M4 487q0 41 29 70t69 29h66v131h-66q-41 0 -69 28q-29 29 -29 70t29 70q28 28 69 28h66v86q0 58 18 112t53 98q37 47 80 76q45 30 103 46q52 14 113 11q57 -3 108 -24t94 -58t72 -89l20 -34q21 -35 11 -75t-45 -61t-75 -9t-61 46l-20 35q-24 43 -72 63t-94 5 q-49 -13 -78 -52q-30 -41 -30 -90v-86h229q42 0 70 -28t28 -70t-28 -70t-70 -28h-229v-131h147q41 0 70 -29q28 -28 28 -70q0 -41 -28 -69q-29 -29 -70 -29h-147v-86q0 -51 30 -90q28 -37 78 -53q48 -12 94 7q49 21 72 62l20 35q21 34 61 46t75 -9t45 -60q10 -40 -11 -75 l-20 -35q-28 -50 -72 -88q-43 -37 -94 -58q-53 -22 -108 -26q-57 -5 -113 12q-58 16 -103 46q-43 29 -80 76q-35 44 -53 97q-18 52 -18 113v86h-66q-40 0 -69 29t-29 69z" />
<glyph unicode="&#x2122;" horiz-adv-x="1372" d="M25 1237q0 40 26 66t66 26h409q41 0 67 -26q28 -28 28 -66q0 -39 -28 -67q-27 -27 -67 -27h-110v-512q0 -39 -28 -67q-27 -27 -66 -27t-66 27t-27 67v512h-112q-39 0 -66 27q-26 26 -26 67zM680 631v614q0 31 17 54q18 24 46 34q29 11 59 0q29 -10 46 -35q5 -7 20 -27.5 t23 -31.5q6 -9 41 -58q5 -7 14 -20t16.5 -23.5t14.5 -19.5q7 9 22 30.5t24 32.5q27 35 42 58q24 32 41 59q18 24 47 35t57 0q30 -11 47 -34q19 -25 19 -54v-614q0 -39 -28 -67q-27 -27 -66 -27t-66 27q-26 26 -26 67v323q-3 -4 -11 -14l-12 -16q-7 -7 -14 -19 q-27 -41 -76 -41q-46 0 -76 41q-7 12 -14 19q-16 18 -21 30v-323q0 -40 -27 -67t-67 -27q-38 0 -65 27t-27 67z" />
<glyph unicode="&#x25fc;" horiz-adv-x="972" d="M0 0v973h973v-973h-973z" />
</font>
</defs>
</svg>
