<?xml version="1.0" standalone="no"?>
<!DOCTYPE svg PUBLIC "-//W3C//DTD SVG 1.1//EN" "http://www.w3.org/Graphics/SVG/1.1/DTD/svg11.dtd" >
<svg xmlns="http://www.w3.org/2000/svg">
<metadata></metadata>
<defs>
<font id="jenna_sueregular" horiz-adv-x="512" >
<font-face units-per-em="2048" ascent="1536" descent="-512" />
<missing-glyph horiz-adv-x="327" />
<glyph horiz-adv-x="0" />
<glyph unicode="&#xd;" horiz-adv-x="274" />
<glyph unicode=" "  horiz-adv-x="327" />
<glyph unicode="&#x09;" horiz-adv-x="327" />
<glyph unicode="&#xa0;" horiz-adv-x="327" />
<glyph unicode="!" horiz-adv-x="516" d="M98 1440q0 10 11 13q9 3 25 -2q15 -5 30 -15q13 -9 24 -25q1 -36 10 -155q14 -180 17 -218q16 -183 22 -243q10 -100 19 -231q7 -98 12 -178q5 -73 0 -85q-10 4 -19 3q-6 -1 -20 -1q-9 0 -20 6t-21 27q-1 179 -8 331q-7 156 -17 258q-13 130 -28 239q-6 46 -19 143.5 t-18 132.5zM207 31q-5 31 7 48q11 16 30 24q18 7 42 6q16 -1 46 -11q8 -17 9 -25q2 -10 -3 -19q-4 -7 -12 -19q-13 -18 -17 -27q-44 -12 -66 -5q-24 8 -36 28z" />
<glyph unicode="&#x22;" horiz-adv-x="350" d="M45 1370q0 22 3 39q3 16 20 18q18 0 26 -2q7 -2 23 -18q-6 -57 -6 -105q0 -44 5 -94q3 -32 13 -89q7 -43 18 -93q-10 -10 -35 -4q-26 6 -36 16q-9 50 -13 98q-3 35 -7 107q-5 79 -5 88q-1 37 -6 39zM197 1331q18 15 33 3q17 -14 28 -34q0 -39 7 -78q1 -6 6.5 -35t7.5 -43 q7 -40 8 -61q1 -24 -8 -28q-22 -1 -37 28q-14 29 -24 75q-10 48 -14 92q-6 69 -7 81z" />
<glyph unicode="#" horiz-adv-x="1140" d="M126 622q-1 7 13 17q17 14 50 25q21 7 67 19q34 9 72 15q13 2 34.5 6t30.5 5q-2 19 -5.5 51t-4.5 43t-3.5 37.5t-4.5 39.5q-1 11 -3.5 34.5t-4.5 35.5q-2 15 -11 76q30 5 35 6q10 2 31 -8q6 -12 12 -45q6 -35 12 -76q2 -13 4 -28t5 -33.5t5 -30.5q4 -26 13 -94 q32 10 47 14q9 2 23.5 5.5t17.5 4.5q30 8 41 9q-1 14 -6 74q-7 84 -10 114q-3 29 -15 109q-7 48 -18 59q30 35 46 38t28 -20q16 -28 24 -82q10 -69 13 -109q4 -57 6 -105q1 -30 4 -64q19 3 96 16q15 2 41 7.5t38 7.5q18 3 67 10q28 4 65 4q24 -19 33 -28q5 -5 -10 -15 q-27 -5 -124 -29q-82 -20 -200 -45q2 -45 6 -81q4 -30 2 -81q64 15 71 17q13 3 51 10q18 3 47 7q5 1 25 3t33 4q29 1 36 -3q8 -5 14 -27q-11 -19 -40 -29q-25 -9 -71 -19q-4 -1 -36 -8t-49 -11q-49 -10 -81 -23q2 -48 6 -79q3 -19 7 -62q6 -57 6 -64q2 -46 2 -90 q-26 1 -35 7q-9 5 -19 27q-12 28 -18 67q-6 37 -9 75q-2 21 -4 65q-2 29 -3 39q-37 -8 -69 -15q-10 -3 -63 -13q0 -25 5 -67q1 -11 3.5 -36t4.5 -37q3 -22 5 -63q1 -28 -5 -39q-23 -6 -36 -2q-14 4 -24 12q-3 17 -5 54q-1 10 -1 30.5t-1 30.5q0 10 -0.5 29t-1.5 28 q-1 26 -3 43q-39 -7 -53 -11q-10 -3 -30 -7.5t-29 -6.5q-30 -8 -54 -12q-21 -4 -39 -2q-12 31 -11 45q2 15 23 23q26 9 66 16q30 5 119 25q-5 41 -6 54q-1 12 -3 32t-3 31q-1 6 -3.5 23.5t-3.5 27.5q-26 -4 -74.5 -11.5t-71.5 -10.5q-61 -9 -120 -7q-9 13 -11 22zM475 641 q0 -7 1.5 -24t2.5 -27q1 -24 3 -49q0 -7 0.5 -20t1.5 -19q1 -11 1 -21q30 11 64 17q38 6 65 16q-2 28 -2 36q0 21 -1 33q-1 6 -1.5 18.5t-0.5 19.5q-2 34 -5 51l-45 -9q-5 -1 -41 -10q-15 -4 -43 -12z" />
<glyph unicode="$" horiz-adv-x="1060" d="M199 770q0 9 5 27q4 16 24 40q18 22 58 54q47 38 103 72q-2 11 -5.5 30t-5.5 28l-9 51q-5 27 -12 56q-3 11 -8.5 38t-8.5 40q5 45 57 41q6 -57 18 -119q6 -29 21 -135q5 2 12.5 6t12.5 6.5l9 4.5q5 2 13.5 5.5t10.5 4.5q3 2 10 5t10 4q18 8 27 11q-1 26 -12 62 q-9 29 -7 57q21 0 39 -3q20 -3 27 -9q0 -10 2 -38q1 -17 8 -56h51q7 0 23 -1.5t24 -2.5q22 -1 47 -13q10 -15 16 -21q2 -2 -3 -4q-4 -1 -11 -3q-19 4 -56 -1q-20 -3 -83 -16q9 -106 10 -118q4 -41 9 -83q5 -38 9 -78q10 -90 11 -100q130 -17 231 -40q90 -21 101 -60 q8 -62 -31 -103q-39 -42 -93 -69q-50 -25 -106 -41q-21 -6 -45 -12l-24 -6q7 -48 14 -117q4 -36 2 -80q-23 -8 -43 2q-10 5 -14.5 8.5t-3.5 5.5q-3 29 -5 89q-2 55 -5 81q-45 -7 -74 -8q-32 -1 -53 0q6 -131 8 -155q1 -18 3.5 -58.5t4.5 -60.5q-14 0 -31 3q-14 3 -26 11 q-5 10 -6 42q0 8 -1.5 32t-2.5 39q-2 52 -3 79q-2 54 -2 68q-8 0 -36 5q-20 3 -56 18q-30 12 -60 33q-28 20 -50 59q-5 9 -4 14q1 6 6 4q5 -3 49 -26q14 -7 56 -26q24 -11 52 -16q26 -5 35 -1q-2 60 -2 69q0 32 -1 46q-1 21 -3 48q-4 67 -4 76q-35 10 -84 26q-41 14 -73 35 t-50 56q-18 34 -16 88zM262 723q9 -18 23 -32q11 -11 30 -19q25 -10 43 -16q41 -13 58 -19q-1 10 -5 76q0 8 -0.5 23t-1.5 22q-2 24 -3 47q-1 10 -3.5 38.5t-3.5 43.5q-3 0 -29 -12q-28 -13 -54 -35q-28 -24 -46 -53q-18 -30 -8 -64zM451 926q7 -58 8 -81q1 -11 2.5 -30.5 t1.5 -27.5q0 -6 1.5 -27.5t2.5 -34.5q1 -22 10 -98q32 -7 50 -8q1 0 61 -7q-1 13 -4.5 44t-5.5 45q-6 48 -9 73q-8 70 -10 82q-8 59 -14 119l-25 -10q-7 -3 -19 -9q-17 -8 -21 -11q-8 -5 -29 -19zM479 559q0 -54 1 -72q0 -9 0.5 -25t1.5 -24q2 -22 3 -48q0 -5 1 -17.5l2 -25 t1 -25.5h37q11 0 27 2q4 0 12.5 1.5t13.5 2.5q10 1 33 6q-5 53 -7 107q-2 50 -9 102q-10 1 -64 7q-29 3 -53 9zM655 541q2 -32 2 -39q0 -20 1 -31q1 -6 2.5 -21t2.5 -24q4 -41 9 -82q14 3 79 21q46 13 80 29q38 18 61 40q24 22 19 51q-5 18 -29 25q-31 9 -64 13q-46 6 -82 8 q-33 2 -81 10z" />
<glyph unicode="%" horiz-adv-x="1011" d="M34 778q-3 54 11 117q16 71 41 129q28 65 55 88q24 30 42 29q21 -2 44 2q13 2 33 -2q21 -4 46 -12t41 -20q19 -14 20 -30q79 38 157 66q81 29 154 84q11 41 12 67t6 44q4 17 15 29q10 12 34 22q9 4 23 4q23 0 59 -17q0 -13 1 -16t1 -10t-3 -22q-4 -20 -13 -52 q-32 -39 -59 -116q-32 -90 -55 -181q-23 -94 -49 -220q-22 -110 -43 -236q-23 -142 -35 -227q-17 -127 -27 -193q-4 -25 -20 -133q-8 -50 -9 -50h-63q-17 0 -33 21t0 86q35 136 66 277q39 176 61 292q38 196 57 293q16 83 60 282q-38 -17 -81 -44q-27 -17 -81 -53 q-44 -29 -83 -53q-41 -25 -85 -40q-17 -51 -40 -97q-24 -48 -55 -85q-32 -38 -74 -59q-43 -21 -97 -17q-31 2 -34 53zM93 824q4 -25 28 -19q53 22 92 68t55 96q15 47 -5 79t-89 21q-23 -35 -47 -89q-21 -47 -30 -89q-9 -40 -4 -67zM640 155q2 27 9 66q5 29 15 69 q12 46 24 70q41 97 193 86q23 -10 35 -43t-3 -86q-8 -22 -27 -91q-14 -50 -35 -91t-54 -63q-34 -23 -86 -11q-8 6 -28 13q-22 8 -28 18q-17 35 -15 63zM700 222q-4 -42 25 -73q12 -12 31 0t37 37q14 19 32 58q14 32 22 62q7 28 4 50q-3 21 -24 21q-22 6 -52 -17 q-29 -22 -50 -59q-20 -37 -25 -79z" />
<glyph unicode="&#x26;" horiz-adv-x="856" d="M72 1083q0 95 32 163q33 71 98 104q64 33 158 0q73 -30 112 -92q38 -61 47 -139q9 -79 -3 -169q-12 -89 -36 -178q-27 -98 -53 -168q-35 -92 -56 -137q3 -6 12.5 -24.5t14.5 -27.5q9 -16 29 -48q10 -16 34 -54q14 -22 47 -69q27 51 44 91l35 84q16 40 28 64q14 27 28 33 q9 -1 25 -31q12 -22 22 -47q-22 -27 -36 -54q-4 -8 -8.5 -17.5t-9.5 -21.5t-8 -19q-25 -55 -31 -68q-19 -39 -46 -82q18 -33 41 -67q15 -23 35 -48q11 -14 31 -38q5 -7 17 -20t17 -19q33 -39 59 -53q22 -12 40 -17q14 -4 17 -9q3 -4 -5 -26q-62 -2 -104 18q-41 19 -73 51 q-33 33 -58 74q-10 16 -28 46.5t-24 40.5q-27 -29 -58 -52q-33 -25 -77 -41q-38 -14 -82 -9q-41 5 -74 44q-35 53 -12 154q21 92 74 268q-47 106 -89 202q-50 115 -89 228q-37 87 -37 180zM140 1068q3 -37 18 -97q16 -61 31 -108q21 -63 42 -119q15 -39 48 -107 q22 -46 49 -76q2 6 18 42.5t25 60.5q32 80 46 124q21 66 36 135q13 61 15 130q2 62 -16 110q-18 51 -61 80q-8 7 -26 17t-42 18q-28 9 -50 10q-25 2 -48 -6q-36 -16 -57 -49t-27 -75q-6 -40 -1 -90zM271 147q-1 -38 22 -63q17 -18 43 -14q27 4 53 19q26 14 49 39 q24 26 31 46q-3 5 -41 60q-5 8 -15 22.5t-15 21.5q-5 8 -15 21.5t-13 17.5q-26 36 -38 54q-5 -19 -22 -64q-10 -26 -26 -80q-11 -38 -13 -80z" />
<glyph unicode="'" horiz-adv-x="231" d="M47 1055q8 52 15 89q8 42 12 84q4 35 2 87q-1 35 -10 100q17 16 23 17q10 2 30 2q17 -4 22 -20q4 -13 4 -38q-3 0 -5 -35q-1 -12 -1.5 -40.5t-0.5 -42.5q-1 -43 -3 -101q-1 -47 -10 -92q-13 -8 -40 -14q-28 -6 -38 4z" />
<glyph unicode="(" horiz-adv-x="374" d="M75 527q-1 35 1 93q1 15 2.5 41t1.5 37q27 170 72 283q47 119 88 187q49 80 76 109q33 35 40 48q41 11 41 -27q-81 -103 -125 -192q-47 -95 -72 -178t-36 -157q-10 -72 -12 -128q-6 -186 10 -307q17 -127 43 -213q27 -90 57 -146q33 -63 53 -104q18 -29 11 -41 q-7 -11 -29 -27q-36 54 -64 110q-34 67 -55 122q-26 67 -44 122q-19 59 -30 113q-15 75 -22 143q-5 56 -7 112z" />
<glyph unicode=")" horiz-adv-x="417" d="M41 -147q76 104 118 195q41 90 67 181q25 87 32 159q8 77 8 128q0 188 -20 307q-22 130 -49 211q-28 85 -62 143q-35 61 -57 103q-20 28 -12 41t28 27q39 -56 67 -108q34 -64 59 -120q26 -60 48 -122q21 -60 33 -111q21 -91 27 -141q9 -72 11 -113q3 -56 2 -92 q-1 -27 -1 -78q-22 -167 -64 -286q-40 -115 -81 -189q-40 -72 -74 -111q-34 -38 -39 -49q-41 -15 -41 25z" />
<glyph unicode="*" horiz-adv-x="428" d="M47 1083q23 4 47 14q21 9 56 9q-4 4 -17 15.5t-21 18.5q-16 15 -40 29q7 15 22 16q14 1 31 -5q14 -5 32 -16l25 -15q-4 23 -6 40q-1 13 -3 25t-3 17l-4 16q-2 17 4 21q5 4 16 4q2 1 4.5 -1.5t4.5 -8.5q2 -4 8 -30q4 -15 7 -38q3 -21 3 -33q19 19 25 34t32 52q20 0 35 -18 q-7 -21 -15 -34q-3 -5 -16 -18l-16 -16q-9 -9 -18 -22q34 0 54 7q5 2 22 7.5t28 9.5q12 3 19.5 -4.5t9.5 -25.5q-4 -1 -55 -21q-22 -9 -48 -14q7 -16 19 -26l20 -18q11 -9 23 -23q11 -13 24 -38q-10 -2 -16 -2q-7 0 -25 8q-32 18 -44 31q-13 14 -42 31q2 -10 5 -44 q2 -20 3 -29q1 -5 1.5 -14.5t0.5 -14.5q3 -27 5 -41q-22 -4 -30 0q-7 4 -17 20q0 20 -7 51q-6 27 -6 53q-12 -10 -25 -31q-13 -20 -18 -40q-16 -10 -20 -6q-3 3 -15 8q4 9 20 41l11 22q2 3 7 16t6 21q-5 0 -22 -5q-10 -3 -32 -11q-5 -2 -14.5 -5t-13.5 -5q-13 -5 -15 -5 q-4 11 -4 22q0 5 -2 19z" />
<glyph unicode="+" horiz-adv-x="704" d="M53 418q-11 39 4 61t47 21h36h48q32 0 46 1t32 1q-1 8 -2.5 28t-2.5 31q-4 47 -7 73q-4 36 -9 63q-4 22 -7 32q38 10 54 7q15 -3 13 -36q0 -3 2 -41q1 -19 3 -59t3 -58q2 -36 2 -40h40q39 0 60 1q10 0 31 0.5t31 1.5q20 1 53 1q7 0 9 -8q2 -11 1 -20q-2 -12 -4 -21 q-1 -4 -3.5 -9t-2.5 -6q-16 0 -34 1t-59 1q-42 0 -64 -1t-54 -1q0 -3 2 -18.5t3 -25.5q0 -8 1.5 -27.5t2.5 -30.5q0 -10 1.5 -30t2.5 -30q0 -2 4 -49q0 -6 -8 -8q-10 -2 -20 -2t-21 3l-6 2t-5.5 2t-3.5 1v35v58q0 41 -1 62q-1 32 -3 54q-2 0 -24 -1.5t-36 -2.5 q-13 -1 -36 -2.5t-33 -1.5q-27 -1 -57 -5q-25 -3 -29 -7z" />
<glyph unicode="," horiz-adv-x="235" d="M-68 -215q-11 8 8 34q30 42 45 65q33 50 59 94q32 55 50 122q21 4 35 -1q11 -4 29 -9q-7 -37 -37 -92q-29 -54 -65 -100q-42 -54 -69 -80q-35 -33 -55 -33z" />
<glyph unicode="-" d="M41 401q-11 39 3 62q13 22 46 20q47 0 65 1t56 1q40 0 63 1q33 1 88 3q7 0 9 -8q2 -10 1 -19q-2 -14 -4 -22q-1 -4 -3.5 -8.5t-2.5 -5.5q-33 2 -71 1q-70 -2 -103 -4q-42 -2 -96 -8q-41 -4 -51 -14z" />
<glyph unicode="." horiz-adv-x="196" d="M35 47q6 27 26 43q22 18 42 19q21 1 38 -11q18 -13 13 -43q-1 -15 -18 -28q-16 -13 -35 -17q-18 -4 -39 4q-19 7 -27 33z" />
<glyph unicode="/" horiz-adv-x="399" d="M51 -117q-2 20 7 90q8 61 26 178q16 99 39 235q34 198 46 264t46 264q8 48 21.5 127.5t18.5 107.5q14 79 28 174q10 65 8 86q7 14 20 22q14 8 31 13q15 4 34 4q16 0 27 -8q-32 -124 -62 -275q-37 -187 -62 -326q-53 -297 -59 -337q-4 -24 -22.5 -137.5t-26.5 -166.5 q-21 -136 -36 -228q-14 -86 -16 -107q-27 -15 -68 20z" />
<glyph unicode="0" horiz-adv-x="618" d="M84 1196q146 -12 232 -60q84 -47 129 -106q46 -60 57 -109q13 -56 14 -73q15 -206 -9 -356q-23 -146 -65 -248q-40 -97 -88 -150q-46 -51 -80 -63q-48 -12 -71 -1q-26 13 -49 52q-22 45 -36 120q-14 80 -20 160q-6 86 -6 174q0 94 4 154q6 85 9 137q1 24 9 101 q2 16 5.5 46t4.5 43q4 42 15 103q-32 4 -44 29q-11 22 -11 47zM145 485q1 -53 10 -128q8 -70 20 -116q13 -51 35 -84q21 -31 54 -30q31 -5 61 42q28 44 53 112q21 58 41 136q17 66 25 115q9 66 10 116q2 59 -3 109q-4 39 -13 92q-6 35 -16 66q-23 69 -78 121q-58 55 -143 62 q-6 -24 -10 -63q-2 -14 -5.5 -48t-5.5 -53q-12 -117 -13 -123q-8 -67 -12 -127q-1 -16 -4.5 -55t-4.5 -59q-3 -47 -1 -85z" />
<glyph unicode="1" horiz-adv-x="552" d="M200 1169q-2 21 3 33q4 12 20 6h66q-8 -134 -2 -269q6 -140 18 -286q12 -143 27 -292q14 -139 22 -289q-6 -16 -14 -18q-5 -1 -23 -1q-39 -11 -47 19q0 123 -9 271q-12 191 -20 291q-3 33 -10.5 125t-11.5 138q-6 74 -14 188q0 8 -2 40q-1 16 -3 44z" />
<glyph unicode="2" horiz-adv-x="843" d="M-51 750q-12 38 26 98q35 55 97 127q57 66 116 122q22 21 52.5 49.5t38.5 35.5q27 17 52 24q26 8 60 -20q27 -23 26 -88q-2 -69 -19 -159q-20 -105 -46 -205q-11 -44 -33.5 -130t-25.5 -97q-6 -22 -27.5 -102.5t-31.5 -122.5q-24 -96 -41 -200q61 30 128 73q81 52 145 99 q71 52 137 107q67 56 106 98q14 0 20 -9q7 -10 8 -24q2 -20 1 -31t-1 -30q-138 -111 -277 -207q-140 -97 -296 -189q-21 -10 -34 -8q-10 1 -21 19q13 101 37 213q14 62 57 236q35 140 60 235q28 105 49 207q20 96 23 156q3 62 -20 79q-2 7 -13.5 3.5t-32.5 -17.5 q-42 -29 -95 -83q-52 -54 -102 -123t-66 -136q-13 -5 -17 -5q-8 0 -11 1t-11 3q-4 1 -18 1z" />
<glyph unicode="3" horiz-adv-x="831" d="M59 942q55 99 126 156q69 56 136 73q64 16 113 -6t64 -82q7 -33 3 -65q-4 -27 -18 -63q-13 -32 -31 -57q-23 -32 -40 -50q-53 -59 -115 -103q63 29 127 35q65 6 125 -9q58 -15 109 -50q51 -36 79 -90q41 -81 31 -178q-10 -98 -65 -192q-53 -91 -149 -169 q-92 -74 -222 -108q-51 -14 -87 -19q-43 -6 -78 -9t-55 -3q-22 0 -22 4l27 43q143 11 248 58q106 48 178 117t106 148t33 152t-42 133q-40 59 -120 86q-60 21 -118 15q-55 -6 -110 -26q-47 -17 -95 -44q-30 -17 -70 -41q-6 -2 -10 2t-5 14q-3 20 5 43q63 40 129 97 q55 47 104 106q43 52 65 104q21 50 9 85q-12 34 -44 51t-78 5t-101 -55q-56 -44 -113 -128l-16 8q-7 4 -10.5 7t-2.5 5z" />
<glyph unicode="4" horiz-adv-x="671" d="M27 516q13 56 30 109q8 24 38 110q16 46 37 112q17 55 28 116q6 17 24 28t60 0q1 -13 -17 -68q-21 -62 -42 -118q-44 -116 -47 -123q-26 -66 -32 -84q72 15 150 38q72 21 141 48q2 33 6.5 95t6.5 90q2 35 5.5 92t4.5 72q2 39 5 121q1 48 -5 56q0 4 5 12q3 5 13 11 q8 5 21 3t28 -11q2 -23 0 -71q0 -7 -5 -117q-1 -14 -8 -152q-6 -111 -7 -176q45 7 68 13q26 7 45 1q15 -7 25 -28q9 -19 -3 -36q-46 -5 -79 -17l-64 -24q-3 -52 -5 -178q0 -34 -0.5 -102t-1.5 -101q-2 -100 -6 -178q-5 -81 -14 -102q-3 -3 -16 -5q-12 -2 -27 0q-10 1 -24 3 q-11 2 -11 6q7 34 14 94q6 56 13 154q5 70 10 191q4 92 4 206q-33 -7 -81 -22q-70 -22 -107 -32q-83 -22 -106 -28q-51 -12 -74 -8z" />
<glyph unicode="5" horiz-adv-x="854" d="M106 106q-6 6 4 15q11 9 23 14l37 17q70 -36 149 -46q81 -10 159 8t136 62q59 44 80 121q18 70 -1 124q-20 55 -64 96t-106 72q-53 27 -121 52q-64 24 -113 38t-84 28q-47 18 -43 87q3 46 12 181q-11 5 -19 7q-2 0 -6 0.5t-6 1.5q-5 2 -6 4q0 1 -1 3t-2.5 6t-2.5 7 q-6 33 1 50t15 19q75 11 133 28q42 12 126 34q44 12 131 27q60 11 147 9q6 -6 13 -17q8 -13 11 -24q3 -12 3 -21t-9 -11q-59 2 -113 -7q-55 -9 -113 -24q-19 -5 -56 -15t-56 -15q-51 -13 -114 -25q-13 -25 -19 -64q-6 -40 -6 -82q0 -37 5 -72q4 -30 12 -38q60 -10 124 -27 q62 -16 120 -40q63 -26 109 -51q49 -27 87 -60q69 -61 90 -130q21 -68 9 -129q-12 -62 -46 -112q-36 -54 -73 -82q-48 -37 -117 -61q-62 -22 -143 -27q-75 -4 -151 12q-78 17 -145 57z" />
<glyph unicode="6" horiz-adv-x="724" d="M98 799q28 207 101 389q15 4 27 1q13 -3 20 -9q8 -8 16 -19q-55 -112 -81 -227q-25 -114 -30 -223q-5 -112 4 -205q9 -95 24 -172q14 -71 32 -127q15 -45 25 -68q14 59 32 108q21 58 47 105t56 87t59 57q15 14 53 27q33 11 73 13q35 1 73 -12q35 -12 51 -39 q16 -23 11 -65q-5 -41 -27 -89q-22 -47 -61 -100q-39 -52 -87 -95q-53 -47 -106 -76q-59 -33 -121 -40q-4 -12 1 -31q5 -18 1 -22q-33 -4 -49 3q-17 8 -23 18q-3 5 -6 11q-2 4 -2 9v16q0 10 4 29q-44 52 -68 128q-24 77 -36 153q-41 260 -13 465zM297 86q66 5 133 52 t119 109q51 61 75 115q24 56 3 72q-63 48 -119 18q-57 -30 -102 -96q-47 -69 -74 -143q-29 -80 -35 -127z" />
<glyph unicode="7" horiz-adv-x="555" d="M-20 1174q33 9 115 27q78 17 129 26q35 6 131 22q93 15 124 19q6 3 10 -0.5t6.5 -13t2.5 -24.5q2 -51 -4 -128q-4 -58 -19 -191q-23 -205 -25 -224q-8 -67 -25 -228q-9 -86 -15 -203q-6 -60 -3 -100q3 -41 3 -72q-8 -8 -33 0q-24 8 -29 33q-6 134 2 271q7 122 23 262 q4 39 8.5 82.5t10 96.5t8.5 82q13 130 18 273q-17 6 -69 -4q-37 -7 -117 -26q-103 -24 -126 -29q-58 -13 -92 -11q-14 1 -22 12q-8 10 -12 48z" />
<glyph unicode="8" horiz-adv-x="589" d="M88 954q-1 32 20 66q20 32 37 47q51 42 123 46q76 5 164 -32q19 -6 38 -18t13 -55q-24 -85 -34 -115q-20 -62 -34 -98q-28 -71 -37 -93q-15 -34 -42 -94q45 -53 74 -136q28 -82 33 -169t-16 -161q-20 -73 -75 -107q-38 -20 -59 -19q-19 1 -45 27q-25 29 -37 72 q-12 45 -15 97q-3 49 2 109q3 40 13 107q0 2 4 18t7 27q8 27 18 51q4 10 11 30.5t11 31.5q-16 31 -47 67q-34 39 -63 82q-31 47 -52 100q-20 51 -12 119zM162 853q16 -52 54 -103q37 -50 79 -89q7 22 31 75q20 44 44 104q21 52 33 96q12 43 0 53q-32 22 -76 37q-43 15 -79 4 q-69 -29 -86 -77q-16 -48 0 -100zM256 255q-2 -54 5 -87q7 -36 23 -55t42 -9q34 6 48 61q14 54 9 125t-24 140q-20 70 -48 107q-13 -28 -26 -81q-13 -51 -20 -100q-7 -51 -9 -101z" />
<glyph unicode="9" horiz-adv-x="608" d="M74 907q-16 37 15 100q30 60 95 117q61 54 151 85q85 29 181 -1q2 3 2 -7q-1 -9 -4 -31q-9 -64 -16 -108q-2 -12 -9.5 -60t-12.5 -76q-9 -52 -17 -123q0 -2 -0.5 -8.5t-2 -23t-2.5 -31.5q-11 -138 -11 -140q-4 -81 -12 -182q-8 -100 -12 -190q-6 -128 -7 -161 q-2 -71 0 -100q-25 -5 -33 -3q-12 2 -33 13q6 169 11 255q3 41 8.5 119t7.5 116q5 71 17 239q0 2 22 267q-40 -39 -87 -68q-49 -30 -97 -44q-46 -13 -89 -5q-41 8 -65 51zM150 944q18 -35 61 -23q45 12 90 46q46 34 87 86q40 50 52 98q-64 4 -126 -21q-56 -23 -100 -59 q-42 -35 -60 -72q-18 -38 -4 -55z" />
<glyph unicode=":" horiz-adv-x="245" d="M59 461q6 26 29 43t46 18q24 2 41 -11q18 -13 13 -44q-2 -17 -18 -29q-15 -11 -38 -16q-19 -4 -42 4q-20 7 -31 35zM63 55q-7 33 6 54t35 28q25 8 47 4q23 -4 37 -18q0 -23 -10 -40q-11 -19 -27 -28t-40 -11q-23 -2 -48 11z" />
<glyph unicode=";" horiz-adv-x="329" d="M-20 -190q-11 8 7 33t45 66q33 50 59 94q32 55 50 122q1 7 16 15q16 9 29 10q14 1 33 -4q18 -5 25 -21q-10 -39 -45 -93q-37 -58 -77 -105q-43 -51 -82 -84t-60 -33zM123 506q6 26 27 43t41 18q22 2 38 -10q18 -13 13 -43q-1 -16 -18 -29q-14 -11 -35 -16q-17 -4 -38 4 q-20 8 -28 33z" />
<glyph unicode="&#x3c;" horiz-adv-x="548" d="M127 452q-2 21 23 44q18 19 56 58t57 59q100 105 132 139q4 4 11 1q6 -3 11 -10q6 -8 9 -13q4 -7 4 -11q-13 -12 -58 -60q-12 -13 -41.5 -45t-46.5 -50q-34 -37 -83 -93q-38 -44 -43 -53q-29 12 -31 34zM129 444q-5 4 0 12q4 7 13 13t19 11q13 6 15 7q35 -46 82 -94 q34 -34 88 -84q63 -55 98 -84q-21 -35 -46 -39q-24 -4 -46 21q-53 53 -101 107q-36 40 -122 130z" />
<glyph unicode="=" horiz-adv-x="704" d="M117 416q-11 39 4 61t47 21q102 2 163 2q98 0 193 4q6 0 8 -8q2 -11 1 -20q-2 -12 -4 -21l-2 -6t-2 -5.5t-1 -3.5h-48q-19 0 -77 -2q-25 -1 -89 -5q-46 -3 -87 -6t-69 -6q-25 -3 -37 -5zM126 330q2 12 4 21q1 4 5 16q18 -4 88 -2q64 1 137 6q32 2 99 4.5t84 3.5 q11 -39 -5 -61q-15 -21 -46 -19q-78 1 -165 3q-58 1 -192 1q-6 0 -8 8q-2 11 -1 19z" />
<glyph unicode="&#x3e;" horiz-adv-x="581" d="M145 188q36 32 62 57q16 15 47.5 45t46.5 44q33 31 89 87q41 41 46 50q28 -15 30 -36q1 -21 -26 -42q-78 -74 -119 -110q-76 -67 -143 -129q-4 -4 -10 -1q-5 3 -10 9q-2 2 -4.5 7l-3.5 7q-5 8 -5 12zM164 682q22 33 48 36t44 -24q54 -61 95 -114q46 -60 112 -138 q4 -4 -1 -10q-3 -4 -15 -12t-18 -11q-12 -6 -15 -6q-35 52 -76 99q-49 55 -82 90q-40 42 -92 90z" />
<glyph unicode="?" horiz-adv-x="868" d="M154 1060q12 62 58 128q47 68 119 125t156 78q55 12 105 11t88 -24q37 -22 55 -69q18 -48 8 -127q-11 -71 -37 -153q-23 -72 -66 -174q-36 -84 -80 -176q-11 -23 -37.5 -77.5t-39.5 -81.5q-23 -48 -59 -120q-26 -52 -27 -62q-15 -12 -25 -8q-13 5 -21 13t-18 23 q-7 10 -18 19q-12 22 14 63q51 81 73 114q55 82 112 183q64 113 125 275q31 80 41 127t8 82q-2 32 -13 46q-12 15 -24 21q-74 39 -146 20q-73 -20 -136 -72q-66 -55 -114 -126q-52 -78 -79 -145q-34 27 -22 87zM309 70q6 21 27 32q22 11 48 11t54 -11q8 -17 9 -25 q1 -7 -1 -18q-2 -7 -6 -18q-2 -4 -8 -27q-37 -8 -55 -8t-55 8q-19 34 -13 56z" />
<glyph unicode="@" horiz-adv-x="944" d="M87 449q-3 87 13 169q12 64 36 125q25 63 58 114q36 54 76 89q41 36 95 53q88 25 151 11q71 -16 117 -41q48 -26 77 -55q28 -28 31 -29q18 -17 35 -58q17 -43 26 -90q8 -46 10 -98q1 -48 -11 -82q-33 -90 -60 -144q-30 -60 -50 -85q-25 -31 -45 -41q-23 -12 -40 -13 q-29 0 -54 31q-22 27 -38 73q-13 37 -20 84q-6 44 -2 66q-57 -78 -67 -92q-39 -54 -85 -78q-39 -20 -79 -12q-37 8 -42 51q-2 20 15 79q18 64 52 130q35 69 84 119q50 51 113 45q31 -4 53 -4q17 0 23 -27t6 -69q0 -43 -3 -91q-2 -30 -4 -96q-1 -44 5 -83q6 -35 24 -53 q18 -17 52 -7q20 7 43 51q22 42 37 103q14 55 17 130q3 70 -15 135q-17 62 -63 114q-45 51 -121 73q-103 27 -178 -15q-73 -41 -122 -122q-49 -80 -68 -182q-20 -102 -9 -199q6 -49 21 -109q14 -57 50 -107q34 -48 95 -75q60 -27 151 -12q41 6 123 27q86 22 201 86 q11 -8 -2 -36q-12 -28 -41 -40q-67 -29 -109 -48q-57 -26 -113 -42q-62 -18 -120 -19q-62 -2 -127 25q-65 24 -109 81q-41 54 -66 130q-24 73 -27 160zM281 443q-4 -26 8 -31q4 -1 10 -5q7 -5 8 -5q3 -1 11 4q14 8 22 14q70 76 104 147q33 70 23 127q-21 18 -44 6 q-21 -11 -47 -43q-22 -27 -44 -70q-19 -37 -34 -78q-11 -31 -17 -66z" />
<glyph unicode="A" horiz-adv-x="851" d="M-49 410q-6 5 -5.5 10.5t5.5 12.5q16 18 22 24q39 4 68 6q22 1 53 5q32 4 47 6q33 4 47 7q7 25 27.5 102t30.5 117q27 105 51 207t48 207q5 24 15 67.5t18.5 80.5t16.5 71q18 26 31 28h8q11 0 33 -1q12 -66 18 -111q12 -87 12 -91q4 -41 12 -102q16 -122 19 -143 q7 -81 23 -173q11 -61 24 -175q19 3 103 18q77 14 87 16q15 3 36 6.5t25 4.5q7 1 13 2t8.5 1t2.5 -1q1 -3 1 -6q0 -14 -21 -29q-22 -15 -66 -35q-38 -17 -88 -33q-16 -5 -44 -14.5t-40 -13.5q6 -53 14 -97q3 -15 10.5 -57.5t11.5 -66.5q4 -22 11.5 -66t11.5 -66 q3 -15 7.5 -40.5t8 -45t6.5 -35.5q7 -42 13 -90q4 -36 0 -40q-10 -1 -19 -1q-21 0 -31 8q-16 13 -38 20q-15 121 -41 275q-24 142 -39 280q-83 -19 -120 -28q-72 -18 -150 -30q-14 -53 -23 -100q-19 -99 -20 -105q-9 -43 -18 -91q-8 -41 -13 -52q-10 -10 -36 -13t-42 13 q0 13 9 57q2 8 22 97q11 47 26 103q6 22 21 79q-28 0 -64 -3t-69 -3q-30 0 -58 5q-26 5 -32 22zM272 489q9 2 32 6.5t36 7.5q38 7 69 15q53 13 55 13q9 2 28 8q-2 16 -4.5 40.5t-3.5 33.5q-3 30 -6 63q-1 7 -2 22t-2.5 28.5t-2.5 26.5q-6 62 -12 119q-15 116 -24 193 q-6 46 -10 47q-1 0 -3 -6q-11 -43 -28.5 -110t-21.5 -82q-8 -31 -21.5 -82t-17.5 -67q-12 -46 -32 -134q-8 -37 -29 -142z" />
<glyph unicode="B" horiz-adv-x="1003" d="M-82 942q5 54 31 99q28 47 65 82q41 38 85 62q49 27 89 42q2 23 0 35q-2 13 2 22q9 1 31 22q20 19 29 19q5 -13 6 -23q0 -4 1 -7.5t2 -7.5t1 -5q1 -4 2.5 -10.5t1.5 -7.5q54 31 121 40q39 5 75 5q28 0 55 -3q61 -7 111 -29q47 -21 64 -50q32 -43 32 -94q0 -15 -3 -30 q-12 -66 -50 -134q-37 -65 -90 -121q-54 -58 -90 -86q63 12 129 18q44 4 85 4q21 0 41 -1q65 -3 112 -13q53 -11 86 -31q68 -38 78 -99q2 -16 2 -32q0 -48 -22 -101q-31 -73 -87 -145q-55 -70 -125 -133q-7 -7 -22 -19l-29 -23q-15 -12 -27 -20q-15 -10 -20 -15 q-105 -72 -198 -116q-100 -48 -216 -89q-31 -6 -59 -6q-16 0 -31 2q-41 6 -64 20q-26 15 -38 33q-12 17 -10 33q50 -11 74 -12q23 -1 40 2q12 2 21 9q7 5 16 9q2 62 2 84q0 47 1 67q0 10 0.5 30t1.5 30q1 19 3 59q-1 69 -5 154q-3 68 -3 112q-64 -26 -81 -35 q-34 -18 -38 -20q-12 -6 -15 -6q-4 0 -11 4q-9 5 -10 15q-2 16 -2 24q0 9 2 33q10 7 26 17t28 16q3 2 10 5.5t14 6.5t14 7q36 19 57 32q-1 70 -3 127q-2 70 -4 107q-2 31 -8 110q-2 20 -5.5 64t-5.5 67q0 3 -3 3.5t-10 -1t-16 -5.5q-28 -12 -66 -33q-30 -17 -72 -50 q-37 -29 -53 -57q-14 -15 -23 -35q-9 -19 -12 -28t-9 -12q-2 -1 -4.5 2.5t-6.5 10.5zM270 1176q-4 -60 -4 -115q0 -68 6 -125q11 -111 15 -229q57 24 108 59q57 38 105 88q45 47 86 115q36 60 53 141q1 6 1 12q0 32 -27 55q-31 27 -85 36q-27 5 -59 5q-29 0 -62 -4 q-68 -7 -137 -38zM287 507q0 -43 2 -155q1 -83 6 -166q5 -89 10 -129q103 29 225 99q120 69 212 148q99 85 153 166q48 73 48 133q0 10 -1 20q-7 44 -85 62q-55 13 -133 13q-23 0 -48 -1q-101 -4 -212 -29q-106 -24 -177 -62v-99z" />
<glyph unicode="C" horiz-adv-x="768" d="M40 378q-3 32 -3 64q0 60 10 117q12 172 64 322q51 147 129 261t176 187q100 74 205 101q5 0 30 -5q24 -5 44 -12q23 -8 34 -18q12 -11 0 -23q-17 -6 -69 -18q-50 -11 -123 -51q-71 -38 -151 -114q-78 -73 -146 -204q-23 -48 -44 -122q-24 -85 -38 -147q-17 -76 -26 -126 q-5 -27 -6 -39.5t1 -13.5q-8 -71 -8 -129q0 -54 7 -97q14 -85 42 -135q27 -48 68 -68q40 -20 75 -23q12 -1 22 -1q25 0 45 5q28 7 38 7q54 21 113 66q58 44 102 93q48 54 86 114q40 63 69 127q5 7 22 20q11 9 26 18q10 6 21 8q9 2 9 -7q-35 -116 -97 -205q-66 -96 -135 -162 q-73 -70 -148 -115t-136 -63q-21 -4 -42 -4q-64 0 -123 38q-77 50 -122 189q-12 61 -21 165z" />
<glyph unicode="D" horiz-adv-x="1257" d="M58 1358q7 12 12 35q53 -13 82 -24q45 -18 52 -22q18 -10 43 -21q24 -10 58 -17q0 21 -1 27q0 3 -0.5 8.5t-1.5 7.5q0 2 -0.5 5.5t-1.5 5.5q-1 3 -1 15q9 39 48 39q8 0 18 -2q13 -13 17 -26q5 -15 6 -31q1 -11 1 -38q0 -12 2 -50q101 -54 230 -117q125 -61 230 -128 q110 -71 187 -150q81 -85 105 -183q7 -42 7 -83q0 -80 -27 -154q-41 -113 -126 -204q-84 -90 -209 -154q-120 -62 -266 -89q-36 -7 -71 -7q-14 0 -28 1q-49 5 -88 22q-41 18 -69 48q-29 31 -41 71q-2 25 7 42q8 17 20 25q9 7 16 5q6 -1 -2 -18q0 -43 17 -69q16 -24 41 -40 q20 -12 51 -21q27 -7 45 -12q-12 73 -19 159l-9 108t-8 97q-11 138 -17 225q-3 42 -9 116.5t-8 106.5q-7 94 -17 197q-4 44 -18 144q-53 23 -88 42q-29 16 -56 31q-26 15 -46 24q-16 8 -57 20q-12 16 -12 26q0 4 2 7zM397 1169q0 -23 4 -59q4 -39 9 -92q2 -18 4.5 -54.5 t3.5 -52.5q1 -11 3.5 -47.5t4.5 -54.5q2 -16 4 -42t3 -36q3 -30 3 -35q4 -34 9 -89q1 -14 5 -54t6 -63q2 -33 11 -128q3 -31 10 -122q1 -8 3.5 -46.5t4.5 -56.5q1 -14 3.5 -36t3.5 -29q10 -1 22 -1q43 0 106 17q78 22 167 77q87 54 164 140q78 87 118 209q6 34 6 67 q0 54 -16 103q-23 73 -75 136q-51 61 -122 109q-78 52 -150 90q-84 45 -161 78q-97 42 -154 72z" />
<glyph unicode="E" horiz-adv-x="1017" d="M45 556q5 17 22 37q20 23 43 45q22 21 50 40q-13 90 -24 175q-4 33 -11 91.5t-10 82.5q-12 98 -16 150q-5 73 -5 101l19 9q8 4 13 5q10 2 17 3l33 3q3 -8 5 -28q1 -12 1 -33q105 27 189 51q93 27 164 48q15 4 161 47q106 31 181 49q9 2 17 2q7 0 14 -1q15 -3 26 -11 q9 -7 14 -13t-2 -8q-55 -32 -142 -64q-93 -35 -201 -69q-72 -23 -216 -71q-111 -37 -188 -69q5 -47 6 -80q1 -16 5 -74q4 -47 10 -98q10 -77 22 -157q80 35 129 54t102 36q11 3 126 37q8 2 78.5 22t119.5 35q9 -1 24 -13q16 -13 24 -26q9 -15 9 -28q0 -16 -14 -23 q-84 -10 -169 -32q-77 -20 -157 -49q-70 -26 -137 -56q-18 -8 -56.5 -25.5t-56.5 -25.5q5 -101 22 -187q19 -97 47 -163q32 -76 69 -119q43 -49 90 -56q19 -4 63 -7q7 0 14 -1q37 0 82 14q53 16 125 61q69 44 154 136q55 49 80 55q14 3 14 -3q0 -5 -8 -15q-66 -71 -102 -112 q-48 -54 -95 -94q-53 -45 -106 -73q-60 -32 -133 -43q-41 -9 -77 -9q-55 0 -97 21q-72 36 -114 110q-44 77 -71 192q-24 102 -47 254q-33 -4 -57 -14q-23 -9 -60 -33q-13 2 -13 11q0 3 1 6z" />
<glyph unicode="F" horiz-adv-x="602" d="M43 694q7 20 20 28q17 10 32 14q7 2 19.5 6.5t15.5 5.5q19 6 30 20q-1 30 -2.5 77t-1.5 56q-2 55 -3 99q-1 31 -5 86q-4 54 -5 92q-25 -9 -37 -8q-15 1 -26 14q-14 15 -14 37q0 18 2 26q-1 1 0 2t3 2.5t6 3.5t11.5 6.5t11.5 6.5q24 12 35 16q-2 31 2 49q4 14 13 35 q7 16 26 16q6 4 14 -4q8 -7 13 -24q6 -17 12 -53q85 17 109 22q46 11 90 21q5 1 37.5 8.5t50.5 12.5q48 13 104 24q36 4 58 9q8 2 19 5t12 3q8 2 17 5q2 1 5 1t6 -1q4 -16 6 -26q1 -7 1 -10q0 -5 -4 -11l-9 -12q-24 -9 -77 -27q-30 -10 -110 -34q-20 -6 -59.5 -17t-59.5 -17 q-53 -16 -110 -28q-9 -2 -20 -6l-25 -8q-20 -8 -31 -11q0 -9 0.5 -21t1 -18.5t0.5 -10.5q0 -19 -1 -30q0 -5 -0.5 -12t-1 -18t-0.5 -20v-15q0 -34 3 -98q-2 -12 -1 -35q1 -18 3 -58q1 -18 7 -79q38 6 70 20q54 24 77 33q68 28 101 40q56 20 145 42q12 -12 -4 -27 q-15 -14 -48 -31q-25 -13 -72 -34q-41 -18 -75 -39q-35 -14 -75 -34q-27 -14 -49 -27q-18 -11 -34 -16q-17 -5 -28 -5q0 -4 2 -74q1 -23 5 -123q3 -72 6 -148q4 -99 7 -150q1 -11 3.5 -58.5t4.5 -69.5q4 -57 9 -84q-21 -5 -44 -6q-32 -2 -49 -2v123q0 125 -5 277 q-4 136 -15 286l-40 -15q-19 -7 -22 -7q-13 -3 -17 -2q-12 2 -28 6q4 16 -7 16t-11 12z" />
<glyph unicode="G" horiz-adv-x="980" d="M67 197v17q0 101 21 222q23 147 55 256q32 112 77 212q42 93 104 179q60 82 137 158q7 1 24 14q19 14 38 26t46 24q18 8 40 8h9q8 -17 9 -19q1 -6 0 -12t-8 -14l-19 -25q-6 -1 -60 -48q-58 -50 -124 -142q-69 -96 -138 -243q-69 -148 -102 -347q0 -4 -5 -46 q-8 -67 -10 -90q-6 -69 -7 -115v-25q0 -49 6 -95q16 -39 31 -57q17 -19 65 -49q17 -3 35 -3q39 0 80 15q55 21 116 67q61 47 109 103q49 58 91 123t65 126q25 65 26 111q-16 0 -48 -14q-44 -19 -76 -34q-56 -26 -85 -40q-34 -16 -73 -30q-26 12 -46 30q-17 15 -17 45 q0 7 1 15q21 0 59 14q41 15 93 36q28 11 112 49q18 8 37.5 17.5t42.5 20.5t36 17q26 12 102 54q39 22 73 44q19 0 39 13t39 13q-5 -22 -30 -54q-24 -29 -57 -61q-29 -28 -64 -56q-30 -24 -50 -36v-52q0 -39 5 -97q4 -47 21 -103q15 -48 46 -67q-12 -40 -33 -42 q-20 -1 -41 17q-18 16 -35 49q-14 29 -16 54q-28 -35 -98 -126q-45 -59 -113 -138q-50 -44 -60 -51q-24 -19 -56 -40q-21 -14 -57 -32q-33 -16 -66 -27q-44 -13 -75 -17q-17 -2 -33 -2t-31 2q-30 4 -56 25q-24 19 -53 62q-46 102 -48 211z" />
<glyph unicode="H" horiz-adv-x="835" d="M-35 628q6 18 17 36q12 2 31 6t25 5q7 1 14.5 3t16 4t12.5 3q19 5 39 12q6 2 48 20q-2 31 -5.5 95.5t-5.5 94.5q-3 64 -13 156q-9 90 -17 140q-11 71 -27 149q9 14 42 33q18 11 38 11q16 0 33 -7q-1 -34 -1 -64q0 -60 3 -101q6 -100 10 -151q2 -20 6.5 -73.5t6.5 -84.5 q7 -91 8 -182q46 6 112 27t156 39q0 23 -2 137q-1 76 -8 176q-5 70 -14 169q-7 79 -15 118q-1 10 -4 19q-2 6 -3 7t-1 7l2 14q9 4 40 7q7 1 13 1q22 0 39 -8q3 -13 4 -50q0 -6 5 -104q1 -14 3.5 -60t3.5 -73q4 -91 7 -138q1 -18 7 -119q3 -56 7 -75q72 15 84 17q34 6 55 9 q32 4 41 5q14 1 45 8q46 2 55 2q18 0 28 -5q8 -4 10 -13q2 -10 2 -21q-42 -8 -71 -17q-54 -16 -82 -24q-56 -16 -84 -25q-51 -16 -79 -22q2 -17 6 -69q1 -12 5 -55t6 -70q11 -132 13 -154q6 -69 15 -158q3 -30 10 -84t7 -57q7 -57 16 -94q7 -22 9 -41q2 -23 11 -57 q-33 -12 -46 -14q-10 -2 -19 -2q-14 0 -25 5q-10 23 -15 46q-5 21 -9 45q-3 17 -7 55q0 2 -10 78q0 3 -2 27t-3 43q0 5 -8 110q-1 16 -4.5 60t-5.5 69q-5 72 -9 128q-6 84 -7 106q-2 62 -2 65l-64 -14q-5 -1 -25 -6t-32 -7q-9 -2 -31.5 -6.5t-35.5 -7.5q-20 -4 -90 -20 q0 -28 2 -92q1 -47 6 -124q0 -10 2 -61t3 -90q1 -21 2 -67.5t2.5 -88.5t2.5 -82q-17 -9 -45 -19q-24 -9 -41 -9q-2 16 -2 81v160q0 126 -1 194q-2 125 -5 181q-85 -27 -142 -39q-28 -6 -45 -6q-20 0 -26 8q-2 0 -2 3q0 5 4 17z" />
<glyph unicode="I" horiz-adv-x="342" d="M-1 1413l4 2l20 10q3 1 8 4t10 5.5t10 4.5q11 5 33 11q-2 -95 -3 -256v-46q0 -122 4 -313q5 -208 19 -415q15 -224 43 -420q-15 -15 -24 -16q-3 -1 -6 -1q-8 0 -15 4q-5 2 -21 14q-12 9 -24 15q0 8 -1.5 25t-3 46.5t-3.5 56.5q-6 95 -12 237q-12 275 -13 294 q-10 213 -13 302q-4 140 -9 263q-3 69 -3 123q0 27 1 50h-1z" />
<glyph unicode="J" horiz-adv-x="555" d="M37 -156q6 62 35 146q17 49 41 99q22 46 49 89q30 49 60 85q42 51 75 89q0 16 -9 87q-9 74 -24 170q-18 117 -33 215q-19 123 -36 224q-11 69 -35 195q-16 84 -27 131q4 1 13 10l15 17l15 15q5 5 14 5h5q1 2 2 2q4 0 9 -13q3 -7 6 -18q9 -31 26 -115q12 -59 29 -176 q5 -37 16 -108.5t16 -104.5q21 -140 32 -225q22 -166 29 -214q6 -24 9 -27q1 -3 4 -6q11 2 36 19q25 18 57 39l63 42q27 18 55 31q17 -5 17 -7q0 -1 -3 -5q-111 -88 -213 -205q9 -84 31 -271q5 -38 11 -94.5t8 -72.5q6 -52 8 -104v-16q0 -33 -3 -67q-5 -52 -15 -77 q-12 -31 -28 -48q-17 -18 -36 -30q-18 -11 -37 -19q-42 -11 -73 -11h-5q-39 2 -63 11q-30 12 -49 28q-25 21 -38 38q-21 24 -35 54q-15 32 -23 82q-4 25 -4 55q0 26 3 56zM106 -264q16 -45 31 -69t35 -40q15 -12 39 -21q3 -1 17.5 -6.5t21.5 -7.5l12 -1q7 -1 13 -1q8 0 14 2 q22 4 40 18q12 9 31 30q20 22 22 84v11q0 58 -9 137q-12 100 -28 193q-13 77 -32 216q-35 -45 -83 -114q-37 -53 -69 -124q-31 -67 -45 -141q-12 -58 -12 -120q0 -23 2 -46z" />
<glyph unicode="K" horiz-adv-x="681" d="M29 700q7 16 34 31t48 33q-4 20 -5 48q0 2 -5 98q-5 90 -7 125q-4 66 -6 126t-3 105q-1 30 -1 59q0 2 12 8q8 4 28 10t28 7h4q8 0 8 -7q4 -146 12 -271q9 -145 10 -247q17 17 44 53q6 9 27.5 36t33.5 44q12 16 34 48t32 46q35 48 63 90q32 47 48 73l24 40l12 4l12 4l9 3 q5 2 12.5 4t10.5 3q12 4 19 6l14 3.5t15 3.5q-12 -27 -28 -54q-32 -53 -37 -61q-7 -10 -19 -30t-19 -30q-16 -25 -38 -54q0 -1 -31 -48q-21 -32 -70 -101q-20 -28 -84 -112q-45 -59 -71 -81q7 -11 72 -52q54 -34 151 -85q80 -42 175 -84q93 -41 148 -48l4 -12l3.5 -10.5 t2.5 -6.5q1 -3 2.5 -8.5t1.5 -6.5l2 -10q1 -3 1 -17q-29 2 -84 19q-72 23 -135 47q-73 28 -170 71q-92 41 -185 88q0 -96 -3 -189t-3 -190q0 -15 1 -38t1 -75v-80q0 -35 -2 -51l-61 21q-2 30 -2 72v111v131q0 89 -1 131q-2 65 -3 113q-1 24 -4 73q-7 7 -20 11q-9 3 -25 13 q-11 7 -24 20q-12 12 -13 27z" />
<glyph unicode="L" horiz-adv-x="677" d="M6 1378q11 7 22 18q9 9 20 16q10 6 26 11q8 3 22 3q7 0 15 -1q4 -14 10 -73q9 -82 14 -141q3 -32 10 -101.5t9 -84.5q2 -20 9 -95t12 -117q16 -144 24 -215q14 -127 26 -197q18 -106 29 -157q16 -73 29 -97q23 -22 52 -22q8 0 17 2q39 7 80 38q42 31 80 75q35 40 73 90 q30 39 58 83q15 23 35 52q10 -16 14 -23q5 -11 6 -19q1 -3 1 -5q0 -5 -3 -8q-25 -53 -57 -104q-27 -43 -68 -100q-36 -50 -69 -86q-37 -40 -62 -61q-61 -39 -107 -55q-11 -4 -24 -4q-34 0 -76 31q-22 33 -34 72q-14 48 -22 95q-11 64 -17 121q-3 25 -9.5 78t-9.5 78 q-23 233 -47 409q-20 146 -41 269q-18 105 -30 156q-4 17 -17 69z" />
<glyph unicode="M" horiz-adv-x="1275" d="M-90 655q6 34 33 117q22 67 59 159q34 85 75 171q39 83 81 151q53 83 86 119q12 13 20.5 22.5t12 14t2.5 4.5q30 19 57 26q10 3 21 3q18 0 38 -8q19 -6 31 -39q11 -31 19 -73q9 -48 10 -80q2 -54 2 -58q0 -58 -3 -108q-1 -13 -3.5 -48.5t-3.5 -56.5q-4 -82 -7 -118 q-5 -64 -6 -144q6 33 30 104q19 56 50 121q27 56 66 108q39 51 79 68h7q43 0 57 -48t20 -132q0 -2 0.5 -7t1 -15t0.5 -18q1 -12 3 -37t3 -37q3 -47 6 -88q3 -54 7 -82q6 -47 8 -57q4 -16 6 -17q1 0 2 1q0 1 21.5 36t32.5 55q26 45 59 93q31 45 62 76t63 39q6 1 11 1 q28 0 45 -34q22 -45 34 -114q11 -66 19 -162q3 -33 8.5 -93t7.5 -83q8 -95 19 -159q12 -74 32 -109q-28 -12 -49 6t-45 33q-6 21 -9 70q-1 13 -8 114q-2 23 -4.5 67.5t-3.5 64.5q-5 84 -11 127q-8 65 -17 96q-11 38 -25 42q-9 0 -14 5t-19 -11q-53 -58 -91 -119 q-37 -58 -57 -103q-24 -53 -31 -78q-2 -9 -5 -18l-4.5 -13.5t-1.5 -6.5q-16 -43 -31 -124q-13 -68 -18 -165q-21 -6 -26 8q-4 11 -24 31q1 10 3 65q1 27 1 60.5t-1 73.5q-2 118 -4 173q-2 65 -8 181q-3 69 -13 160q-7 66 -19 109q-11 1 -32 -21q-20 -21 -40 -54 q-12 -20 -36 -63q-17 -30 -21 -45q-44 -120 -62 -185q-24 -85 -31 -127q-10 -57 -11 -89t-8 -74q-2 -22 -4.5 -57t-2.5 -39q-3 -41 -3 -81q0 -24 2 -86q1 -46 6 -109h-8q-26 0 -39 11q-27 22 -52 46q1 7 3.5 29.5t3.5 37.5q2 17 4.5 50.5t3.5 48.5q2 18 7 91q3 40 3 44 q7 87 8 127q1 19 2.5 50.5t1.5 41.5q2 54 3 80t1 92q2 46 3 81q1 23 1 83q0 1 0.5 9t1 24.5t0.5 34.5q1 41 1 140q0 24 -0.5 50t-1.5 57.5t-1 49.5q-1 75 -8 124q-2 3 1 6l5 5q2 2 0 2h-1q-1 0 -2.5 -0.5t-4 -1t-4.5 -0.5q-44 -18 -91 -75q-46 -56 -88 -133 q-40 -72 -79 -162q-33 -75 -62 -159q-26 -73 -39 -126q-13 -52 -9 -62q-20 -9 -45 -11q-10 -1 -16.5 7.5t-8.5 25.5z" />
<glyph unicode="N" horiz-adv-x="1138" d="M-119 641q16 65 49 161q27 79 70 176q38 85 83 173q43 82 90 148q48 67 92 105q46 40 89 40h8q39 0 58 -36q22 -42 29 -97q6 -46 6 -94v-25q-2 -82 -2 -100v-85v-123q0 -91 -1 -138q0 -22 -0.5 -65.5t-1.5 -63.5q-1 -39 -1 -97v-43q4 4 13 44q11 50 22 96q16 67 31 120 q21 72 36 117q5 20 13 49q11 41 33 89q21 46 54 81q26 27 60 27q10 0 20 -2q4 1 9 1q33 0 56 -55q28 -64 47 -161q19 -100 33 -224q5 -44 12.5 -121.5t11.5 -111.5q6 -56 21 -193q9 -83 19 -104q18 -24 41 -24q20 0 45 18q56 40 121 121q5 -7 5 -27q0 -15 -8 -40 q-8 -22 -35 -59q-23 -31 -73 -73q-41 -21 -74 -21q-25 0 -46 12q-45 26 -62 89q-5 21 -12 94q-3 25 -9.5 82.5t-9.5 89.5q-18 166 -22 205q-11 95 -26 197q-14 94 -28 147q-8 29 -15.5 42t-14.5 11q-13 8 -27 -11q-16 -21 -30 -56q-16 -41 -30 -86l-31 -99q-17 -58 -27 -91 q-17 -61 -19 -66q-12 -38 -35 -127q-12 -45 -26 -123q-13 -74 -23 -149q-11 -83 -18 -199q-10 -1 -19 -1q-26 0 -35 11q-12 15 -35 27q0 10 2 124q1 57 1 194q0 146 1 225t1 220q0 4 3 43q4 49 5 95q0 15 1.5 56.5t2.5 65.5q1 29 1 56q0 39 -2 72q-3 65 -10 109 q-8 48 -24 69q-7 4 -15 4q-19 0 -43 -23q-33 -32 -73 -93q-40 -62 -78 -139q-42 -85 -72 -158q-29 -71 -56 -149q-25 -73 -32 -112q-7 -18 -19 -29q-14 -12 -28 -18q-16 -6 -27 -5q-15 2 -20 11z" />
<glyph unicode="O" horiz-adv-x="706" d="M-66 1356q184 -7 320 -37q127 -28 216 -70q84 -40 132 -88q49 -49 70 -90q22 -43 27 -78q2 -12 5 -28.5t3 -20.5q9 -66 9 -131q0 -49 -5 -97q-11 -106 -43 -213q-29 -98 -76 -189q-45 -87 -94 -151q-51 -66 -98 -106q-50 -42 -85 -49q-40 -6 -70.5 -6t-51.5 6 q-42 12 -82 62q-40 53 -61 138q-23 94 -31 185q-9 99 -9 198t6 179q4 37 11 93.5t8 63.5q6 49 17 114q9 54 21 104q3 12 12 53t15 66q-28 2 -57 12q-35 13 -53 23q-25 14 -40 29q-16 16 -16 28zM100 532q4 -65 14 -150q9 -80 28 -140q20 -64 54 -104q33 -38 86 -38h3 q5 -1 9 -1q31 0 63 23q36 25 70 67t65 97q31 56 54 109q22 50 42 106q19 52 26 83q17 70 20 134q1 21 1 40q0 46 -5 85q-7 53 -20 106t-26 77q-40 77 -150 141q-109 64 -258 74q-7 -26 -14 -73q-1 -7 -7.5 -48.5t-10.5 -67.5q-11 -78 -17 -143q-5 -51 -15 -147 q-8 -81 -11 -132q-2 -33 -2 -62q0 -19 1 -36z" />
<glyph unicode="P" horiz-adv-x="706" d="M-17 1414q1 1 17 15q4 1 10 1q21 0 67 -14q68 -21 143 -49q76 -29 178 -76q111 -51 185 -90q96 -50 159 -92q73 -48 104 -85q30 -24 42 -57q8 -21 7 -45q0 -11 -1 -23q-5 -35 -26 -70q-22 -36 -51 -65q-31 -30 -73 -61q-46 -34 -91 -59q-53 -29 -106 -47 q-57 -19 -121 -24q3 -21 10 -74.5t11 -84.5q14 -95 20 -162q9 -92 10 -141v-31q0 -43 -4 -67q-3 -17 -9 -23q-5 -5 -11 -5h-4q-20 5 -54 64q0 146 -13 267q-14 133 -34 253q-44 0 -92 16q-41 14 -82 35q-37 19 -58 40q-22 22 -22 36q10 -3 45 -10q36 -7 65 -11q50 -7 67 -8 q35 -3 55 -3q-12 92 -24 165q-4 22 -11 70.5t-11 73.5t-12 74t-11 68q-7 40 -21 163q-55 23 -128 49q-63 22 -124 51q-1 4 -3.5 10t-3.5 8q-1 4 -1 7q0 4 7 11zM309 1249q5 -43 12 -93q2 -11 7.5 -51.5t9.5 -65.5q3 -20 7 -44t10 -57.5t9 -54.5q4 -24 15.5 -96.5 t19.5 -118.5q100 0 171 20q78 22 126 57q52 38 75 86q17 35 17 75q0 14 -2 28q-5 42 -55 83q-47 39 -124 82q-72 41 -153 78q-87 40 -145 72z" />
<glyph unicode="Q" horiz-adv-x="786" d="M8 1384v64q1 0 67 -15q61 -14 133 -38q78 -26 175 -72q92 -43 195 -115q107 -77 161 -156q55 -80 76 -162q14 -52 14 -106q0 -28 -4 -57q-11 -83 -34 -158q-15 -44 -48 -108q-34 -67 -62 -109q-42 -63 -70 -100q-44 -57 -68 -82q8 -56 28 -100q22 -48 44 -79 q25 -36 48 -56q22 -20 42 -31q43 -25 89 -25h7q47 1 96 25q1 -8 1 -13q0 -11 -4 -15q-8 -8 -9 -11q-68 -33 -121 -33q-14 0 -26 2q-63 10 -113 51q-47 39 -85 100q-40 65 -61 111q-15 -12 -32 -28q-26 -25 -59 -41q-39 -19 -82 -25q-9 -1 -19 -1q-37 0 -78 19 q-53 35 -86 118q-32 79 -47 204q-13 104 -13 239v36q1 142 19 337q2 19 5 60q6 91 7 106l9 120q3 41 12 101q-16 8 -34 18q-9 5 -25 11q-11 4 -21 7q-4 1 -13 3t-14 4zM147 694q0 -24 1 -59q1 -51 3 -119q2 -85 5 -127q5 -64 10 -88q11 -63 25 -107q15 -45 57 -75 q28 -21 56 -21h5q30 2 59 16q29 15 48 32q17 16 30 36q-8 31 -17 88q-5 28 -11 87q-1 8 -3.5 36t-4.5 41q-6 48 -7 60q20 0 43 -14q17 -10 50 -23q4 -32 6 -53q1 -7 2.5 -19t1.5 -18q2 -20 6 -40q1 -5 5 -24.5t7 -32.5q31 35 82 108q48 69 85 162t44 196q1 15 1 30 q0 92 -42 182q-23 44 -64 85q-46 46 -101 85q-64 46 -116 78q-43 27 -111 64q-50 27 -84 42t-36 15q-3 -29 -10 -130q-6 -91 -12 -178q-6 -91 -9 -180q-4 -114 -4 -135z" />
<glyph unicode="R" horiz-adv-x="1132" d="M-102 1329q25 4 60 4q14 0 29 -1q72 -2 110 -3q56 -1 109 -6t85 -6q250 -28 400 -77q144 -47 212 -101q63 -51 63 -102q0 -55 -46 -95q-29 -34 -100 -69q-64 -32 -151 -62q-85 -29 -166 -50q-98 -25 -141 -34q21 -55 50 -86q57 -60 73 -76l117 -91q72 -54 93 -69 q53 -36 90 -58q72 -42 108 -62q70 -28 127 -47q47 -16 70 -20q27 -5 34 -5q11 0 23 -6q1 -2 1 -3q0 -4 -4 -8q-5 -5 -16 -7q-25 -5 -53 -5q-31 0 -62 3q-28 3 -46 8q-39 10 -72 22q-46 17 -96 40t-124 68q-75 45 -153 107q-29 23 -63 46q-33 23 -49 34q-27 20 -43 29 q2 -9 5.5 -33t5.5 -38q8 -49 15 -103q3 -22 9.5 -63.5t8.5 -55.5q16 -106 17 -117q3 -24 16 -98q6 -35 15 -62q-18 -7 -36 -7l-24 3q-28 7 -43 6q-8 135 -27 285q-21 158 -32 330l-1 3q0 -1 0.5 -2.5t1.5 -2.5l-5 16q-27 36 -36 46q-18 20 -26 28q-4 4 -12.5 13t-13.5 14 t-41 49q6 8 32 14q31 7 56 16q-9 58 -16 130q-2 22 -6.5 62t-6.5 56l-12 114q-2 21 -14 120q-19 0 -96 3q-97 4 -173 5q-19 12 -25 17q-6 6 -6 23q0 7 1 17zM289 1251q12 -147 16 -204q6 -92 27 -256q69 12 161 39q71 21 178 60q86 32 144 65q59 34 57 63v18q-8 31 -65 64 q-56 32 -142 61q-90 30 -185 53q-107 26 -191 37z" />
<glyph unicode="S" horiz-adv-x="940" d="M-13 1110q14 68 43 110q31 46 65 68q40 27 59 33q41 13 95 25q34 7 69 7q14 0 28 -1q51 -5 99 -28q54 -26 102 -73q20 -45 23 -53q6 -16 10 -41q-9 8 -24.5 20t-18.5 15q-8 7 -37 26q-16 11 -41 19q-26 9 -53 14q-33 4 -64 4q-48 0 -91 -10q-75 -17 -123 -52 q-50 -37 -71 -88q-10 -26 -10.5 -54.5t10.5 -59.5q21 -64 70 -130q42 -57 107 -122q51 -51 130 -111q101 -77 131 -99q36 -27 115 -83q63 -45 82 -63q57 30 119 55t115 45h12q5 -1 5 -5q0 -3 -3 -7q-19 -17 -44 -35q-9 -7 -27 -20t-25 -18t-25 -18t-27 -20q-8 -6 -24 -16.5 t-23 -15.5q60 -60 78 -108q10 -25 10 -50q0 -22 -8 -44q-16 -46 -67 -94q-54 -51 -133 -104q-45 -32 -115 -63q-63 -28 -114 -32q-7 -1 -14 -1q-42 0 -70 21q-24 18 -24 60q0 15 3 32q33 111 121 205t202 190q0 7 -40 35q-13 10 -47 34.5t-55 39.5q-65 47 -137 104 q-81 65 -144 125q-70 67 -121 137q-55 75 -72 141q-16 58 -16 105q0 26 5 49zM379 -45q-1 -4 -1 -7q0 -10 11 -17q12 -7 40 -8q3 0 7 1q32 1 83 20q56 20 120 58q52 35 79 76q29 43 33 81q1 7 1 14q0 31 -15 59q-18 34 -61 55q-21 -11 -69 -48q-50 -39 -98 -87 q-49 -49 -89 -103q-39 -53 -41 -94z" />
<glyph unicode="T" horiz-adv-x="522" d="M-407 1255q-1 2 -1 4q0 9 11 19q13 13 47 25q126 23 284 44q84 11 271 30q178 18 268 27q146 15 279 34q10 0 23 -12q16 -14 23 -26t13 -31q1 -5 1 -9q0 -8 -5 -12q-20 1 -40 1q-50 0 -103 -4q-28 -2 -146 -14q-70 -7 -139 -18q-116 -18 -123 -19q6 -156 12 -309 q4 -102 16 -310q10 -179 22 -319q15 -175 34 -336q0 -8 -14 -14q-15 -6 -31 -6q-15 0 -32 5q-14 4 -19 22q-12 156 -15 221q-5 109 -12 251q-8 170 -13 254q-2 31 -16 232q-7 94 -17 184q-9 80 -19 111q-128 0 -251 -14q-252 -29 -255 -29q-20 -4 -35 2t-18 16z" />
<glyph unicode="U" horiz-adv-x="997" d="M41 1327q0 11 6 21t45 10q12 -2 20 -20q7 -17 10 -43q4 -33 5 -54q1 -10 2.5 -28t1.5 -27q4 -32 12 -125q5 -67 20 -212q24 -243 25 -249q19 -167 29 -234q17 -120 29 -172q14 -60 24 -60q1 0 2 1q10 -4 20 -4q33 0 64 38q42 50 76 132q37 90 64 194q27 105 46 220 q15 94 24 210q3 44 3 83q0 44 -4 82q-1 14 12 20t29 6t33 -6q15 -6 20 -18q0 -80 -4 -164q-5 -95 -6 -199q-2 -140 -2 -209q0 -110 7 -191q8 -91 25 -151q18 -64 50 -84q25 -8 49 -8q27 0 51 10q44 18 79 51q34 33 57 69q8 13 18.5 30t13.5 22q8 18 13 2q1 -4 1 -10 q0 -14 -7 -35q-27 -46 -65 -98q-35 -48 -82 -85q-42 -33 -92 -41q-7 -1 -14 -1q-41 0 -83 35q-24 16 -41 63q-20 55 -31 113q-13 66 -17 133q-3 42 -3 76q0 27 2 49q-61 -174 -107 -266q-44 -89 -78 -127q-33 -38 -54 -39q-28 -2 -36 -2q-30 -2 -41 -2q-19 0 -35 10 q-15 10 -29 34q-15 27 -26 68q-36 300 -62 586q-24 267 -69 596z" />
<glyph unicode="V" horiz-adv-x="571" d="M-115 1110q0 12 14 15q15 3 29 2q16 -1 30 -6q13 -4 13 -11q19 -59 85 -253q30 -90 77 -219q35 -97 86 -222q46 -113 113 -262q65 249 107 471q48 254 70 411q28 199 38 298q12 118 16 132q0 10 12 15q11 4 27 4q13 0 26 -5q11 -4 11 -14q-5 -40 -24 -166 q-13 -85 -42 -278q-25 -166 -54 -331q-34 -198 -58 -322t-57 -254q-26 -102 -46 -125q-26 -8 -37 -8h-4q-7 1 -22 30q-14 37 -47.5 126t-52.5 140q-108 284 -115 303q-19 52 -56 149t-54 143q-46 124 -85 237z" />
<glyph unicode="W" horiz-adv-x="952" d="M12 971v8q0 31 26 47q30 18 58 8q10 -2 17 -67q8 -67 15 -163q0 -5 14 -212q8 -117 15 -212q7 -98 12 -162q4 -64 11 -64q6 -15 26 16q18 28 45 91q21 49 55 143q30 82 60 171q16 48 56 176q10 33 26.5 87t20.5 69q11 24 18 31q8 8 35 2q15 -6 23 -31q8 -24 12 -61 q8 -70 10 -82q5 -38 19 -90l10 -37q9 -37 16 -60q16 -59 36 -120q15 -48 41 -118q19 -52 46 -89q12 -10 30 42q19 54 36 140q18 90 36 199q15 92 29 215q15 131 18 189q2 40 2 69q0 35 -3 55q0 25 3 35l5 15q2 6 2 10q0 5 -4 16q-4 7 3 19q9 14 18 20q14 9 25 10h4 q10 0 19 -8q7 -9 7 -36q0 -28 -3 -71q-1 -15 -4.5 -48.5t-4.5 -51.5q-6 -74 -7 -125q-18 -122 -30 -215q-18 -131 -31 -218q-16 -106 -36 -208q-21 -108 -40 -180q-5 -12 -14 -21q-10 -10 -23 -13t-24 4q-13 8 -23 30q-46 83 -71 136q-31 66 -54 131q-29 84 -49 152 q-9 32 -30 104t-27 93q-20 -60 -65 -194q-42 -124 -70 -200q-42 -114 -72 -181q-38 -86 -72 -137q-23 -30 -38 -41q-11 -8 -20 -8q-3 0 -6 1q-11 3 -19 15q-5 8 -11 22q-21 206 -32 342q-10 120 -26 293q-12 128 -24 214t-27 104z" />
<glyph unicode="X" horiz-adv-x="649" d="M-68 1096q-2 8 -2 12.5t2 6.5q5 5 14 2q7 -2 19 -11q11 -8 19 -21q26 -35 63 -95q8 -13 26.5 -44t29.5 -48q34 -54 70 -105q65 -91 101 -138q7 28 26 97.5t27 101.5q5 22 18 72.5t19 73.5q16 66 24 106q9 44 15 78q4 19 16 31t23 15q6 2 11.5 2t9.5 -2q8 -3 8 -9 q-35 -174 -72 -342q-50 -226 -71 -310q47 -67 56 -80q60 -81 66 -89q43 -58 80 -103q9 -12 101 -123q13 -36 13 -56q0 -12 -4 -18q-12 -17 -28 -16q-40 44 -59 67q-10 12 -65 74q-18 20 -79 96q-68 85 -102 130q-18 -89 -38 -170q-39 -153 -47 -183q-18 -67 -45 -159 q-20 -68 -32 -101q-23 -16 -39 -18h-3q-13 0 -13 10q7 30 44 186q17 74 30 137q5 23 12.5 63.5t9.5 50.5q10 54 27 126q11 49 15 78q1 8 4 23.5t4 21.5q2 18 0 23q-10 16 -100 162q-40 64 -84 142q-39 69 -68 128q-33 67 -52 125z" />
<glyph unicode="Y" horiz-adv-x="419" d="M-94 1272q0 10 11 14t28 4q15 0 33 -3q4 -1 10.5 -2t11 -2t8.5 -1q21 -208 73 -331q52 -122 105 -191q63 -79 138 -113q12 71 21 199q7 112 9 216v96.5v82.5q-1 61 -4 92q15 21 32 21q18 0 52 -15q1 -51 1 -89v-36q-2 -95 -5 -144q-6 -100 -9 -151q-4 -65 -11 -144 q-2 -21 -6 -61.5t-6 -59.5q-4 -51 -11 -83q-18 -104 -45 -235q-30 -141 -55 -247q-26 -108 -56 -208q-28 -92 -47 -117q-8 -1 -17 -1q-15 0 -35 4q-27 6 -15 28q36 80 76 205q26 90 64 250q32 138 56 344q-35 0 -65 15q-29 15 -58 37q-27 21 -51 48t-45 51q-31 40 -62 107 q-35 75 -59 143q-24 69 -44 151q-16 67 -23 126z" />
<glyph unicode="Z" horiz-adv-x="808" d="M-23 810q0 12 7 19q23 19 92 89q84 87 137 137q102 98 155 146q86 78 146 118q31 23 50 29q12 4 21 4q6 0 10 -2q10 -4 15 -15q4 -9 4 -18q-6 -96 -28 -206q-15 -76 -54 -234q-33 -133 -64 -240q-54 -186 -64 -219q-16 -54 -50 -175q-17 -62 -24 -106q92 64 138 97 q109 78 127 91q51 35 127 90q46 33 138 97q32 18 32 11q0 -6 -13 -31q-56 -42 -157 -124q-17 -14 -159 -134q-25 -21 -74 -62.5t-73 -61.5q-71 -60 -119 -98q-40 -21 -61 -21q-4 0 -8 1q-15 3 -15 35q0 16 4 39q33 140 80 282q30 91 88 277q39 126 80 284q37 142 55 308 q0 18 -49 -18q-56 -41 -122 -104q-81 -78 -155 -157q-93 -99 -151 -172q-22 -6 -37 0q-13 5 -21 18t-8 26z" />
<glyph unicode="[" horiz-adv-x="473" d="M139 1503q27 12 49 2l150 4q2 -6 14 -39q3 -10 5 -26q1 -6 -1.5 -8t-7.5 0q-16 4 -59 3t-72 -3q0 -69 1 -139t1 -247q0 -198 1 -308t1 -320q0 -199 1 -284t1 -197q28 4 73 6q58 2 77 2l-15 -72q-26 -10 -72 -10q-50 0 -81 4q-15 0 -24 1q-14 2 -19 5q2 20 2 90v192 q0 163 -1 258q-1 143 -3 291q-1 51 -2.5 147t-1.5 141q-1 53 -2.5 139t-1.5 113q-1 64 -6 182q-3 69 -7 73z" />
<glyph unicode="\" horiz-adv-x="704" d="M156 1393q0 13 9 27t23 25t30 16q15 5 28 3q18 -118 51 -276q27 -129 71 -326q38 -168 78 -333q43 -175 75 -299q35 -134 57 -222q6 -25 12 -49.5t9.5 -37.5t4.5 -17q-10 -15 -29 -15q-14 0 -40 7q-11 15 -30 84q-14 49 -46 174q-28 110 -57 232q-9 39 -29.5 126.5 t-31.5 134.5q-12 49 -32.5 136.5t-28.5 123.5q-19 82 -56 231q-32 129 -43 172q-18 69 -25 83z" />
<glyph unicode="]" horiz-adv-x="507" d="M129 1407l14 72q26 10 73 10q50 0 81 -4q15 0 24 -1q14 -2 19 -5q-2 -20 -2 -89q0 -113 -1 -189t-1 -255q0 -190 1 -287q0 -48 0.5 -142t1.5 -141q2 -140 3 -248q0 -32 1 -65t2 -65.5t1 -47.5q1 -68 6 -73q-27 -12 -49 -2l-149 -4q-3 9 -8.5 22t-6.5 17q-3 11 -5 25 q-1 6 1.5 8.5t7.5 1.5q17 -5 60 -3q41 1 71 3v136q0 150 1 244t1 302q0 111 2 313q1 101 1 279v196q-28 -4 -73 -6q-58 -2 -77 -2z" />
<glyph unicode="^" horiz-adv-x="1312" d="M223 695q-1 45 23 91q40 75 101 82q65 8 125 -18q64 -27 116 -75q53 -49 74 -87q39 119 90 194q50 74 103 110t104 35q53 -2 96 -34q32 -24 37 -78q4 -49 -13 -124t-49 -156q-33 -84 -72 -168q-42 -89 -79 -163q-25 -49 -76 -140q-20 -36 -58 -99l-24 -40l-59 -84 q22 66 10 139q-10 60 -59 138q-49 79 -164 155q-15 10 -39 28q-27 21 -58 52q-30 30 -60 69q-30 38 -48 83q-20 47 -21 90zM299 617q18 -63 70 -111q30 -30 60 -54q20 -16 58 -44q78 -60 139 -124q67 -70 95 -145q83 136 150 271q69 138 103 233q39 109 46 176q8 72 -21 96 q-22 16 -35 23q-19 10 -36 10q-60 0 -117 -78q-58 -79 -104 -225l-39 -104l-33 98l-1 3q-2 3 -5.5 9t-6.5 12q-13 22 -37 48q-23 24 -68 50q-43 25 -105 32q-6 6 -15 6q-40 0 -66 -23q-25 -22 -30 -45q-20 -48 -2 -114z" />
<glyph unicode="_" horiz-adv-x="815" d="M70 -207q-11 29 4 45t47 15q63 0 116 1q27 1 83.5 1.5t85.5 0.5q30 0 88.5 0.5t87.5 1.5q57 1 139 1q13 0 8 -20q-5 -22 -8 -27h-67q-30 0 -122 -2q-21 0 -70.5 -2t-76.5 -3q-28 -1 -77 -2.5t-68 -1.5q-27 -1 -68.5 -2.5t-46.5 -1.5q-42 -1 -55 -4z" />
<glyph unicode="`" horiz-adv-x="1705" />
<glyph unicode="a" horiz-adv-x="595" d="M-31 51q-8 26 -7.5 56.5t7.5 63.5q16 70 43 120q44 73 90 135q41 54 101 104q53 44 111 63q38 13 78 13q22 0 44 -4q-2 -12 -9 -51q-8 -40 -15 -91q-13 -91 -15 -110q-5 -50 -7 -108v-20q0 -38 6 -67q8 -37 24 -44q17 -9 35 -8q30 0 61 23q47 36 115 116q3 0 3 -5 q0 -4 -2 -12q-4 -15 -17 -36l-22 -38q-13 -21 -18 -26q-14 -18 -47 -46q-31 -26 -65 -41q-30 -13 -59 -13h-8q-31 1 -52 36q-10 24 -12 61v36v37q1 37 6 67l6 45q-45 -82 -98 -151q-55 -71 -109 -113q-53 -41 -98 -44h-5q-42 0 -65 52zM37 150q-1 -12 -1 -22q0 -34 15 -46h4 q20 0 62 31q45 34 94 97q47 60 89 145q40 81 52 175h-23q-15 0 -36 -12q-77 -50 -133 -120q-57 -71 -86 -133q-31 -68 -37 -115z" />
<glyph unicode="b" horiz-adv-x="555" d="M-37 1262q-2 22 -2 35q0 19 4 18q6 0 16 5q7 3 15 3h4q10 -1 18 -18q9 -19 13 -58q1 -13 8 -125q5 -80 9 -158q3 -52 11 -178q2 -33 6.5 -93.5t6.5 -85.5q10 -143 11 -162q5 -77 9 -128q5 21 25 67q14 34 46 88q27 47 64 88q39 44 80 65q30 13 60 15q22 1 42 -7 q12 -5 28 -21q13 -13 18 -22q19 -47 19 -103q0 -16 -2 -34q-8 -79 -39 -155q-32 -77 -87 -140q-56 -64 -129 -92q-40 -16 -59 -18q-12 -1 -37 -1q4 -27 2 -41q-1 -10 -6 -12q-7 -7 -27 -9q-5 -1 -11 -1q-13 0 -26 4q-5 68 -22 309q-4 56 -9 131q-2 24 -6 68t-5 63 q-5 63 -9 120q-5 58 -6 99q-1 77 -9 172q-1 16 -6.5 80t-7.5 95q-1 18 -4.5 67t-5.5 70zM119 119q13 -3 26 -3q28 0 58 14q42 20 80 60q32 33 66 91q27 46 47 101q20 54 20 98q0 40 -17 67q-12 20 -32 20q-5 0 -11 -1q-31 -8 -47 -23q-27 -16 -60 -58q-35 -45 -60 -99 q-28 -61 -47 -128q-18 -64 -23 -139z" />
<glyph unicode="c" horiz-adv-x="489" d="M4 189q6 69 31 145q24 73 61 133q38 61 72 90q52 36 91 43q21 4 42 4t41 -4q2 -13 -19 -25q-32 -18 -55 -35q-29 -21 -71 -63q-41 -41 -70 -102q-30 -62 -47 -121q-6 -22 -6 -46q0 -34 12 -75q5 -13 17 -25q13 -13 34 -14q44 7 80 23q42 18 66 35q40 28 59 44t59 48 q57 55 75 74q17 18 48 54q16 18 32 31q14 11 28 7q-5 -13 -46 -78q-34 -55 -99 -126q-60 -66 -140 -125q-78 -58 -172 -73q-33 1 -60 8q-23 6 -44 50q-20 43 -20 97q0 12 1 26z" />
<glyph unicode="d" horiz-adv-x="638" d="M-42 105q3 42 25 91q21 47 55 91q41 53 68 84q24 27 66 67q33 32 45 41q29 18 48 30q4 3 35 18q16 8 32 11q15 3 41 1q-3 33 -5 112q-1 33 -1 66t1 66q2 84 4 124q3 58 9 88q5 48 19 95t39 95q22 43 53 82q29 37 62 51q22 10 45 10q12 0 25 -3q35 -7 70 -51 q29 -35 29 -87v-110q-3 -18 -14 -78q-2 -9 -18 -77q-10 -44 -15 -64q-2 -9 -8 -33q-12 -35 -33 -90q-20 -52 -48 -115q-24 -53 -63 -121q-37 -65 -71 -104q0 -36 7 -103q13 -126 17 -157q15 -120 20 -165q10 -87 11 -126q-5 -5 -9 -5q-6 0 -10 9q-2 4 -24 50q-14 59 -20 98 q-6 33 -13 91q-9 70 -13 97q-8 57 -22 117q-34 -43 -93 -112q-50 -58 -113 -110q-61 -50 -114 -68q-19 -6 -37 -6q-34 0 -60 24q-22 30 -22 67v9zM33 126q0 -14 3 -26t12 -21q6 -6 18 -6q5 0 12 1q15 5 34 16q4 2 8 5t8.5 7t7.5 6q16 12 25 19q5 3 16 12.5t18 14.5 q32 34 70 69q45 41 74 82q32 44 42 88q2 10 2 19q0 35 -29 69q-16 0 -29 -4q-17 -5 -38 -19q-22 -15 -55 -43q-20 -17 -76 -75q-54 -56 -81 -106q-25 -46 -42 -89v-19zM426 682q0 -31 3 -61q3 -29 8 -53q4 -19 9 -32q3 -9 5 -9q1 0 2 3q36 39 61 87q34 66 55 110 q27 55 48 141q23 95 30 169q4 42 4 78t-4 67q-7 60 -41 65q-5 1 -9 1q-24 0 -44 -22q-23 -24 -45 -64q-18 -33 -35 -81q-13 -39 -20 -75q-10 -56 -12 -74q-2 -23 -4 -69q-1 -36 -3 -78q-1 -33 -8 -103z" />
<glyph unicode="e" d="M14 240q1 67 41 180q25 52 58 97q30 40 71 63q1 0 35 11q17 5 31 6q9 0 16 -3h4q57 0 87 -31q17 -18 18 -54q0 -30 -13 -73q-39 -106 -103 -174q-67 -72 -153 -133q21 -53 62 -59q10 -1 20 -1q32 0 66 14q45 20 88 52q32 25 70 58q44 38 68 62q33 33 55 62q7 6 7 -4 q0 -4 -1 -12q-2 -12 -6 -29q-2 -6 -7 -14.5t-6 -10.5q-7 -13 -17 -25q-16 -18 -30 -32q-9 -9 -45 -49q-40 -38 -59 -56q-26 -25 -61 -48q-33 -22 -69 -29q-18 -4 -40 -4t-47 4q-45 17 -66 31q-26 18 -38 34q-14 19 -19 31q-7 17 -8 25q-9 35 -9 90v21zM94 217q30 17 63 40 q37 26 67 59q33 36 56 75q23 40 25 86q3 13 3 23q0 13 -5 20q-5 6 -8 6q-14 7 -28 7q-22 0 -42 -17q-35 -27 -63 -76q-29 -50 -48 -109q-20 -62 -20 -114z" />
<glyph unicode="f" horiz-adv-x="448" d="M-41 505q0 5 5 18q4 11 12 22q2 3 4.5 6t4 5t1.5 3q11 4 71 10q20 2 63.5 7.5t67.5 7.5q-4 85 -4 158q0 95 7 170q13 131 39 214q25 80 59 122q33 40 61 52q39 16 73 16q30 0 55 -12q55 -24 93 -69q38 -44 53 -87q8 -24 8 -38q0 -10 -5 -14h-32q-10 0 -12 1q-3 1 -3 3 l-2 6q-5 0 -12 19q-9 23 -19 42q-11 21 -32 42q-20 20 -46 20q-18 5 -35 5q-33 0 -59 -21q-37 -30 -61 -86q-21 -50 -34 -130q-13 -79 -17 -148q-5 -83 -5 -143q0 -54 -2 -112q40 2 65 3q8 0 24 0.5t23 1.5q7 0 20.5 0.5t19.5 1.5q12 1 41 1q9 -1 20 -12q7 -7 17 -23 q9 -14 11 -22q3 -10 -1 -10q-51 -8 -66 -9q-10 -1 -28 -2.5t-27 -1.5l-54 -3q-22 -1 -63 -3q1 -96 8 -187q1 -18 5.5 -73.5t6.5 -84.5q2 -26 5.5 -75t4.5 -71q6 -95 7 -152q-4 -15 -20 -15h-2q-6 0 -17.5 1t-17.5 2q-7 0 -9 2q-1 1 -3 18q0 5 -0.5 13t-1 20.5t-0.5 22.5 q0 6 -1.5 44t-2.5 66q-3 70 -9 184q-6 113 -18 279q-45 -4 -76 -6q-30 -2 -50 -3q-14 -1 -42 -1q-12 0 -52 -2q-14 0 -14 7z" />
<glyph unicode="g" horiz-adv-x="653" d="M-76 -631v18q0 72 29 144q32 78 78 145q46 68 88 111q58 60 59 61q36 38 48 50q9 9 44 37q5 4 21.5 17t26.5 21q7 5 27.5 22t33.5 28q9 58 10 103q1 27 1 55t-1 57q-37 -76 -79 -119q-44 -45 -76 -65q-36 -22 -55 -26l-17 -5q-43 -7 -63 -4q-22 3 -37 13q-12 8 -20 21 q-4 7 -11 25q-5 25 -5 51q0 29 6 58q12 59 34 108q23 52 49 94q27 44 49 70q9 9 19 21q12 15 40 39q23 21 61 44q37 23 83 41q43 9 87 9h9q51 -2 80 -23q-29 -10 -50 -16q-35 -9 -44 -13v-4q0 -6 4 -6q-7 1 -14 1q-36 0 -95 -30q-77 -39 -160 -141q-36 -51 -59 -99 q-20 -42 -30 -76q-9 -32 -9 -54q0 -19 2 -35q2 -9 14 -15q13 -6 31 -2q51 12 99 55q45 41 84 95q38 54 65 104q25 48 39 82q19 43 21 87q1 40 -3 40h3h5q2 0 1 -1q-2 -2 -13 -3q4 3 8 5l9 3q-2 2 1 5t7 3q0 5 10 9l12 4l6 4q2 1 4.5 2.5t4.5 2.5l2 1q2 2 5 2t11 -3 q6 -3 29 -9q-19 -52 -32 -120q-14 -72 -24 -142q-5 -36 -17 -137q-8 -72 -13 -101q17 16 48 39q42 30 62 45q37 24 78 51q1 -2 1 -5t-2 -9q-4 -10 -14 -23q-3 -4 -9.5 -11.5t-9.5 -11.5q-9 -12 -13 -16q-44 -49 -88 -95q-54 -56 -64 -68q0 -10 -1 -24t-1 -23q-4 -49 -4 -100 q0 -20 1 -41v-13q0 -64 -9 -129q-13 -86 -25 -132q-15 -54 -28 -82q-16 -33 -30 -53q-20 -28 -34 -49q-17 -23 -36 -38t-56 -39q-44 -27 -98 -43q-30 -9 -58 -9q-18 0 -36 4q-43 9 -73 46t-34 110zM1 -595v-9q0 -45 26 -88q33 -25 68 -25q21 0 43 9q63 25 112 73 q57 64 96 190q36 118 41 314q3 20 3 33q0 18 -5 24q-3 4 -8 4h-2q-55 -45 -90 -75q-23 -20 -47 -41q-97 -90 -147 -163q-47 -70 -64 -130q-23 -68 -26 -116z" />
<glyph unicode="h" horiz-adv-x="544" d="M2 1454q0 2 25 15q16 8 34 8q9 0 19 -2q3 -11 4 -53q2 -49 3 -117q1 -48 1 -163q0 -124 1 -188t1 -190v-173v-133v-73q22 99 65 166q42 66 76 70q10 2 19 2q28 0 44 -20q22 -26 35 -69q6 -21 26 -99q13 -53 36 -103q22 -49 62 -87q40 -39 106 -46q-49 -41 -88 -41h-7 q-43 5 -75 37q-33 33 -57 84q-26 56 -41 100q-18 55 -27 86q-11 39 -14 43q-12 17 -27 2q-13 -13 -29 -45t-29 -71q-15 -44 -24 -76q-7 -24 -16 -60l-6 -22q-5 -23 -10 -70q-5 -44 -6 -85q0 -21 -0.5 -40t0.5 -36q1 -35 6 -42q-14 0 -41 9q-30 10 -41 10v160v222 q0 168 -1 261q-2 186 -4 281t-8 283q-4 140 -12 265z" />
<glyph unicode="i" horiz-adv-x="256" d="M37 819q8 24 25 45t53 37q2 1 5 1q7 0 11 -5q6 -6 8 -20q4 -28 -8 -43q-23 -18 -29 -32t-28 -18q-16 2 -22 1q-4 -1 -8 8t-7 26zM53 598q11 6 14 12q6 10 11 15q6 5 16 10q5 2 11.5 2.5t15.5 -2.5q9 -85 14 -216q4 -118 15 -247q6 -51 16 -102q8 -39 12 -70 q-16 -3 -28 -3q-14 0 -23 4q-24 10 -35 17q-5 33 -9 109q-1 12 -4.5 71.5l-5.5 93.5q-2 31 -6 89t-5 84q-4 83 -9 133z" />
<glyph unicode="j" horiz-adv-x="319" d="M-178 -415q7 60 20 100q17 50 32 82q20 42 30 69q12 22 38 66q16 27 45 68q27 38 58 79q38 51 76 96q-4 28 -6 56q-3 15 -5 45q0 6 -4 35q-10 64 -13 80q-10 58 -15 86q-2 13 -16 76q-8 35 -13 50q13 36 33 51q25 18 41 27q9 -22 16 -59q13 -70 16 -90q7 -50 12 -99 q4 -43 11 -84q3 -15 7 -45q1 -11 8 -53q11 5 30 23q11 10 43 32q24 17 55 29q27 10 60 10h6q2 -2 8 -5t10 -7q3 -3 3 -6q0 -6 -15 -8q-24 -4 -59 -29q-36 -25 -66 -55t-52 -63q-21 -31 -21 -52q1 3 2.5 8t1.5 6q3 3 4 -2v-31q0 -64 3 -134q2 -43 2 -92q0 -60 -3 -130 q-5 -95 -16 -166q-9 -60 -22 -93t-30 -53q-1 -1 -15.5 -18t-23.5 -28q-16 -17 -48 -33q-31 -16 -85 -16q-104 0 -143 157q-3 33 -3 63t3 57zM-115 -352q-6 -44 -6 -82q0 -42 7 -76q13 -67 55 -96q18 -8 42 -11q8 -1 16 -1q16 0 30 4q52 24 76 96q25 74 32 165q6 71 6 142 q0 27 -1 53q-3 102 -3 193q-2 20 -4 19l-1 -1q-1 -1 -2.5 -2t-4 -3.5l-4.5 -4.5q-38 -39 -77 -91q-33 -44 -71 -104q-29 -47 -56 -105q-23 -51 -34 -95zM8 817q6 17 21 36q16 21 43 32h3q7 0 11 -5q5 -5 6 -17v-9q0 -17 -6 -27q-21 -19 -24 -26q-5 -11 -23 -13q-14 2 -19 1 q-4 -1 -7 6.5t-5 21.5z" />
<glyph unicode="k" horiz-adv-x="520" d="M4 1356q14 15 28 20q14 4 48 6q2 -125 2 -248.5t-2 -244.5q-2 -122 -2 -237.5t2 -225.5q37 29 74 66q38 37 72 75q36 39 59 65q26 29 30 30q15 -14 38 -28q6 -4 11 -6t7 -3t2 0q-53 -59 -107 -122q-56 -65 -127 -102q36 -8 85 -16q47 -8 76 -11q38 -4 84 -9q13 -1 50 -5 t60 -6q19 -23 24 -33q9 -20 17 -42q-65 12 -119 18q-32 4 -106 10q-38 3 -107 7q-27 1 -123 10v-53q0 -76 4 -133q3 -40 3 -76.5t-3 -69.5h-6q-8 0 -13 4q-8 6 -14 14q-2 2 -6 8.5t-7 9.5q-7 8 -20 13q3 117 3 229q0 150 -5 291q-5 171 -5 316q0 73 1 139q0 58 1 93t1 102 q0 37 -2 91q-1 37 -8 54z" />
<glyph unicode="l" horiz-adv-x="235" d="M-39 287l4 20q1 4 2.5 11t1.5 8q2 8 6 14q13 18 26 41q10 17 17 37q11 30 13 39q-1 23 -3 39q-1 11 -1 33q0 24 -1 36t-1 47v81v121q0 42 2 140q1 56 5 141q2 53 8 120q4 51 11 83q16 62 44 92q30 32 63 36q6 1 13 1q26 0 51 -17q31 -21 48 -67q19 -47 19 -116 q0 -64 -13 -157q-12 -86 -33 -177q-17 -73 -46 -179q-8 -30 -50 -163q-15 -46 -43 -127q0 -2 1 -8.5t2.5 -20.5t3.5 -28q9 -80 14 -125q9 -87 19 -159q12 -85 21 -162q3 -29 17 -135q3 -21 7 -45.5t4 -29.5q-3 0 -21 4q-6 1 -16 11q-8 8 -20 23q-4 6 -15 21.5t-17 22.5 q-27 192 -42 329q-18 167 -25 228q-38 -50 -53 -65q-17 -17 -21 -17t-4 6q0 5 2 13zM83 852q1 -90 3 -178q2 -112 2 -133q51 150 84 294q33 143 48 259q11 84 11 146q0 21 -1 39q-5 71 -29 73q-10 4 -19 4q-26 0 -43 -31q-22 -40 -36 -115q-12 -66 -17 -169q-3 -76 -3 -151 v-38z" />
<glyph unicode="m" horiz-adv-x="772" d="M0 33q4 23 7 103q3 78 6 175q3 99 6 201q1 29 3 89.5t3 88.5q0 19 10 22q4 1 9 1q6 0 12 -2q9 -3 23 -14q8 -6 15 -13q1 -16 1 -37q0 -43 -5 -108q-8 -98 -8 -230q8 33 24 78q13 36 38 91q18 40 47 86q22 35 51 64q23 23 47 23q23 0 41 -35q4 -9 7 -42q2 -24 5 -76 q1 -43 2 -101q1 -55 6 -112q18 45 42 99q27 61 50 98q28 45 58 69q19 16 40 16q12 0 25 -6q17 -6 23 -38q5 -27 10 -74q4 -39 9 -92q4 -46 20 -87q15 -39 41 -62q22 -19 54 -19q8 0 17 1q28 0 36 -1q13 -2 17 -3q4 -2 4 -5l-1 -13q-58 -29 -99 -29q-14 0 -25 3 q-48 14 -76 58q-27 44 -39 106q-10 51 -15 124q-2 14 -6.5 19.5t-11.5 3.5q-14 -5 -33 -31q-16 -23 -41 -67q-21 -37 -43 -85q-21 -45 -36 -87q-23 -64 -24 -68q-11 -18 -33 -11t-28 31q-9 38 -10 81q0 24 -0.5 48t0.5 49q1 17 2.5 49t1.5 47q0 23 0.5 42.5t-0.5 35.5 q-1 30 -9 45q-6 12 -22 -6q-36 -55 -65 -120q-27 -60 -52 -141q-23 -75 -38 -145q-14 -68 -19 -132q-11 -3 -20 -3q-19 0 -29 12q-13 16 -25 36z" />
<glyph unicode="n" horiz-adv-x="540" d="M23 639q0 18 9 18q7 0 20 -8q4 -2 12 -7.5t12 -8.5q13 -8 20 -8q0 -77 -1 -115q0 -19 -0.5 -56t-1.5 -55q0 -17 -0.5 -50.5t-1.5 -49.5q-1 -47 -3 -84q0 9 9 40t26 73q17 40 36 87q19 45 42 82q22 35 46 56q22 20 44 12q46 -21 63 -59q20 -44 27 -89q12 -79 16 -112 q7 -58 37 -129q12 -30 36 -45q21 -13 45 -20t35 -8q7 -1 9 -3q1 -1 1 -1.5t-1 -2.5q-38 -29 -69 -29q-10 0 -19 3q-36 12 -62 54t-42 100q-15 55 -30 113q-15 59 -24 92q-11 38 -22 38q-19 -2 -40 -35q-24 -37 -44 -82q-22 -48 -43 -107q-8 -21 -20.5 -58.5t-17.5 -51.5 q-16 -46 -28 -88q-10 -37 -12 -45q-28 0 -38 -2h-1q-7 0 -22 20q8 134 8 264q0 39 -1 77q-3 162 -9 280z" />
<glyph unicode="o" horiz-adv-x="405" d="M-29 578q13 8 17 12q16 11 22 24q36 -1 86 -11q48 -9 92 -24t83 -35q40 -21 63 -44q23 -22 28 -69q1 -13 1 -27q0 -35 -7 -74q-11 -58 -31 -114q-19 -54 -49 -105q-29 -50 -57 -78q-31 -31 -57 -31q-45 0 -76 22q-31 21 -49 52q-20 33 -28 64q-10 37 -11 59q-4 68 -4 123 q0 37 2 69q5 91 14 139q-8 14 -12 19l-12 15q-4 6 -15 14zM60 275q1 -53 9 -94q7 -38 15 -54q8 -10 16 -17q13 -11 26 -15q9 -3 18 -3q7 0 14 2q16 5 35 23q49 50 73 105q25 55 32 103q3 20 3 39q0 24 -5 46q-9 36 -30 53q-11 7 -27 17q-15 9 -29 14t-44 13q-8 2 -31.5 8.5 t-38.5 10.5q-20 -64 -28 -131q-8 -72 -8 -112v-8z" />
<glyph unicode="p" horiz-adv-x="604" d="M-18 627h12q26 0 35 -7q8 -6 24 -22q12 -39 24 -125q4 -32 25 -233q4 20 22 57q18 38 46 79q30 44 66 83q39 43 77 69q39 27 83 40q16 5 32 5q25 0 51 -12l20 -10q8 -4 21 -19q11 -12 18 -31q7 -18 7 -50q-5 -109 -53 -193q-49 -85 -118 -145q-68 -59 -143 -88 q-58 -23 -102 -23q-12 0 -23 2q0 -154 4 -332q1 -36 4 -218v-74v-54q-1 -42 -6 -59q-4 -16 -16 -16h-3q-12 1 -34 6q-4 -5 -5 4q-1 3 -1 6q-2 16 -3 51q-1 25 -1 115q0 27 -1 70q-1 23 -1.5 78.5t-0.5 83.5q-2 145 -4 214q-4 148 -7 227q-4 108 -9 205q-4 75 -14 146v3 t-0.5 4t-1 5.5t-0.5 7.5l-5 41q-1 11 -8 53q-4 22 -11 56zM109 100q7 -9 24 -14q7 -3 20 -3q6 0 14 1q22 2 54 16q95 39 149 101q55 63 79 122q24 60 24 107t-18 59q-23 16 -46 16q-16 0 -32 -9q-36 -20 -72 -50q-19 -18 -51 -58q-33 -42 -66 -93q-29 -45 -56 -104 q-23 -50 -23 -91z" />
<glyph unicode="q" horiz-adv-x="622" d="M63 165q7 54 35 118q28 66 72 127q46 64 102 110q59 48 127 69q37 11 77 11q33 0 69 -8q-5 -35 -9 -100q0 -3 -4 -58t-6 -87q-3 -56 -7 -163q-3 -84 -3 -153q0 -27 -2 -119q-1 -61 -3 -148v-41q0 -46 1 -116q1 -68 10 -152q7 -67 25 -129q17 -59 43 -88q-12 -7 -27 -7h-4 q-20 2 -36 7q-12 4 -30 14q-14 8 -14 15q-14 0 -20 76q-5 69 -7 204q-1 65 -1 139t1 157q1 111 1 350q-45 -51 -96 -92q-53 -43 -104 -63q-40 -16 -77 -16q-12 0 -24 2q-50 8 -82 56q-10 19 -10 49q0 17 3 36zM132 173q-1 -11 -1 -20q0 -22 8 -32q18 -29 53 -29q14 0 30 4 q60 17 116 76q57 60 99 153q37 81 37 177q0 14 -1 28q-7 1 -15 1q-44 0 -87 -21q-49 -24 -90 -65q-43 -43 -73 -90q-30 -48 -51 -97t-25 -85z" />
<glyph unicode="r" horiz-adv-x="430" d="M55 650q0 6 4 8q2 1 4 1q5 0 12 -3q40 -17 44 -19l6 -39t6 -36q4 -26 6 -52q0 -7 1.5 -25t2.5 -28q2 -31 6 -76q17 43 46 87q28 42 68 69q42 29 100 42q45 10 104 10q18 0 37 -1q0 -16 -12 -28q-11 -11 -52 -17q-60 -11 -103 -40q-46 -32 -76 -69q-31 -38 -51 -83 q-21 -47 -32 -81q0 -5 -2 -22.5t-3 -29.5q-2 -24 -4 -72q0 -12 -0.5 -36.5t-1.5 -36.5q-1 -36 3 -57q2 -11 -9 -15q-16 -6 -26 -7q-6 -1 -11 -1q-10 0 -16 3q-12 5 -12 14q1 44 1 85q0 155 -12 279q-5 55 -15 146z" />
<glyph unicode="s" horiz-adv-x="544" d="M-37 430q-2 14 -2 27q0 32 13 60q19 41 58 74q38 32 88 47q31 10 66 10q19 0 39 -3q52 -8 85 -22q37 -16 54 -32q16 -14 30 -36q5 -7 12.5 -19.5t9.5 -15.5q-2 -9 -20 2l-33 21q-46 29 -109 35q-19 2 -37 2q-42 0 -81 -10q-55 -14 -87 -46q-22 -22 -21 -50q0 -14 5 -30 q17 -48 58 -82q44 -36 93 -62q52 -27 103 -50q51 -22 84 -45q58 32 69 38q43 23 52 28q20 12 46 25q7 4 25 12.5t29 13.5q6 2 7 2q2 0 2 -1.5t-2 -4.5q-3 -4 -16 -16q-7 -6 -42 -32q-9 -6 -54 -34q-14 -9 -43 -27.5t-41 -26.5q23 -22 39 -47q14 -27 18 -48q5 -27 -9 -52 q-39 -63 -93 -103q-48 -35 -94 -51q-15 -6 -33 -6q-14 0 -30 4q-33 7 -56 33q-15 22 -15 44q0 11 4 22q13 36 38 66q28 33 61 60q13 11 34.5 29t27.5 23q-15 17 -72 50q-64 36 -109 65q-55 35 -102 77q-44 40 -49 82zM203 -20q-5 -11 -5 -19q0 -11 9 -18q12 -6 24.5 -6 t26.5 6q31 11 54 29q27 20 45 43q20 25 26 42q2 4 2 9q0 13 -13 27q-19 21 -36 32q-22 -17 -51 -42q-31 -28 -50 -52q-22 -28 -32 -51z" />
<glyph unicode="t" horiz-adv-x="573" d="M8 522q2 14 1 20q-1 9 0 15q2 7 8 12q9 7 28 11q30 7 89 9q58 1 114 9q0 5 -4 102q-1 15 -2.5 38t-1.5 27l-3 54q-1 18 -1 70q0 11 11 15q13 5 25 6h4q11 0 23 -4q11 -4 16 -15q8 -23 9 -54q2 -40 3 -76q1 -27 1 -81q0 -32 -2 -70q59 4 173 14q85 8 177 15q20 -1 26 -22 q1 -4 1 -7q0 -12 -17 -16q-63 -6 -174 -23q-110 -17 -186 -36q4 -56 4 -131q0 -66 3 -131t12 -125t30 -111q29 -35 57 -41t54 3q27 10 48 29q15 14 37 38q15 15 24 0t-17 -43q-8 -10 -31 -31q-16 -15 -44 -28q-23 -11 -58 -14q-7 -1 -15 -1q-25 0 -53 8q-47 12 -70 76 q-22 61 -34 148q-10 69 -15 177q-5 109 -10 166q-82 -7 -132 -14q-49 -7 -61 -8q-19 -2 -24 2q-18 14 -23 18z" />
<glyph unicode="u" horiz-adv-x="555" d="M29 688q8 0 28 -2q10 -1 25 -5q13 -3 20 -13q6 -27 6 -79q0 -37 -3 -87q-6 -91 -11 -287q0 -12 1 -24q2 -22 4 -37q3 -19 11 -39t19 -25q14 -10 47 35q35 48 64 116q30 71 51 150q14 54 14 102q0 19 -2 37q0 13 10 16q11 3 24 3q9 0 27 -2q5 -1 19 -4q-1 -7 -4.5 -47 t-6.5 -67q-9 -81 -10 -136q0 -13 -1 -26q0 -52 7 -97q8 -56 33 -72q22 -15 53 2q29 16 57 41q30 27 50 44q23 20 29 14q-7 -34 -35 -68t-60 -55q-36 -23 -72 -32q-16 -4 -31 -4q-20 0 -38 7q-11 1 -19 24q-7 21 -12 50q-8 52 -9 61q-4 40 -7 60l-37 -74q-33 -65 -41 -78 q-16 -28 -39 -63q-18 -26 -30 -31q-26 -10 -45 -10q-11 0 -19 3q-23 9 -30 25q-14 7 -18 42q-5 43 -8 91q-3 55 -3 125v143q0 49 -2 143q-1 70 -6 130z" />
<glyph unicode="v" horiz-adv-x="491" d="M29 565q-5 15 -5 25q0 13 8 17q13 7 58 -9q7 0 14 -52q3 -19 20 -127q11 -71 27 -157q15 -83 37 -143q7 -5 25 24q23 37 43 75q30 58 52 107q29 66 51 122q23 61 40 122q17 60 21 103q-1 4 2 4q2 0 4 -1q8 -3 18 -9q6 -4 20 -15q9 -8 9 -14q-22 -157 -89 -315 q-66 -156 -165 -297q-27 -27 -50 -27q-24 0 -34 22q-11 31 -25 110q-4 20 -23 141q-17 105 -26 152q-17 88 -32 142z" />
<glyph unicode="w" horiz-adv-x="671" d="M-8 570v81q0 15 9 24t23 15q15 7 25 8q16 2 19 2h2q3 0 4 -2q2 -4 2 -13q0 -17 -3 -58q-3 -39 -6 -109q-1 -31 -1 -66q0 -46 2 -98q0 -12 2 -76q1 -36 5 -94q3 -44 9 -76t18 -30q7 0 20 14q14 15 33 61q22 52 47 129q28 86 62 220q8 30 25 17q17 -12 24 -40 q13 -22 25 -50q7 -16 41 -86q24 -50 46 -84q25 -39 40 -40q10 -2 19 8t17 33q15 45 24 107q12 81 15 125q5 70 5 96q9 13 18 22q17 19 29 26q15 9 20 2q2 -3 2 -10q0 -12 -6 -36q0 -100 -15 -186q-14 -82 -37 -150q-20 -61 -46 -98q-24 -35 -45 -35q-26 -2 -52 32 q-38 48 -53 76q-29 52 -44 85q-21 46 -29 57q-10 -48 -37 -132q-23 -71 -53 -141q-25 -57 -60 -110q-28 -41 -53 -41h-4q-25 19 -40 70q-17 59 -25 123q-10 77 -14 149q-6 105 -7 150q-2 96 -2 129z" />
<glyph unicode="x" horiz-adv-x="491" d="M-28 709q3 21 24 21q5 0 10 -1q18 -23 50 -67q9 -13 26 -37.5t21 -30.5q20 -28 51 -77q21 -33 61 -97q25 66 39 110q18 56 25 117q4 15 23 8q17 -7 32 -14q6 -16 2 -41q-5 -29 -13 -55q-7 -23 -20 -54q-7 -18 -14 -40q-5 -11 -9 -24q-1 -3 -4.5 -12.5t-5.5 -15.5l-12 -32 q48 -117 90 -200q43 -85 58 -128q0 -14 -24 -5q-25 9 -42 25q-25 54 -53 99q-38 62 -60 106q-16 -44 -25 -66q-6 -14 -17 -41t-15 -37q-11 -27 -33 -79q-13 -31 -28 -72q-16 -21 -28 -25q-4 -2 -10 -2q-12 0 -30 7q30 72 58 144t36 92q12 29 25 73q4 12 11.5 41.5t12.5 46.5 q-23 31 -50 77l-55 92q-21 36 -53 87q-27 43 -44 60q-11 16 -11 35q0 6 1 12z" />
<glyph unicode="y" horiz-adv-x="626" d="M-4 645q7 4 18 4q6 0 13 -1q20 -3 30 -13q7 0 9 -33q0 -1 1.5 -32.5t2.5 -51.5q2 -51 6 -111q5 -67 13 -115q8 -50 25 -95q16 -42 42 -54q9 -5 19 -5q40 0 88 76q59 92 97 302q0 2 14 0q11 -1 27 -6q18 -5 27 -10q12 -6 12 -11q0 -34 -4 -73q-5 -46 -9 -94 q-6 -67 -7 -109q-1 -29 -1 -58t1 -57q59 50 118 72q67 26 119 31q22 -11 22 -15q0 -3 -9 -10q-80 -23 -137 -61q-56 -37 -111 -86q0 -40 2 -142t2 -151q0 -101 -1 -150q-2 -82 -8 -133q-7 -58 -21 -101q-14 -42 -36 -57q-16 -10 -37 -13q-11 -2 -25 -2q-8 0 -18 1 q-22 2 -41 9q-20 8 -32 20q-38 38 -55 99q-17 62 -17 132q0 69 17 148q16 73 44 145q28 71 67 126q41 57 87 87q6 111 6 217q-23 -57 -59 -114q-40 -63 -96 -97q-29 -13 -54 -13q-30 0 -54 19q-43 34 -54 107q-7 58 -16 139q-9 85 -11 105q-3 35 -7 102q-3 57 -9 133z M197 -427q-2 -26 -2 -51q0 -36 5 -68q9 -51 38 -82q23 -24 62 -24q8 0 17 1q21 5 33 47q14 51 18 105q4 63 6 138v39q0 43 -1 104q-1 56 -5 120q-3 51 -3 69q-4 -5 -26 -27q-15 -15 -26 -30q-27 -34 -51 -88q-24 -56 -42 -121q-16 -60 -23 -132z" />
<glyph unicode="z" horiz-adv-x="737" d="M18 388q-2 1 -2 4t3 7q5 9 26 25q24 13 76 44q56 34 117 67q60 33 127 60q64 26 106 26h3q20 0 27 -14q8 -15 -9 -56q-36 -97 -81 -203q-39 -92 -92 -190q54 21 89 39q13 6 84 41q26 13 89 41q41 19 101 38q28 0 44 4q12 3 24 -20q-81 -30 -138 -61q-64 -35 -124 -74 q-80 -52 -120 -79q-57 -39 -126 -73q-9 0 -22 5q-6 2 -20 14q-11 9 -15 16q-5 8 -1 12q13 23 67 115q34 59 67 124q39 78 58 125q26 63 36 120q-10 4 -42 -14q-23 -13 -81 -43q-53 -27 -112 -54q-66 -30 -136 -47q-6 0 -11 -1q-7 -1 -12 2z" />
<glyph unicode="{" horiz-adv-x="479" d="M37 586q76 56 109 107t37 99q5 49 -7 94q-4 15 -11.5 46t-11.5 47q-11 44 -13 97q-1 49 28 108q29 50 72 100q49 56 77 82q40 36 91 72q39 -6 45 -8q14 -4 26 -9q10 -4 0 -10q-101 -65 -158 -124q-56 -57 -80 -112t-23 -106q2 -56 11 -99q15 -71 22 -96q11 -44 8 -94 q-3 -45 -28 -95q-24 -47 -86 -99q67 -78 87 -146q20 -69 17 -130t-18 -117q-14 -51 -17 -110q-3 -57 17 -106q21 -51 91 -104q24 -21 45 -33q31 -18 36 -20q18 -8 33 -12l-22 -21q-8 0 -31 3q-21 3 -54 20q-36 19 -70 50q-39 36 -75 95q-26 40 -28 87q-2 52 5 96 q14 92 16 104q9 54 2 109q-7 56 -39 116q-31 59 -103 119z" />
<glyph unicode="|" horiz-adv-x="493" d="M186 -408q1 15 3 92q0 7 1.5 76.5t2.5 114.5q1 110 3 256q1 47 1.5 143t0.5 144q1 97 1 283q0 175 -1 248q-1 108 -3 178q-1 67 -7 73q46 11 72 -4t25 -49v-90q0 -103 -1 -171q-1 -100 -3 -227q-1 -116 -3 -257q-2 -132 -3 -261q0 -41 -0.5 -120.5t-1.5 -117.5 q-1 -73 -1 -192v-119q0 -7 -11 -8q-16 -2 -25 -1q-18 2 -29 4q-5 1 -21 5z" />
<glyph unicode="}" horiz-adv-x="436" d="M-59 1397l20 20q1 0 31 -2q23 -2 55 -16q34 -16 72 -46q41 -33 80 -91q27 -37 32 -86q4 -42 -1 -98q-2 -28 -11 -104q-6 -54 3 -111t43 -113q36 -59 110 -113q-75 -61 -104 -112t-32 -100q-3 -50 11 -94q13 -40 28 -92q13 -44 16 -98q3 -49 -22 -108q-29 -57 -67 -105 q-37 -47 -74 -84q-39 -39 -86 -75q-27 1 -45 6q-5 1 -10 2.5t-10 2.5t-8 2q-12 3 -1 11q99 68 153 131q53 63 74 117q21 55 18 105q-3 51 -15 99q-8 32 -26 94q-13 45 -13 93q0 49 22 97q24 54 82 104q-71 73 -94 141q-22 66 -22 129q0 62 12 119q11 54 13 111q2 54 -22 104 t-96 100q-33 22 -47 30q-17 10 -37 17q-29 12 -32 13z" />
<glyph unicode="~" horiz-adv-x="681" d="M121 373q17 29 39 45q20 15 50 19q31 5 73 -17q45 -23 88 -29q42 -6 84 -4q36 1 66 8q28 6 36 11q7 3 21 5q9 1 16 -2q6 -3 3 -11q-3 -7 -17 -17q-18 -12 -50 -28q-28 -14 -56 -21q-33 -8 -61 -7q-36 2 -63 15q-62 28 -92 36q-34 9 -50 8q-19 -2 -27 -10q-13 -13 -21 -20 z" />
<glyph unicode="&#xa2;" horiz-adv-x="606" d="M68 525q6 64 26 120q21 60 51 111q28 48 62 75q41 29 77 35t70 0q1 -10 -16 -20q-23 -14 -46 -30q-31 -22 -61 -51t-59 -85q-28 -59 -40 -101t5 -100q5 -10 16 -21t27 -12q73 11 124 48q68 49 102 77q32 29 62 62l40 45q16 18 28 25t23 6q-5 -12 -38 -64 q-27 -42 -83 -105q-50 -56 -119 -105q-67 -48 -147 -60q-46 7 -51 8q-20 4 -37 39q-22 43 -16 103zM201 1014q36 10 59 -2t21 -41q0 -41 1 -78q1 -20 1.5 -63.5t0.5 -66.5q1 -26 1.5 -79t0.5 -80q0 -28 0.5 -83t1.5 -82q0 -26 0.5 -75.5t1.5 -72.5q1 -45 1 -109q0 -6 -9 -7 q-9 -2 -22 0q-4 1 -11.5 2t-11.5 1t-18 4q0 39 1 84q2 68 0 158q-1 31 -1.5 94.5t-0.5 96.5q-2 102 -3 189q-1 86 -6 145q-5 61 -8 65z" />
<glyph unicode="&#xa9;" horiz-adv-x="774" d="M85 461q-1 67 24 137q17 44 54 93q39 52 113 85q20 7 54 18q22 7 55 7q30 0 59 -8h7q6 -6 14 -7q24 -8 48 -20q31 -15 62 -41q35 -28 62 -70q29 -45 41 -106q8 -77 -12 -140q-21 -67 -68 -118q-40 -49 -96 -75q-57 -26 -115 -26q-13 0 -20 1q-3 1 -10 2t-11 2 q-76 15 -130 45q-55 30 -101 90q-29 60 -30 131zM95 444q-5 63 13 123q19 65 59 115q44 55 114 84q38 17 71 24q32 7 92 -4q2 -1 7 -3t14.5 -5.5t17.5 -6.5q33 -13 67 -36q35 -23 70 -69q32 -42 48 -117q10 -80 -16 -151q-25 -68 -72 -115q-48 -48 -110 -70t-124 -10 q-69 12 -123 43t-100 90q-24 49 -28 108zM104 462q1 -66 27 -122q46 -55 94 -85q51 -31 123 -42q4 -1 10.5 -2.5t9.5 -1.5q12 -2 19 -2q55 0 106 25q53 26 93 69q41 48 63 114q20 60 12 132q-12 60 -38 99t-58 66q-30 26 -60 39q-26 12 -48 19q-11 6 -15 6q-17 5 -30 6 q-20 2 -27 2q-30 0 -51 -7q-28 -9 -51 -19q-73 -29 -107 -78q-34 -50 -51 -90q-22 -60 -21 -128zM124 485q2 43 9 78q7 34 17 58q8 20 14 28q72 105 182 105q47 0 92 -18q47 -19 81 -40q38 -24 61 -48q24 -26 30 -40q51 -133 0 -239q-25 -48 -81 -91q-59 -45 -140 -45h-20 q-4 0 -13 1.5t-10 1.5q-13 2 -38 9q-28 8 -55 23q-33 18 -61 46q-32 32 -55 79q-15 48 -13 92zM133 482q0 -45 14 -87q22 -48 51 -76q32 -30 58 -44q28 -15 53 -21q27 -7 37 -8q47 -8 88 0q40 7 74 26q31 17 56 45q21 24 38 56q23 48 26 102t-26 127q-11 26 -56 65t-111 62 q-63 22 -136 10q-72 -12 -129 -94q-2 -3 -13 -31q-11 -26 -17 -56q-7 -32 -7 -76zM143 483q0 -37 13 -84q22 -48 49 -74q30 -29 56 -43q30 -17 51 -22q28 -7 36 -8q14 0 21 -1t20 -1q79 0 132 41q52 40 75 86q49 98 -2 223q-5 13 -30 38q-26 26 -57 45q-39 24 -76 37 q-42 15 -85 15q-99 0 -168 -94q-3 -4 -13 -29q-11 -28 -16 -55q-6 -33 -6 -74zM248 391q-11 45 0 83q12 42 30 68q20 29 44 51q4 4 17 16.5t19 17.5q8 1 28 7q17 5 30 4q14 -1 22 -9t4 -29q-72 -15 -101 -57q-30 -43 -40 -92q-1 -21 3 -27q4 -5 28 -18q65 4 102 31 q35 25 57 73q15 -6 17 -8t7 -4.5l7 -3.5q-10 -38 -45 -73q-34 -34 -78 -52q-45 -18 -85 -17q-42 2 -66 39z" />
<glyph unicode="&#xad;" d="M41 401q-11 39 3 62q13 22 46 20q47 0 65 1t56 1q40 0 63 1q33 1 88 3q7 0 9 -8q2 -10 1 -19q-2 -14 -4 -22q-1 -4 -3.5 -8.5t-2.5 -5.5q-33 2 -71 1q-70 -2 -103 -4q-42 -2 -96 -8q-41 -4 -51 -14z" />
<glyph unicode="&#xae;" horiz-adv-x="950" d="M114 485q-3 86 25 164q22 55 67 113q46 59 138 100q35 16 62 23q30 8 67 8q29 0 72 -10h4q8 -8 18 -9q23 -8 60 -24t74 -49q37 -32 72 -83q32 -47 48 -126q12 -89 -13 -169q-25 -79 -83 -140q-50 -60 -115 -90q-68 -31 -133 -31q-27 0 -51 6q-93 17 -157 54 q-62 36 -117 108q-35 73 -38 155zM126 465q-5 78 15 147q22 77 70 138q49 62 135 100q42 20 87 28q41 7 110 -4q7 -5 46 -18q37 -12 82 -43t85 -83t57 -138q10 -98 -21 -180q-32 -82 -89 -140q-58 -58 -129 -83t-146 -13q-86 17 -148 53q-65 38 -122 107q-28 57 -32 129z M135 486q1 -80 35 -144q47 -63 111 -102q60 -37 147 -52q2 0 10.5 -1.5t13.5 -2.5q18 -2 25 -2q63 0 125 30t109 83q52 60 76 134q24 76 14 159q-12 71 -44 120q-31 48 -69 78q-43 34 -72 47q-43 19 -55 23q-17 6 -22 6q-32 8 -66 8q-37 0 -62 -7q-38 -11 -59 -21 q-88 -38 -130 -94q-44 -57 -62 -109q-27 -71 -25 -153zM161 515q2 55 10 93q10 43 21 69q15 33 17 36q44 64 98 93q55 30 121 30q56 0 109 -21t96 -48t72 -57t36 -48q66 -158 0 -287q-20 -37 -37 -58q-24 -28 -58 -52q-32 -22 -76 -38q-39 -14 -93 -14h-25q-10 0 -26 2 q-5 1 -21 5t-26 6q-34 8 -66 28q-35 21 -71 56q-37 35 -64 96q-18 58 -17 109zM172 513q0 -51 16 -105q27 -56 62 -91q36 -36 68 -54t64 -26q37 -9 46 -10q55 -10 103 0q50 11 88 33t67 54q27 30 45 67q28 52 33 121q4 68 -33 153q-7 16 -36 47q-31 32 -69 57q-42 27 -94 47 q-50 19 -106 19q-58 0 -110 -26q-55 -28 -99 -92q-3 -4 -17 -37q-13 -29 -20 -67q-8 -43 -8 -90zM181 514q-1 -47 16 -102q28 -57 60 -88q38 -36 67 -52q32 -17 61 -25t43 -9q10 0 26 -2q1 0 9.5 -1.5t13.5 -1.5q47 0 86 15q41 16 70 36q31 22 53 48q23 27 37 53 q33 59 31 124q-1 61 -31 142q-7 17 -36 46q-30 30 -68 54q-41 26 -91 44t-100 18q-123 0 -201 -113q-5 -5 -17 -32q-13 -29 -20 -66q-8 -39 -9 -88zM299 668l6 4q15 11 19 12q2 1 20 12h2q19 5 24 -8t5 -16v-2q17 9 42 14q19 4 38 4q43 0 84 -14q43 -15 49 -43 q15 -48 -10 -73q-20 -20 -56 -38q-12 -5 -18 -11q-5 -5 -19 -11q18 -5 29 -9t23 -4q13 0 29 7q11 5 28 10q18 8 57 18h2h4q38 -12 47 -16q11 -6 11 -23v-10l-10 -2q-27 -7 -72 -18q-41 -15 -81 -24q-41 -9 -79 -9q-14 0 -32 2q-9 1 -27 10q2 -24 2 -28q0 -3 -0.5 -8t-1 -15 t-0.5 -19v-36l-17 4q-6 2 -13 1q-12 -2 -19 -5q-2 0 -4 -1t-4.5 -2t-3.5 -1t-3 -1q-4 -2 -6 -2q-7 0 -14 7q-6 6 -6 18v8q0 41 1 70q1 44 0 87q-1 32 -7 85q-4 40 -17 65zM311 664q15 11 19 12q1 0 7.5 3t12.5 5q9 2 10 -2q0 -2 2 -5t2 -4q1 -3 3 -11q2 -7 8 -7q24 17 57 21 q32 4 65 -2q27 -5 55 -19q24 -12 28 -28q8 -32 -2 -50q-11 -20 -30 -32q-22 -13 -43 -24q-28 -14 -40 -25q38 -17 61 -18q21 -1 44 4q10 2 38 14q18 8 45 12q39 -11 43 -13q6 -3 6 -14q-36 -8 -77 -22q-43 -15 -84 -24q-42 -9 -78 -8q-38 2 -62 24q0 -24 1 -30t1 -17v-20 v-44q-11 2 -22 -1q-16 -4 -23 -7q-10 -4 -16 -3t-6 13q0 41 1 70q1 28 -1 89q-1 32 -7 90q-4 40 -18 73zM324 657q10 -29 15 -69t6 -84t0 -84q-1 -27 -1 -70v-10q3 0 6 1t8 1q16 8 35 8v10q0 9 0.5 19t1 15t0.5 8q0 4 -2 28l-4 45l19 -16q21 -21 65 -21q37 0 76 9 q26 6 78 22q39 14 63 16q-5 5 -13 6q-16 3 -24 5q-5 -1 -14 -4t-13 -4q-16 -4 -24 -7q-19 -5 -31 -10q-15 -6 -34 -6q-31 0 -76 18l-15 6l13 13q23 23 53 35q34 18 49 35q17 18 6 53q-4 13 -37 28t-75 15q-18 0 -37 -4q-21 -5 -37 -19h-6h-4q-11 0 -15 9q-4 8 -4 16v6 q-3 -1 -6 -3t-5 -3.5t-3 -1.5t-3 -2t-5 -4.5t-6 -4.5zM375 578q0 11 2 41l4 6l16 6q5 1 17 3.5t18 4.5q15 4 35 4q29 0 57 -18q15 -11 17 -19q2 -10 2 -14q-4 -16 -21 -31q-12 -11 -40 -25q-23 -12 -47 -19q-24 -8 -38 -9l-8 -4l-2 10q-12 45 -12 64zM385 579q0 -19 10 -63 q27 6 49 15q35 15 52 26q22 15 31 31t-9 28q-31 23 -62 17q-30 -6 -67 -17q-4 -20 -4 -37zM395 578q0 -13 8 -50q36 10 76 30q38 19 43 36q0 5 -1 6q-1 2 -9 6q-24 17 -51 16q-30 -2 -60 -12h-4q-2 -24 -2 -32z" />
<glyph unicode="&#xb0;" horiz-adv-x="260" d="M60 1147q-1 15 1 39q1 14 7 28q8 24 35 44q28 21 63 16q17 0 32 -12t15 -48l-4 -45q-1 -19 -10 -42q-7 -18 -26 -32q-19 -15 -50 -16q-7 0 -13 1q-14 2 -20 5q-12 6 -21 25q-8 17 -9 37zM92 1150q4 -24 25 -34q18 -10 33 8q14 16 20 45q6 27 3 51q-3 23 -21 25 q-21 4 -36 -11q-16 -16 -22 -38q-6 -23 -2 -46z" />
<glyph unicode="&#xd7;" horiz-adv-x="739" d="M193 637q-6 6 0 14q11 14 16 18q12 10 20 16q10 7 17 9q4 -6 29 -29q19 -17 52 -44q11 -8 31.5 -26.5t31.5 -27.5q23 -19 69 -55q29 -23 88.5 -70t89.5 -71q-23 -45 -54 -52q-32 -8 -61 21q-53 46 -151 137q-103 95 -178 160zM238 321q-5 27 24 56q22 27 66.5 79.5 t62.5 74.5q54 64 154 186q6 6 13 3t13 -10q9 -12 12 -17q1 -3 3.5 -7t3.5 -6q-53 -62 -68 -80q-22 -26 -101 -126q-46 -57 -94 -123l-24 -32t-18.5 -24.5t-8.5 -11.5q-33 10 -38 38z" />
<glyph unicode="&#xf7;" horiz-adv-x="579" d="M49 383q-10 33 5 51q16 19 50 19h184q110 0 214 4q8 0 10 -6q2 -9 1 -16q-2 -12 -5 -18q-4 -8 -6 -14q-24 1 -93 0q-68 -1 -145 -6q-13 -1 -64 -3.5t-75 -4.5q-65 -5 -76 -6zM246 276q-5 12 0 25q6 15 18 27t33 8q8 0 21 -10q14 -11 14 -25q0 -17 -8 -35q-7 -16 -37 -16 q-5 0 -8 1q-11 3 -13 5q-15 7 -20 20zM246 549q-4 12 0 24q6 15 18 27t33 10l21 -12t14 -25q0 -19 -8 -35t-37 -16q-5 2 -8 1q-5 -2 -13 3q-15 10 -20 23z" />
<glyph unicode="&#x2dc;" horiz-adv-x="935" d="M113 1186q21 35 49 57q26 19 63 25q39 6 92 -23q57 -28 112 -35q57 -7 106 -6q43 1 83 10q32 7 46 13q11 5 25 7q13 2 21 -3q7 -4 4 -12q-3 -7 -22 -23q-33 -21 -62 -36q-31 -16 -72 -26q-43 -10 -77 -9q-38 1 -78 20q-79 34 -116 45q-39 12 -64 10q-24 -2 -35 -13 q-16 -16 -26 -24z" />
<glyph unicode="&#x2000;" horiz-adv-x="754" />
<glyph unicode="&#x2001;" horiz-adv-x="1509" />
<glyph unicode="&#x2002;" horiz-adv-x="754" />
<glyph unicode="&#x2003;" horiz-adv-x="1509" />
<glyph unicode="&#x2004;" horiz-adv-x="503" />
<glyph unicode="&#x2005;" horiz-adv-x="377" />
<glyph unicode="&#x2006;" horiz-adv-x="251" />
<glyph unicode="&#x2007;" horiz-adv-x="251" />
<glyph unicode="&#x2008;" horiz-adv-x="188" />
<glyph unicode="&#x2009;" horiz-adv-x="301" />
<glyph unicode="&#x200a;" horiz-adv-x="83" />
<glyph unicode="&#x2010;" d="M41 401q-11 39 3 62q13 22 46 20q47 0 65 1t56 1q40 0 63 1q33 1 88 3q7 0 9 -8q2 -10 1 -19q-2 -14 -4 -22q-1 -4 -3.5 -8.5t-2.5 -5.5q-33 2 -71 1q-70 -2 -103 -4q-42 -2 -96 -8q-41 -4 -51 -14z" />
<glyph unicode="&#x2011;" d="M41 401q-11 39 3 62q13 22 46 20q47 0 65 1t56 1q40 0 63 1q33 1 88 3q7 0 9 -8q2 -10 1 -19q-2 -14 -4 -22q-1 -4 -3.5 -8.5t-2.5 -5.5q-33 2 -71 1q-70 -2 -103 -4q-42 -2 -96 -8q-41 -4 -51 -14z" />
<glyph unicode="&#x2012;" d="M41 401q-11 39 3 62q13 22 46 20q47 0 65 1t56 1q40 0 63 1q33 1 88 3q7 0 9 -8q2 -10 1 -19q-2 -14 -4 -22q-1 -4 -3.5 -8.5t-2.5 -5.5q-33 2 -71 1q-70 -2 -103 -4q-42 -2 -96 -8q-41 -4 -51 -14z" />
<glyph unicode="&#x2013;" horiz-adv-x="862" d="M70 340q-11 39 4 61t47 21q65 0 122 1t182 1q128 0 189 1q96 2 146 3q6 0 8 -8q2 -11 1 -20q-2 -12 -4 -21q-1 -4 -3 -9l-2 -5q-33 0 -70 1q-34 1 -130 -1q-23 0 -76.5 -2t-82.5 -3q-31 -1 -83 -2.5t-72 -1.5q-57 -1 -121 -7q-49 -4 -55 -9z" />
<glyph unicode="&#x2014;" horiz-adv-x="1335" d="M90 319q-11 40 4 62q14 21 47 20q52 0 106 1t190 1h235q162 0 238 1q152 2 201 2q76 0 122 2q6 0 8 -9q2 -10 2 -19q0 -12 -3 -22q-1 -4 -3 -9l-2 -5q-29 0 -65 1q-54 1 -136 0q-29 -1 -89.5 -1.5t-92.5 -0.5q-34 -1 -102 -1.5t-102 -0.5q-92 -1 -202 -3q-76 -1 -176 -5 q-77 -3 -127 -6q-48 -3 -53 -8z" />
<glyph unicode="&#x2018;" horiz-adv-x="274" d="M72 1051q8 52 15 89q5 28 11 84q4 35 2 87q-1 35 -10 100q16 14 24 16q15 3 29 3q18 -5 23 -20q4 -13 4 -38q-3 0 -5 -35q-1 -12 -1.5 -40.5t-0.5 -42.5q-1 -43 -3 -101q-1 -47 -10 -92q-13 -8 -40 -14q-28 -6 -38 4z" />
<glyph unicode="&#x2019;" horiz-adv-x="307" d="M102 1047q3 18 9 52t7 37q5 28 11 84q4 35 2 87q-1 35 -10 100q16 15 23 16q10 2 30 2q19 -5 23 -19q4 -13 4 -38q-3 0 -5 -35q-1 -12 -1.5 -40.5t-0.5 -42.5q0 -15 -1.5 -48.5t-2.5 -52.5q-1 -47 -10 -92q-15 -9 -40 -15q-27 -6 -38 5z" />
<glyph unicode="&#x201c;" horiz-adv-x="413" d="M50 1403q-1 16 16 22q20 4 26 3q10 -2 27 -11q7 -64 17 -104q15 -58 26 -90q15 -43 33 -84q5 -12 17.5 -41.5t20.5 -46.5q-6 -12 -32 -11q-24 1 -39 9q-15 34 -34 91q-5 16 -32 104q-5 18 -13 46.5t-11 38.5q-11 35 -15 35q-5 20 -7 39zM215 1360q14 17 32 10 q17 -7 34 -24q8 -39 25 -76q16 -35 31 -73q11 -28 20 -57q7 -24 -3 -30q-21 -6 -41 20t-39 68q-14 32 -34 86q-19 51 -25 76z" />
<glyph unicode="&#x201d;" horiz-adv-x="378" d="M78 1212q19 36 32 72q5 13 13 38t12 36q12 34 24 57t23 23q18 -8 17 -42q-1 -30 -16 -77t-31 -88q-19 -47 -33 -74q-23 -5 -31 14q-9 21 -10 41zM152 1051q26 37 56 89q18 32 41 83q16 37 31 84q22 73 29 92q7 2 16 -3q8 -4 17 -13q10 -10 14 -15q8 -10 9 -14 q-12 -42 -36 -92q-3 -7 -20 -43.5t-26 -54.5q-7 -14 -20 -41t-19 -39q-9 -19 -12 -26.5t-1 -8.5q-12 -26 -20 -35q-11 -12 -27 -6q-17 10 -22 15q-3 3 -10 28z" />
<glyph unicode="&#x2022;" horiz-adv-x="618" d="M137 424q-8 26 2 49q7 28 32 51t65 19q17 -1 44 -22q25 -19 25 -48q0 -37 -18 -67q-19 -31 -72 -31q-6 2 -14 2q-11 0 -23 6q-33 17 -41 41z" />
<glyph unicode="&#x202f;" horiz-adv-x="301" />
<glyph unicode="&#x205f;" horiz-adv-x="377" />
<glyph unicode="&#x2122;" horiz-adv-x="454" d="M-104 1182q-7 20 0 41q29 0 51 7q38 12 49 16q48 18 51 19q25 8 55 13q6 -11 13 -15q6 -3 11 -11q5 -9 9 -24q3 -12 10 -59q17 28 28 52q5 10 20 39q7 10 30 0q5 -19 15 -47q11 -31 32 -62q17 2 25 11q9 10 13 22q6 16 8 25q2 11 10 26q6 16 11 18q6 2 21 -12 q6 -32 22 -73q15 -37 44 -48q4 -18 1 -23q-6 -9 -13 -14q-21 -4 -33 4q-10 7 -18 20q-8 12 -13 23q-7 15 -16 21q-34 -65 -65 -56q-29 9 -56 81q-8 15 -14 4q-8 -14 -12 -32q-10 -45 -10 -47q-6 -36 -7 -44q-17 -8 -18 -7t-23 -1q-5 20 -7 58q-2 47 -5 67q-4 29 -20 45 q-14 14 -50 -5q9 -35 10 -59q1 -28 6 -49q12 -61 8 -83q-5 -24 -22 -24q-11 66 -18 111q-7 40 -25 90q-29 -2 -50 -12t-58 -6z" />
<glyph unicode="&#x25fc;" horiz-adv-x="727" d="M0 0v727h727v-727h-727z" />
</font>
</defs>
</svg>
